<?xml version="1.0" encoding="UTF-8" standalone="no"?>
<svg
   xmlns:dc="http://purl.org/dc/elements/1.1/"
   xmlns:cc="http://creativecommons.org/ns#"
   xmlns:rdf="http://www.w3.org/1999/02/22-rdf-syntax-ns#"
   xmlns:svg="http://www.w3.org/2000/svg"
   xmlns="http://www.w3.org/2000/svg"
   version="1.1"
   id="Layer_1"
   x="0px"
   y="0px"
   viewBox="0 0 36.676904 45.549994"
   xml:space="preserve"
   width="36.676903"
   height="45.549995"><metadata
   id="metadata309"><rdf:RDF><cc:Work
       rdf:about=""><dc:format>image/svg+xml</dc:format><dc:type
         rdf:resource="http://purl.org/dc/dcmitype/StillImage" /><dc:title></dc:title></cc:Work></rdf:RDF></metadata><defs
   id="defs307">
	
	
	
	
	
	
	
	
	
	
	
	
	
	
	
	
	
	
	
	
	
	
	
	

		
		
		
		
		
	</defs>
<style
   type="text/css"
   id="style2">
	.st0{fill:#F1F2F2;stroke:#000000;stroke-width:1.5;stroke-miterlimit:10;}
	.st1{fill:#F2BE48;stroke:#000000;stroke-width:1.5;stroke-miterlimit:10;}
	.st2{fill:#7CCFA1;stroke:#000000;stroke-width:1.5;stroke-miterlimit:10;}
	.st3{fill:#E6E7E8;stroke:#000000;stroke-width:1.5;stroke-miterlimit:10;}
	.st4{fill:none;stroke:#000000;stroke-width:1.5;stroke-miterlimit:10;}
	.st5{font-family:'Charcoal';}
	.st6{font-size:17.3162px;}
	.st7{fill:#D1D3D4;stroke:#000000;stroke-width:1.5;stroke-miterlimit:10;}
	.st8{font-size:12.8981px;}
	.st9{fill:#F1F2F2;}
	.st10{fill:#FFFFFF;stroke:#000000;stroke-width:1.5;stroke-miterlimit:10;}
	.st11{fill:#F27548;stroke:#000000;stroke-width:1.5;stroke-miterlimit:10;}
	.st12{fill-rule:evenodd;clip-rule:evenodd;fill:#BCBEC0;stroke:#000000;stroke-width:1.5;stroke-miterlimit:10;}
	.st13{fill:#F2BE48;}
	.st14{fill:#D1D3D4;}
	.st15{fill:#FFFFFF;}
	.st16{fill:#7CCFA1;}
	.st17{fill:#BCBEC0;stroke:#000000;stroke-width:1.5;stroke-miterlimit:10;}
	.st18{clip-path:url(#SVGID_2_);fill:#F1F2F2;stroke:#000000;stroke-width:1.5;stroke-miterlimit:10;}
	.st19{clip-path:url(#SVGID_2_);}
	.st20{fill:#89C4E8;stroke:#000000;stroke-width:1.5;stroke-miterlimit:10;}
	.st21{clip-path:url(#SVGID_2_);fill:#FFFFFF;stroke:#000000;stroke-width:1.5;stroke-miterlimit:10;}
	.st22{fill:#F2CD48;stroke:#000000;stroke-width:1.5;stroke-miterlimit:10;}
	.st23{fill:#B4F263;stroke:#000000;stroke-width:1.5;stroke-miterlimit:10;}
</style>
<g
   id="g158"
   transform="translate(-122.3901,-64.440002)">
			<g
   id="g156">
				<rect
   x="131.34"
   y="66.139999"
   class="st9"
   width="24.93"
   height="31.700001"
   id="rect108" />
				<rect
   x="141.27"
   y="81.139999"
   transform="rotate(-90,157.1221,81.9952)"
   width="31.700001"
   height="1.71"
   id="rect110" />
				<rect
   x="114.63"
   y="81.139999"
   transform="rotate(-90,130.4823,81.9952)"
   width="31.700001"
   height="1.71"
   id="rect112" />
				<rect
   x="131.34"
   y="64.440002"
   width="24.93"
   height="1.71"
   id="rect114" />
				<rect
   x="131.34"
   y="97.849998"
   width="24.93"
   height="1.71"
   id="rect116" />
				<rect
   x="124.1"
   y="72"
   class="st9"
   width="24.93"
   height="31.700001"
   id="rect118" />
				<rect
   x="134.03999"
   y="86.989998"
   transform="rotate(-90,149.88675,87.84685)"
   width="31.700001"
   height="1.71"
   id="rect120" />
				<rect
   x="107.4"
   y="86.989998"
   transform="rotate(-90,123.2469,87.8468)"
   width="31.700001"
   height="1.71"
   id="rect122" />
				<rect
   x="124.1"
   y="70.290001"
   width="24.93"
   height="1.71"
   id="rect124" />
				<rect
   x="124.1"
   y="103.7"
   width="24.93"
   height="1.71"
   id="rect126" />
				<rect
   x="135.78999"
   y="78.389999"
   width="10.28"
   height="1.71"
   id="rect128" />
				<g
   id="g138">
					<rect
   x="128.14"
   y="77.559998"
   width="3.8399999"
   height="1.71"
   id="rect130" />
					<rect
   x="128.14"
   y="83.019997"
   width="3.8399999"
   height="1.71"
   id="rect132" />
					
						<rect
   x="130.96001"
   y="80.290001"
   transform="rotate(90,132.83095,81.14185)"
   width="3.75"
   height="1.71"
   id="rect134" />
					
						<rect
   x="125.41"
   y="80.290001"
   transform="rotate(90,127.2863,81.1418)"
   width="3.75"
   height="1.71"
   id="rect136" />
				</g>
				<rect
   x="135.78999"
   y="82.190002"
   width="10.28"
   height="1.71"
   id="rect140" />
				<rect
   x="135.78999"
   y="88.669998"
   width="10.28"
   height="1.71"
   id="rect142" />
				<g
   id="g152">
					<rect
   x="128.14"
   y="87.849998"
   width="3.8399999"
   height="1.71"
   id="rect144" />
					<rect
   x="128.14"
   y="93.300003"
   width="3.8399999"
   height="1.71"
   id="rect146" />
					
						<rect
   x="130.96001"
   y="90.57"
   transform="rotate(90,132.83095,91.42735)"
   width="3.75"
   height="1.71"
   id="rect148" />
					
						<rect
   x="125.41"
   y="90.57"
   transform="rotate(90,127.2863,91.4274)"
   width="3.75"
   height="1.71"
   id="rect150" />
				</g>
				<rect
   x="135.78999"
   y="92.480003"
   width="10.28"
   height="1.71"
   id="rect154" />
			</g>
		</g><g
   id="g190"
   transform="translate(-122.3901,-64.440002)">
			<polygon
   class="st9"
   points="158.37,98.26 157.71,97.51 154.92,94.72 150.43,94.03 146.59,94.72 143.8,97.51 143.11,104.48 143.8,105.84 146.59,108.63 150.33,109.34 154.92,108.63 157.71,105.84 "
   id="polygon160" />
			<rect
   x="146.56"
   y="93.330002"
   width="8.3500004"
   height="1.39"
   id="rect162" />
			<rect
   x="146.56"
   y="108.6"
   width="8.3500004"
   height="1.39"
   id="rect164" />
			<rect
   x="154.2"
   y="100.97"
   transform="rotate(90,158.3748,101.6622)"
   width="8.3500004"
   height="1.39"
   id="rect166" />
			<rect
   x="149.77"
   y="99.5"
   transform="matrix(-0.7071,0.7071,-0.7071,-0.7071,332.0788,62.8378)"
   width="6.5100002"
   height="1.39"
   id="rect168" />
			<rect
   x="148.03999"
   y="100.54"
   transform="matrix(0.7071,0.7071,-0.7071,0.7071,115.526,-76.4372)"
   width="3.99"
   height="1.39"
   id="rect170" />
			
				<rect
   x="138.92999"
   y="100.97"
   transform="rotate(90,143.10505,101.66215)"
   width="8.3500004"
   height="1.39"
   id="rect172" />
			<rect
   x="154.92"
   y="94.720001"
   width="1.39"
   height="1.39"
   id="rect174" />
			<rect
   x="156.31"
   y="96.120003"
   width="1.39"
   height="1.39"
   id="rect176" />
			<rect
   x="143.8"
   y="96.120003"
   transform="rotate(-90,144.4993,96.8158)"
   width="1.39"
   height="1.39"
   id="rect178" />
			<rect
   x="145.2"
   y="94.720001"
   transform="rotate(-90,145.89355,95.42155)"
   width="1.39"
   height="1.39"
   id="rect180" />
			
				<rect
   x="145.2"
   y="107.23"
   transform="rotate(180,145.89355,107.93025)"
   width="1.39"
   height="1.39"
   id="rect182" />
			
				<rect
   x="143.8"
   y="105.84"
   transform="rotate(180,144.4993,106.53605)"
   width="1.39"
   height="1.39"
   id="rect184" />
			
				<rect
   x="156.31"
   y="105.84"
   transform="rotate(90,157.00805,106.53605)"
   width="1.39"
   height="1.39"
   id="rect186" />
			
				<rect
   x="154.92"
   y="107.23"
   transform="rotate(90,155.61375,107.93025)"
   width="1.39"
   height="1.39"
   id="rect188" />
		</g>
</svg>
