<?xml version="1.0" encoding="UTF-8" standalone="no"?>
<svg
   xmlns:dc="http://purl.org/dc/elements/1.1/"
   xmlns:cc="http://creativecommons.org/ns#"
   xmlns:rdf="http://www.w3.org/1999/02/22-rdf-syntax-ns#"
   xmlns:svg="http://www.w3.org/2000/svg"
   xmlns="http://www.w3.org/2000/svg"
   version="1.1"
   id="Layer_1"
   x="0px"
   y="0px"
   viewBox="0 0 42.477704 40.770003"
   xml:space="preserve"
   width="42.477703"
   height="40.770004"><metadata
   id="metadata309"><rdf:RDF><cc:Work
       rdf:about=""><dc:format>image/svg+xml</dc:format><dc:type
         rdf:resource="http://purl.org/dc/dcmitype/StillImage" /><dc:title></dc:title></cc:Work></rdf:RDF></metadata><defs
   id="defs307">
	
	
	
	
	
	
	
	
	
	
	
	
	
	
	
	
	
	
	
	
	
	
	
	

		
		
		
		
		
	</defs>
<style
   type="text/css"
   id="style2">
	.st0{fill:#F1F2F2;stroke:#000000;stroke-width:1.5;stroke-miterlimit:10;}
	.st1{fill:#F2BE48;stroke:#000000;stroke-width:1.5;stroke-miterlimit:10;}
	.st2{fill:#7CCFA1;stroke:#000000;stroke-width:1.5;stroke-miterlimit:10;}
	.st3{fill:#E6E7E8;stroke:#000000;stroke-width:1.5;stroke-miterlimit:10;}
	.st4{fill:none;stroke:#000000;stroke-width:1.5;stroke-miterlimit:10;}
	.st5{font-family:'Charcoal';}
	.st6{font-size:17.3162px;}
	.st7{fill:#D1D3D4;stroke:#000000;stroke-width:1.5;stroke-miterlimit:10;}
	.st8{font-size:12.8981px;}
	.st9{fill:#F1F2F2;}
	.st10{fill:#FFFFFF;stroke:#000000;stroke-width:1.5;stroke-miterlimit:10;}
	.st11{fill:#F27548;stroke:#000000;stroke-width:1.5;stroke-miterlimit:10;}
	.st12{fill-rule:evenodd;clip-rule:evenodd;fill:#BCBEC0;stroke:#000000;stroke-width:1.5;stroke-miterlimit:10;}
	.st13{fill:#F2BE48;}
	.st14{fill:#D1D3D4;}
	.st15{fill:#FFFFFF;}
	.st16{fill:#7CCFA1;}
	.st17{fill:#BCBEC0;stroke:#000000;stroke-width:1.5;stroke-miterlimit:10;}
	.st18{clip-path:url(#SVGID_2_);fill:#F1F2F2;stroke:#000000;stroke-width:1.5;stroke-miterlimit:10;}
	.st19{clip-path:url(#SVGID_2_);}
	.st20{fill:#89C4E8;stroke:#000000;stroke-width:1.5;stroke-miterlimit:10;}
	.st21{clip-path:url(#SVGID_2_);fill:#FFFFFF;stroke:#000000;stroke-width:1.5;stroke-miterlimit:10;}
	.st22{fill:#F2CD48;stroke:#000000;stroke-width:1.5;stroke-miterlimit:10;}
	.st23{fill:#B4F263;stroke:#000000;stroke-width:1.5;stroke-miterlimit:10;}
</style>
<g
   id="g288"
   transform="translate(-28.912297,-66.309998)">
			<rect
   x="30.620001"
   y="68.019997"
   class="st9"
   width="24.93"
   height="31.700001"
   id="rect192" />
			<rect
   x="40.549999"
   y="83.019997"
   transform="rotate(-90,56.4017,83.8696)"
   width="31.700001"
   height="1.71"
   id="rect194" />
			<rect
   x="13.91"
   y="83.019997"
   transform="rotate(-90,29.76185,83.86955)"
   width="31.700001"
   height="1.71"
   id="rect196" />
			<rect
   x="30.620001"
   y="66.309998"
   width="24.93"
   height="1.71"
   id="rect198" />
			<rect
   x="30.620001"
   y="99.720001"
   width="24.93"
   height="1.71"
   id="rect200" />
			<rect
   x="35.200001"
   y="73.669998"
   class="st9"
   width="24.93"
   height="31.700001"
   id="rect202" />
			<rect
   x="45.139999"
   y="88.669998"
   transform="rotate(-90,60.9908,89.5248)"
   width="31.700001"
   height="1.71"
   id="rect204" />
			<rect
   x="18.5"
   y="88.669998"
   transform="rotate(-90,34.351,89.5248)"
   width="31.700001"
   height="1.71"
   id="rect206" />
			<rect
   x="35.200001"
   y="71.970001"
   width="24.93"
   height="1.71"
   id="rect208" />
			<rect
   x="35.200001"
   y="105.37"
   width="24.93"
   height="1.71"
   id="rect210" />
			<rect
   x="46.900002"
   y="80.059998"
   width="10.28"
   height="1.71"
   id="rect212" />
			<g
   id="g222">
				<rect
   x="39.240002"
   y="79.239998"
   width="3.8399999"
   height="1.71"
   id="rect214" />
				<rect
   x="39.240002"
   y="84.690002"
   width="3.8399999"
   height="1.71"
   id="rect216" />
				<rect
   x="42.060001"
   y="81.970001"
   transform="rotate(90,43.935,82.8198)"
   width="3.75"
   height="1.71"
   id="rect218" />
				<rect
   x="36.52"
   y="81.970001"
   transform="rotate(90,38.3904,82.8198)"
   width="3.75"
   height="1.71"
   id="rect220" />
			</g>
			<rect
   x="46.900002"
   y="83.870003"
   width="10.28"
   height="1.71"
   id="rect224" />
			<rect
   x="46.900002"
   y="94.980003"
   width="10.28"
   height="1.71"
   id="rect226" />
			<g
   id="g236">
				<rect
   x="39.240002"
   y="94.150002"
   width="3.8399999"
   height="1.71"
   id="rect228" />
				<rect
   x="39.240002"
   y="99.610001"
   width="3.8399999"
   height="1.71"
   id="rect230" />
				<rect
   x="42.060001"
   y="96.879997"
   transform="rotate(90,43.93505,97.73545)"
   width="3.75"
   height="1.71"
   id="rect232" />
				<rect
   x="36.52"
   y="96.879997"
   transform="rotate(90,38.39035,97.73545)"
   width="3.75"
   height="1.71"
   id="rect234" />
			</g>
			<rect
   x="46.900002"
   y="98.790001"
   width="10.28"
   height="1.71"
   id="rect238" />
			<g
   id="g286">
				<polygon
   class="st9"
   points="68.42,78.72 65.45,76.51 62.38,76.99 53.37,86 52.24,89.38 55.1,92.76 57.88,90.54 66.89,81.49 "
   id="polygon240" />
				<rect
   x="51.119999"
   y="86"
   width="2.25"
   height="2.25"
   id="rect242" />
				<rect
   x="51.119999"
   y="88.25"
   width="2.25"
   height="2.25"
   id="rect244" />
				<rect
   x="51.119999"
   y="90.510002"
   width="2.25"
   height="2.25"
   id="rect246" />
				<rect
   x="53.369999"
   y="88.25"
   width="2.25"
   height="2.25"
   id="rect248" />
				<rect
   x="53.369999"
   y="90.510002"
   width="2.25"
   height="2.25"
   id="rect250" />
				<rect
   x="55.619999"
   y="90.510002"
   width="2.25"
   height="2.25"
   id="rect252" />
				<rect
   x="53.369999"
   y="83.75"
   width="2.25"
   height="2.25"
   id="rect254" />
				<rect
   x="55.619999"
   y="81.489998"
   width="2.25"
   height="2.25"
   id="rect256" />
				<rect
   x="57.880001"
   y="79.239998"
   width="2.25"
   height="2.25"
   id="rect258" />
				<rect
   x="60.130001"
   y="76.989998"
   width="2.25"
   height="2.25"
   id="rect260" />
				<rect
   x="57.880001"
   y="88.290001"
   width="2.25"
   height="2.25"
   id="rect262" />
				<rect
   x="60.130001"
   y="86.040001"
   width="2.25"
   height="2.25"
   id="rect264" />
				<rect
   x="62.380001"
   y="83.779999"
   width="2.25"
   height="2.25"
   id="rect266" />
				<rect
   x="64.639999"
   y="81.529999"
   width="2.25"
   height="2.25"
   id="rect268" />
				<rect
   x="62.380001"
   y="74.730003"
   width="2.25"
   height="2.25"
   id="rect270" />
				<rect
   x="64.639999"
   y="72.480003"
   width="2.25"
   height="2.25"
   id="rect272" />
				<rect
   x="66.889999"
   y="74.730003"
   width="2.25"
   height="2.25"
   id="rect274" />
				<rect
   x="64.639999"
   y="76.989998"
   width="2.25"
   height="2.25"
   id="rect276" />
				<rect
   x="66.889999"
   y="79.239998"
   width="2.25"
   height="2.25"
   id="rect278" />
				<rect
   x="69.139999"
   y="76.989998"
   width="2.25"
   height="2.25"
   id="rect280" />
				<rect
   x="66.889999"
   y="76.989998"
   width="2.25"
   height="2.25"
   id="rect282" />
				<rect
   x="64.639999"
   y="74.730003"
   width="2.25"
   height="2.25"
   id="rect284" />
			</g>
		</g>
</svg>
