<?xml version="1.0" encoding="UTF-8"?>
<svg width="37.956" height="39.54" version="1.1" viewBox="0 0 37.956 39.54" xml:space="preserve" xmlns="http://www.w3.org/2000/svg" xmlns:cc="http://creativecommons.org/ns#" xmlns:dc="http://purl.org/dc/elements/1.1/" xmlns:rdf="http://www.w3.org/1999/02/22-rdf-syntax-ns#"><metadata><rdf:RDF><cc:Work rdf:about=""><dc:format>image/svg+xml</dc:format><dc:type rdf:resource="http://purl.org/dc/dcmitype/StillImage"/><dc:title/></cc:Work></rdf:RDF></metadata>
<style type="text/css">
	.st0{fill:#F1F2F2;stroke:#000000;stroke-width:1.5;stroke-miterlimit:10;}
	.st1{fill:#F2BE48;stroke:#000000;stroke-width:1.5;stroke-miterlimit:10;}
	.st2{fill:#7CCFA1;stroke:#000000;stroke-width:1.5;stroke-miterlimit:10;}
	.st3{fill:#E6E7E8;stroke:#000000;stroke-width:1.5;stroke-miterlimit:10;}
	.st4{fill:none;stroke:#000000;stroke-width:1.5;stroke-miterlimit:10;}
	.st5{font-family:'Charcoal';}
	.st6{font-size:17.3162px;}
	.st7{fill:#D1D3D4;stroke:#000000;stroke-width:1.5;stroke-miterlimit:10;}
	.st8{font-size:12.8981px;}
	.st9{fill:#F1F2F2;}
	.st10{fill:#FFFFFF;stroke:#000000;stroke-width:1.5;stroke-miterlimit:10;}
	.st11{fill-rule:evenodd;clip-rule:evenodd;fill:#BCBEC0;stroke:#000000;stroke-width:1.5;stroke-miterlimit:10;}
	.st12{fill:#F2BE48;}
	.st13{clip-path:url(#SVGID_2_);}
	.st14{fill:#B4F263;}
	.st15{fill:#F27548;}
	.st16{fill:#BCBEC0;stroke:#000000;stroke-width:1.5;stroke-miterlimit:10;}
	.st17{clip-path:url(#SVGID_4_);}
	.st18{fill:#F27548;stroke:#000000;stroke-width:1.5;stroke-miterlimit:10;}
	.st19{fill:#B4F263;stroke:#000000;stroke-width:1.5;stroke-miterlimit:10;}
</style>
<g transform="translate(-202.12 -68.45)">
			<rect class="st9" x="203.83" y="70.16" width="24.93" height="32.62"/>
			<rect transform="rotate(-90 229.62 86.472)" x="213.3" y="85.62" width="32.62" height="1.71"/>
			<rect transform="rotate(-90 202.98 86.472)" x="186.66" y="85.62" width="32.62" height="1.71"/>
			<rect x="203.83" y="68.45" width="24.93" height="1.71"/>
			<rect x="203.83" y="102.78" width="24.93" height="1.71"/>
			<rect class="st9" x="207.91" y="73.65" width="24.93" height="32.62"/>
			<rect transform="rotate(-90 233.7 89.967)" x="217.39" y="89.11" width="32.62" height="1.71"/>
			<rect transform="rotate(-90 207.06 89.967)" x="190.75" y="89.11" width="32.62" height="1.71"/>
			<rect x="207.91" y="71.95" width="24.93" height="1.71"/>
			<rect x="207.91" y="106.28" width="24.93" height="1.71"/>
			<rect x="219.61" y="78.43" width="10.28" height="1.71"/>
			
				<rect x="211.95" y="77.6" width="3.84" height="1.71"/>
				<rect x="211.95" y="83.06" width="3.84" height="1.71"/>
				
					<rect transform="rotate(90 216.64 81.184)" x="214.77" y="80.33" width="3.75" height="1.71"/>
				
					<rect transform="rotate(90 211.1 81.184)" x="209.23" y="80.33" width="3.75" height="1.71"/>
			
			<rect x="219.61" y="82.23" width="10.28" height="1.71"/>
			<rect x="219.61" y="90.02" width="10.28" height="1.71"/>
			
				<rect x="211.95" y="89.19" width="3.84" height="1.71"/>
				<rect x="211.95" y="94.65" width="3.84" height="1.71"/>
				
					<rect transform="rotate(90 216.64 92.772)" x="214.77" y="91.92" width="3.75" height="1.71"/>
				
					<rect transform="rotate(90 211.1 92.772)" x="209.23" y="91.92" width="3.75" height="1.71"/>
			
			<rect x="219.61" y="93.82" width="10.28" height="1.71"/>
		</g><g transform="translate(-116.54 -68.566)">
			<rect class="st9" x="141.51" y="91.5" width="11.51" height="11.38"/>
			<rect x="141.51" y="90.02" width="11.51" height="1.49"/>
			<rect x="141.51" y="102.88" width="11.51" height="1.49"/>
			
				<rect transform="rotate(90 153.76 97.19)" x="148.07" y="96.45" width="11.38" height="1.49"/>
			
				<rect transform="rotate(90 140.77 97.19)" x="135.08" y="96.45" width="11.38" height="1.49"/>
			
				<rect transform="rotate(-90 145.91 99.39)" x="145.23" y="98.71" width="1.36" height="1.36"/>
				<rect transform="rotate(-90 147.26 98.034)" x="146.59" y="97.36" width="1.36" height="1.36"/>
				<rect transform="rotate(-90 144.55 98.034)" x="143.87" y="97.36" width="1.36" height="1.36"/>
				<rect transform="rotate(-90 148.62 96.678)" x="147.94" y="96" width="1.36" height="1.36"/>
				<rect transform="rotate(-90 149.98 95.322)" x="149.3" y="94.64" width="1.36" height="1.36"/>
			
		</g>
</svg>
