<?xml version="1.0" encoding="UTF-8"?>
<svg width="14.075" height="15.655" version="1.1" viewBox="0 0 14.075 15.655" xml:space="preserve" xmlns="http://www.w3.org/2000/svg" xmlns:cc="http://creativecommons.org/ns#" xmlns:dc="http://purl.org/dc/elements/1.1/" xmlns:rdf="http://www.w3.org/1999/02/22-rdf-syntax-ns#" xmlns:xlink="http://www.w3.org/1999/xlink"><metadata><rdf:RDF><cc:Work rdf:about=""><dc:format>image/svg+xml</dc:format><dc:type rdf:resource="http://purl.org/dc/dcmitype/StillImage"/><dc:title/></cc:Work></rdf:RDF></metadata><defs>
	
	
	
	
	
	
	
	
	
	
	
	
	
	
	
	
	
	
	
	
	
	
	
	
	
	
	
	
	

		
		<clipPath id="SVGID_2_">
			<use width="100%" height="100%" xlink:href="#SVGID_3_"/>
		</clipPath>
		
		
		
	
			
			
			
			
			
			
			
			
		
			
			
			
			
			
			
		
		
		
	
		
		
	</defs>
<style type="text/css">
	.st0{fill:#F1F2F2;stroke:#000000;stroke-width:1.5;stroke-miterlimit:10;}
	.st1{fill:#F2BE48;stroke:#000000;stroke-width:1.5;stroke-miterlimit:10;}
	.st2{fill:#7CCFA1;stroke:#000000;stroke-width:1.5;stroke-miterlimit:10;}
	.st3{fill:#E6E7E8;stroke:#000000;stroke-width:1.5;stroke-miterlimit:10;}
	.st4{fill:none;stroke:#000000;stroke-width:1.5;stroke-miterlimit:10;}
	.st5{fill:#D1D3D4;stroke:#000000;stroke-width:1.5;stroke-miterlimit:10;}
	.st6{fill:#F1F2F2;}
	.st7{fill:#FFFFFF;stroke:#000000;stroke-width:1.5;stroke-miterlimit:10;}
	.st8{fill-rule:evenodd;clip-rule:evenodd;fill:#BCBEC0;stroke:#000000;stroke-width:1.5;stroke-miterlimit:10;}
	.st9{fill:#F2BE48;}
	.st10{clip-path:url(#SVGID_2_);}
	.st11{fill:#B4F263;}
	.st12{fill:#F27548;}
	.st13{fill:#BCBEC0;stroke:#000000;stroke-width:1.5;stroke-miterlimit:10;}
	.st14{clip-path:url(#SVGID_4_);}
	.st15{font-family:'Charcoal';}
	.st16{font-size:26.9422px;}
	.st17{font-size:15.2196px;}
	.st18{fill:#F27548;stroke:#000000;stroke-width:1.5;stroke-miterlimit:10;}
	.st19{font-size:12.8981px;}
	.st20{font-size:13.1704px;}
	.st21{fill:none;}
	.st22{font-size:12px;}
	.st23{letter-spacing:1;}
	.st24{fill:#B4F263;stroke:#000000;stroke-width:1.5;stroke-miterlimit:10;}
	.st25{font-size:17.3162px;}
</style>
<g transform="translate(-92.192 -56.002)">
			
				<rect transform="rotate(90 102.35 63.046)" x="101.57" y="62.26" width="1.56" height="1.56"/>
			
				<rect transform="rotate(90 100.79 64.609)" x="100.01" y="63.83" width="1.56" height="1.56"/>
			
				<rect transform="rotate(90 100.79 66.172)" x="100.01" y="65.39" width="1.56" height="1.56"/>
			
				<rect transform="rotate(90 100.79 67.736)" x="100.01" y="66.95" width="1.56" height="1.56"/>
			<rect transform="rotate(90 97.663 66.172)" x="96.88" y="65.39" width="1.56" height="1.56"/>
			<rect transform="rotate(90 97.663 67.736)" x="96.88" y="66.95" width="1.56" height="1.56"/>
			<rect transform="rotate(90 99.226 69.299)" x="98.44" y="68.52" width="1.56" height="1.56"/>
			
				<rect transform="rotate(90 100.79 69.299)" x="100.01" y="68.52" width="1.56" height="1.56"/>
			<rect transform="rotate(90 100.79 70.877)" x="100.01" y="70.1" width="1.56" height="1.56"/>
			<rect transform="rotate(90 96.099 63.045)" x="95.32" y="62.26" width="1.56" height="1.56"/>
			<rect transform="rotate(90 102.35 61.48)" x="101.57" y="60.7" width="1.56" height="1.56"/>
			<rect transform="rotate(90 103.92 61.481)" x="103.13" y="60.7" width="1.56" height="1.56"/>
			<rect transform="rotate(90 103.92 59.916)" x="103.13" y="59.13" width="1.56" height="1.56"/>
			<rect transform="rotate(90 105.48 59.917)" x="104.7" y="59.13" width="1.56" height="1.56"/>
			<rect transform="rotate(90 105.48 58.351)" x="104.7" y="57.57" width="1.56" height="1.56"/>
			<rect transform="rotate(90 96.099 61.48)" x="95.32" y="60.7" width="1.56" height="1.56"/>
			<rect transform="rotate(90 94.536 61.48)" x="93.75" y="60.7" width="1.56" height="1.56"/>
			<rect transform="rotate(90 94.536 59.915)" x="93.75" y="59.13" width="1.56" height="1.56"/>
			
				<rect transform="rotate(90 99.226 56.788)" x="98.44" y="51.32" width="1.56" height="10.94"/>
			<rect transform="rotate(90 92.972 59.915)" x="92.19" y="59.13" width="1.56" height="1.56"/>
			<rect transform="rotate(90 92.972 58.349)" x="92.19" y="57.57" width="1.56" height="1.56"/>
			<rect transform="rotate(90 97.663 64.609)" x="96.88" y="63.83" width="1.56" height="1.56"/>
		</g>
</svg>
