<?xml version="1.0" encoding="UTF-8"?>
<svg width="40.764" height="44.37" version="1.1" viewBox="0 0 40.764 44.37" xml:space="preserve" xmlns="http://www.w3.org/2000/svg" xmlns:cc="http://creativecommons.org/ns#" xmlns:dc="http://purl.org/dc/elements/1.1/" xmlns:rdf="http://www.w3.org/1999/02/22-rdf-syntax-ns#"><metadata><rdf:RDF><cc:Work rdf:about=""><dc:format>image/svg+xml</dc:format><dc:type rdf:resource="http://purl.org/dc/dcmitype/StillImage"/><dc:title/></cc:Work></rdf:RDF></metadata>
<style type="text/css">
	.st0{fill:#F1F2F2;stroke:#000000;stroke-width:1.5;stroke-miterlimit:10;}
	.st1{fill:#F2BE48;stroke:#000000;stroke-width:1.5;stroke-miterlimit:10;}
	.st2{fill:#7CCFA1;stroke:#000000;stroke-width:1.5;stroke-miterlimit:10;}
	.st3{fill:#E6E7E8;stroke:#000000;stroke-width:1.5;stroke-miterlimit:10;}
	.st4{fill:none;stroke:#000000;stroke-width:1.5;stroke-miterlimit:10;}
	.st5{font-family:'Charcoal';}
	.st6{font-size:17.3162px;}
	.st7{fill:#D1D3D4;stroke:#000000;stroke-width:1.5;stroke-miterlimit:10;}
	.st8{font-size:12.8981px;}
	.st9{fill:#F1F2F2;}
	.st10{fill:#FFFFFF;stroke:#000000;stroke-width:1.5;stroke-miterlimit:10;}
	.st11{fill-rule:evenodd;clip-rule:evenodd;fill:#BCBEC0;stroke:#000000;stroke-width:1.5;stroke-miterlimit:10;}
	.st12{fill:#F2BE48;}
	.st13{clip-path:url(#SVGID_2_);}
	.st14{fill:#B4F263;}
	.st15{fill:#F27548;}
	.st16{fill:#BCBEC0;stroke:#000000;stroke-width:1.5;stroke-miterlimit:10;}
	.st17{clip-path:url(#SVGID_4_);}
	.st18{fill:#F27548;stroke:#000000;stroke-width:1.5;stroke-miterlimit:10;}
	.st19{fill:#B4F263;stroke:#000000;stroke-width:1.5;stroke-miterlimit:10;}
</style>
<g transform="translate(-202.12 -68.45)">
			<rect class="st9" x="203.83" y="70.16" width="24.93" height="32.62"/>
			<rect transform="rotate(-90 229.62 86.472)" x="213.3" y="85.62" width="32.62" height="1.71"/>
			<rect transform="rotate(-90 202.98 86.472)" x="186.66" y="85.62" width="32.62" height="1.71"/>
			<rect x="203.83" y="68.45" width="24.93" height="1.71"/>
			<rect x="203.83" y="102.78" width="24.93" height="1.71"/>
			<rect class="st9" x="207.91" y="73.65" width="24.93" height="32.62"/>
			<rect transform="rotate(-90 233.7 89.967)" x="217.39" y="89.11" width="32.62" height="1.71"/>
			<rect transform="rotate(-90 207.06 89.967)" x="190.75" y="89.11" width="32.62" height="1.71"/>
			<rect x="207.91" y="71.95" width="24.93" height="1.71"/>
			<rect x="207.91" y="106.28" width="24.93" height="1.71"/>
			<rect x="219.61" y="78.43" width="10.28" height="1.71"/>
			
				<rect x="211.95" y="77.6" width="3.84" height="1.71"/>
				<rect x="211.95" y="83.06" width="3.84" height="1.71"/>
				
					<rect transform="rotate(90 216.64 81.184)" x="214.77" y="80.33" width="3.75" height="1.71"/>
				
					<rect transform="rotate(90 211.1 81.184)" x="209.23" y="80.33" width="3.75" height="1.71"/>
			
			<rect x="219.61" y="82.23" width="10.28" height="1.71"/>
			<rect x="219.61" y="90.02" width="10.28" height="1.71"/>
			
				<rect x="211.95" y="89.19" width="3.84" height="1.71"/>
				<rect x="211.95" y="94.65" width="3.84" height="1.71"/>
				
					<rect transform="rotate(90 216.64 92.772)" x="214.77" y="91.92" width="3.75" height="1.71"/>
				
					<rect transform="rotate(90 211.1 92.772)" x="209.23" y="91.92" width="3.75" height="1.71"/>
			
			<rect x="219.61" y="93.82" width="10.28" height="1.71"/>
		
			<polygon class="st9" points="241.52 108.67 242.19 101.09 241.52 100.34 238.73 97.55 234.24 96.86 230.4 97.55 227.62 100.34 226.92 107.31 227.62 108.67 230.4 111.46 234.14 112.17 238.73 111.46"/>
			<rect x="230.38" y="96.16" width="8.35" height="1.39"/>
			<rect x="230.38" y="111.43" width="8.35" height="1.39"/>
			
				<rect transform="rotate(90 242.19 104.49)" x="238.01" y="103.79" width="8.35" height="1.39"/>
			<rect transform="matrix(-.7071 .7071 -.7071 -.7071 477.16 8.4006)" x="233.59" y="102.33" width="6.51" height="1.39"/>
			<rect transform="matrix(.7071 .7071 -.7071 .7071 142.07 -134.87)" x="231.85" y="103.36" width="3.99" height="1.39"/>
			
				<rect transform="rotate(90 226.92 104.49)" x="222.74" y="103.79" width="8.35" height="1.39"/>
			<rect x="238.73" y="97.55" width="1.39" height="1.39"/>
			<rect x="240.12" y="98.95" width="1.39" height="1.39"/>
			<rect transform="rotate(-90 228.31 99.644)" x="227.62" y="98.95" width="1.39" height="1.39"/>
			<rect transform="rotate(-90 229.71 98.25)" x="229.01" y="97.55" width="1.39" height="1.39"/>
			
				<rect transform="rotate(180 229.71 110.76)" x="229.01" y="110.06" width="1.39" height="1.39"/>
			
				<rect transform="rotate(180 228.31 109.36)" x="227.62" y="108.67" width="1.39" height="1.39"/>
			
				<rect transform="rotate(90 240.82 109.36)" x="240.12" y="108.67" width="1.39" height="1.39"/>
			
				<rect transform="rotate(90 239.43 110.76)" x="238.73" y="110.06" width="1.39" height="1.39"/>
		</g>
</svg>
