<?xml version="1.0" encoding="UTF-8"?>
<svg width="15.506" height="12.324" version="1.1" viewBox="0 0 15.506 12.324" xml:space="preserve" xmlns="http://www.w3.org/2000/svg" xmlns:cc="http://creativecommons.org/ns#" xmlns:dc="http://purl.org/dc/elements/1.1/" xmlns:rdf="http://www.w3.org/1999/02/22-rdf-syntax-ns#"><metadata><rdf:RDF><cc:Work rdf:about=""><dc:format>image/svg+xml</dc:format><dc:type rdf:resource="http://purl.org/dc/dcmitype/StillImage"/><dc:title/></cc:Work></rdf:RDF></metadata>
<style type="text/css">
	.st0{fill:#F1F2F2;stroke:#000000;stroke-width:1.5;stroke-miterlimit:10;}
	.st1{fill:#F2BE48;stroke:#000000;stroke-width:1.5;stroke-miterlimit:10;}
	.st2{fill:#7CCFA1;stroke:#000000;stroke-width:1.5;stroke-miterlimit:10;}
	.st3{fill:#E6E7E8;stroke:#000000;stroke-width:1.5;stroke-miterlimit:10;}
	.st4{fill:none;stroke:#000000;stroke-width:1.5;stroke-miterlimit:10;}
	.st5{fill:#D1D3D4;stroke:#000000;stroke-width:1.5;stroke-miterlimit:10;}
	.st6{fill:#F1F2F2;}
	.st7{fill:#FFFFFF;stroke:#000000;stroke-width:1.5;stroke-miterlimit:10;}
	.st8{fill-rule:evenodd;clip-rule:evenodd;fill:#BCBEC0;stroke:#000000;stroke-width:1.5;stroke-miterlimit:10;}
	.st9{fill:#F2BE48;}
	.st10{clip-path:url(#SVGID_2_);}
	.st11{fill:#B4F263;}
	.st12{fill:#F27548;}
	.st13{fill:#BCBEC0;stroke:#000000;stroke-width:1.5;stroke-miterlimit:10;}
	.st14{clip-path:url(#SVGID_4_);}
	.st15{font-family:'Charcoal';}
	.st16{font-size:26.9422px;}
	.st17{font-size:15.2196px;}
	.st18{fill:#F27548;stroke:#000000;stroke-width:1.5;stroke-miterlimit:10;}
	.st19{font-size:12.8981px;}
	.st20{font-size:13.1704px;}
	.st21{fill:none;}
	.st22{font-size:12px;}
	.st23{letter-spacing:1;}
	.st24{fill:#B4F263;stroke:#000000;stroke-width:1.5;stroke-miterlimit:10;}
	.st25{font-size:17.3162px;}
</style>
<g transform="translate(-328.42 -58.598)">
			
				
					<rect transform="rotate(90 329.19 62.505)" x="328.41" y="61.72" width="1.56" height="1.56"/>
				
					<rect transform="rotate(90 330.76 60.941)" x="329.97" y="60.16" width="1.56" height="1.56"/>
				
					<rect transform="rotate(180 333.88 60.942)" x="333.1" y="60.16" width="1.56" height="1.56"/>
				
					<rect transform="rotate(180 335.45 62.506)" x="334.67" y="61.72" width="1.56" height="1.56"/>
				
					<rect transform="rotate(90 332.32 59.378)" x="331.54" y="58.6" width="1.56" height="1.56"/>
				<rect x="331.54" y="60.16" width="1.56" height="9.76"/>
			
			
				<rect transform="rotate(-90 343.15 67.014)" x="342.37" y="66.23" width="1.56" height="1.56"/>
				<rect transform="rotate(-90 341.58 68.578)" x="340.8" y="67.8" width="1.56" height="1.56"/>
				<rect x="337.68" y="67.79" width="1.56" height="1.56"/>
				<rect x="336.11" y="66.23" width="1.56" height="1.56"/>
				<rect transform="rotate(-90 340.02 70.141)" x="339.24" y="69.36" width="1.56" height="1.56"/>
				
					<rect transform="rotate(180 340.02 64.48)" x="339.24" y="59.6" width="1.56" height="9.76"/>
			
		</g>
</svg>
