<?xml version="1.0" encoding="UTF-8"?>
<svg width="48.745" height="36.89" version="1.1" viewBox="0 0 48.745 36.89" xml:space="preserve" xmlns="http://www.w3.org/2000/svg" xmlns:cc="http://creativecommons.org/ns#" xmlns:dc="http://purl.org/dc/elements/1.1/" xmlns:rdf="http://www.w3.org/1999/02/22-rdf-syntax-ns#"><metadata><rdf:RDF><cc:Work rdf:about=""><dc:format>image/svg+xml</dc:format><dc:type rdf:resource="http://purl.org/dc/dcmitype/StillImage"/><dc:title/></cc:Work></rdf:RDF></metadata>
<style type="text/css">
	.st0{fill:#F1F2F2;stroke:#000000;stroke-width:1.5;stroke-miterlimit:10;}
	.st1{fill:#F2BE48;stroke:#000000;stroke-width:1.5;stroke-miterlimit:10;}
	.st2{fill:#7CCFA1;stroke:#000000;stroke-width:1.5;stroke-miterlimit:10;}
	.st3{fill:#E6E7E8;stroke:#000000;stroke-width:1.5;stroke-miterlimit:10;}
	.st4{fill:none;stroke:#000000;stroke-width:1.5;stroke-miterlimit:10;}
	.st5{font-family:'Charcoal';}
	.st6{font-size:17.3162px;}
	.st7{fill:#D1D3D4;stroke:#000000;stroke-width:1.5;stroke-miterlimit:10;}
	.st8{font-size:12.8981px;}
	.st9{fill:#F1F2F2;}
	.st10{fill:#FFFFFF;stroke:#000000;stroke-width:1.5;stroke-miterlimit:10;}
	.st11{fill-rule:evenodd;clip-rule:evenodd;fill:#BCBEC0;stroke:#000000;stroke-width:1.5;stroke-miterlimit:10;}
	.st12{fill:#F2BE48;}
	.st13{clip-path:url(#SVGID_2_);}
	.st14{fill:#B4F263;}
	.st15{fill:#F27548;}
	.st16{fill:#BCBEC0;stroke:#000000;stroke-width:1.5;stroke-miterlimit:10;}
	.st17{clip-path:url(#SVGID_4_);}
	.st18{fill:#F27548;stroke:#000000;stroke-width:1.5;stroke-miterlimit:10;}
	.st19{fill:#B4F263;stroke:#000000;stroke-width:1.5;stroke-miterlimit:10;}
</style>
<g transform="translate(-25.747 -74.12)">
			<rect class="st9" x="37.66" y="75.83" width="24.93" height="27.47"/>
			<rect transform="rotate(-90 63.442 89.562)" x="49.71" y="88.71" width="27.47" height="1.71"/>
			<rect transform="rotate(-90 36.802 89.562)" x="23.07" y="88.71" width="27.47" height="1.71"/>
			
				<rect transform="rotate(-90 26.605 103.3)" x="20.6" y="102.44" width="12.01" height="1.71"/>
				
					
						<rect transform="rotate(-90 73.64 103.3)" x="67.63" y="102.44" width="12.01" height="1.71"/>
				
			
			<rect x="37.66" y="74.12" width="24.93" height="1.71"/>
			<rect x="27.46" y="95.59" width="10.2" height="1.71"/>
			<rect x="64.29" y="95.59" width="8.5" height="1.71"/>
			<rect x="32.32" y="102.44" width="35.6" height="1.71"/>
			<rect x="27.46" y="109.3" width="45.33" height="1.71"/>
			<rect x="49.35" y="80.6" width="10.28" height="1.71"/>
			
				<rect x="41.69" y="79.78" width="3.84" height="1.71"/>
				<rect x="41.69" y="85.23" width="3.84" height="1.71"/>
				<rect transform="rotate(90 46.386 83.356)" x="44.51" y="82.5" width="3.75" height="1.71"/>
				<rect transform="rotate(90 40.842 83.356)" x="38.97" y="82.5" width="3.75" height="1.71"/>
			
			<rect x="49.35" y="84.41" width="10.28" height="1.71"/>
			<rect x="49.35" y="92.19" width="10.28" height="1.71"/>
			
				<rect x="41.69" y="91.36" width="3.84" height="1.71"/>
				<rect x="41.69" y="96.82" width="3.84" height="1.71"/>
				<rect transform="rotate(90 46.386 94.944)" x="44.51" y="94.09" width="3.75" height="1.71"/>
				<rect transform="rotate(90 40.842 94.944)" x="38.97" y="94.09" width="3.75" height="1.71"/>
			
			<rect x="49.35" y="95.99" width="10.28" height="1.71"/>
			
				<polygon class="st9" points="65.39 87.69 64.29 80.39 62.6 80.39 62.6 88.61 57.94 88.61 59.22 90.52 62.6 93.9 64.29 93.9 67.66 90.52 67.66 88.83"/>
				
					<rect x="57.53" y="88.83" width="1.69" height="1.69"/>
					<rect x="57.53" y="87.14" width="1.69" height="1.69"/>
					<rect x="59.22" y="90.52" width="1.69" height="1.69"/>
					<rect x="60.91" y="92.21" width="1.69" height="1.69"/>
					<rect x="62.6" y="93.9" width="1.69" height="1.69"/>
					
						<rect transform="rotate(180 68.509 89.674)" x="67.66" y="88.83" width="1.69" height="1.69"/>
					
						<rect transform="rotate(180 68.509 87.985)" x="67.66" y="87.14" width="1.69" height="1.69"/>
					
						<rect transform="rotate(180 66.82 91.363)" x="65.98" y="90.52" width="1.69" height="1.69"/>
					
						<rect transform="rotate(180 65.131 93.052)" x="64.29" y="92.21" width="1.69" height="1.69"/>
					<rect x="59.22" y="87.14" width="1.69" height="1.69"/>
					<rect x="60.91" y="87.14" width="1.69" height="1.69"/>
					<rect x="62.6" y="78.7" width="1.69" height="1.69"/>
					
						<rect transform="rotate(180 66.82 87.985)" x="65.98" y="87.14" width="1.69" height="1.69"/>
					
						<rect transform="rotate(180 65.131 87.985)" x="64.29" y="87.14" width="1.69" height="1.69"/>
					<rect x="60.91" y="85.45" width="1.69" height="1.69"/>
					
						<rect transform="rotate(180 65.131 86.296)" x="64.29" y="85.45" width="1.69" height="1.69"/>
					<rect x="60.91" y="83.76" width="1.69" height="1.69"/>
					
						<rect transform="rotate(180 65.131 84.607)" x="64.29" y="83.76" width="1.69" height="1.69"/>
					<rect x="60.91" y="82.07" width="1.69" height="1.69"/>
					
						<rect transform="rotate(180 65.131 82.919)" x="64.29" y="82.07" width="1.69" height="1.69"/>
					<rect x="60.91" y="80.39" width="1.69" height="1.69"/>
					
						<rect transform="rotate(180 65.131 81.23)" x="64.29" y="80.39" width="1.69" height="1.69"/>
					<rect x="60.91" y="78.7" width="1.69" height="1.69"/>
					
						<rect transform="rotate(180 65.131 79.541)" x="64.29" y="78.7" width="1.69" height="1.69"/>
				
			
		</g>
</svg>
