<?xml version="1.0" encoding="UTF-8" standalone="no"?>
<svg
   xmlns:dc="http://purl.org/dc/elements/1.1/"
   xmlns:cc="http://creativecommons.org/ns#"
   xmlns:rdf="http://www.w3.org/1999/02/22-rdf-syntax-ns#"
   xmlns:svg="http://www.w3.org/2000/svg"
   xmlns="http://www.w3.org/2000/svg"
   version="1.1"
   id="Layer_1"
   x="0px"
   y="0px"
   viewBox="0 0 44.816301 46.4"
   xml:space="preserve"
   width="44.816299"
   height="46.400002"><metadata
   id="metadata555"><rdf:RDF><cc:Work
       rdf:about=""><dc:format>image/svg+xml</dc:format><dc:type
         rdf:resource="http://purl.org/dc/dcmitype/StillImage" /><dc:title></dc:title></cc:Work></rdf:RDF></metadata><defs
   id="defs553">
	
	
	
	
	
	
	
	
	
	
	
	
	
	
	
	
	
	
	
	
	
	
	
	

		
		
		
		
		
		
		
		
		
		
		
		
		
		
		
	</defs>
<style
   type="text/css"
   id="style2">
	.st0{fill:#F1F2F2;stroke:#000000;stroke-width:1.5;stroke-miterlimit:10;}
	.st1{fill:#F2BE48;stroke:#000000;stroke-width:1.5;stroke-miterlimit:10;}
	.st2{fill:#7CCFA1;stroke:#000000;stroke-width:1.5;stroke-miterlimit:10;}
	.st3{fill:#E6E7E8;stroke:#000000;stroke-width:1.5;stroke-miterlimit:10;}
	.st4{fill:none;stroke:#000000;stroke-width:1.5;stroke-miterlimit:10;}
	.st5{font-family:'Charcoal';}
	.st6{font-size:17.3162px;}
	.st7{fill:#D1D3D4;stroke:#000000;stroke-width:1.5;stroke-miterlimit:10;}
	.st8{fill:#F1F2F2;}
	.st9{font-size:12.8981px;}
	.st10{fill:#FFFFFF;}
	.st11{fill:#FFFFFF;stroke:#000000;stroke-width:1.5;stroke-miterlimit:10;}
	.st12{clip-path:url(#SVGID_2_);fill:url(#SVGID_3_);}
	.st13{fill:#F29224;}
	.st14{fill:#BCBEC0;}
	.st15{fill:none;stroke:#FFFFFF;stroke-width:1.5;stroke-miterlimit:10;}
	.st16{clip-path:url(#SVGID_7_);fill:url(#SVGID_8_);}
	.st17{clip-path:url(#SVGID_12_);}
	.st18{clip-path:url(#SVGID_14_);fill:url(#SVGID_15_);}
	.st19{clip-path:url(#SVGID_19_);fill:url(#SVGID_20_);}
	.st20{fill:#F2BE48;}
	.st21{fill:#B4F263;}
	.st22{fill-rule:evenodd;clip-rule:evenodd;fill:#BCBEC0;stroke:#000000;stroke-width:1.5;stroke-miterlimit:10;}
	.st23{fill:#F27548;stroke:#000000;stroke-width:1.5;stroke-miterlimit:10;}
</style>
<g
   id="g1215"
   transform="translate(-191.4583,-7.4700009)"><g
     id="g136"
     transform="translate(-44.366198,-65.07)">
			<g
   id="g134">
				<rect
   x="254"
   y="74.239998"
   class="st8"
   width="24.93"
   height="31.700001"
   id="rect96" />
				<rect
   x="263.92999"
   y="89.239998"
   transform="rotate(-90,279.7843,90.0935)"
   width="31.700001"
   height="1.71"
   id="rect98" />
				<rect
   x="237.28999"
   y="89.239998"
   transform="rotate(-90,253.14445,90.09345)"
   width="31.700001"
   height="1.71"
   id="rect100" />
				<rect
   x="254"
   y="72.540001"
   width="24.93"
   height="1.71"
   id="rect102" />
				<rect
   x="254"
   y="105.94"
   width="24.93"
   height="1.71"
   id="rect104" />
				<rect
   x="265.69"
   y="80.629997"
   width="10.28"
   height="1.71"
   id="rect106" />
				<g
   id="g116">
					<rect
   x="258.04001"
   y="79.809998"
   width="3.8399999"
   height="1.71"
   id="rect108" />
					<rect
   x="258.04001"
   y="85.260002"
   width="3.8399999"
   height="1.71"
   id="rect110" />
					
						<rect
   x="260.85001"
   y="82.540001"
   transform="rotate(90,262.7285,83.3885)"
   width="3.75"
   height="1.71"
   id="rect112" />
					
						<rect
   x="255.31"
   y="82.540001"
   transform="rotate(90,257.1839,83.3885)"
   width="3.75"
   height="1.71"
   id="rect114" />
				</g>
				<rect
   x="265.69"
   y="84.440002"
   width="10.28"
   height="1.71"
   id="rect118" />
				<rect
   x="265.69"
   y="90.919998"
   width="10.28"
   height="1.71"
   id="rect120" />
				<g
   id="g130">
					<rect
   x="258.04001"
   y="90.089996"
   width="3.8399999"
   height="1.71"
   id="rect122" />
					<rect
   x="258.04001"
   y="95.550003"
   width="3.8399999"
   height="1.71"
   id="rect124" />
					
						<rect
   x="260.85001"
   y="92.82"
   transform="rotate(90,262.72855,93.67405)"
   width="3.75"
   height="1.71"
   id="rect126" />
					
						<rect
   x="255.31"
   y="92.82"
   transform="rotate(90,257.18385,93.67405)"
   width="3.75"
   height="1.71"
   id="rect128" />
				</g>
				<rect
   x="265.69"
   y="94.720001"
   width="10.28"
   height="1.71"
   id="rect132" />
			</g>
		</g><g
     id="g268"
     transform="translate(-44.366198,-65.07)">
			<g
   id="g266">
				<rect
   x="237.53"
   y="80.949997"
   class="st8"
   width="24.93"
   height="31.700001"
   id="rect228" />
				<rect
   x="247.46001"
   y="95.949997"
   transform="rotate(-90,263.31265,96.79825)"
   width="31.700001"
   height="1.71"
   id="rect230" />
				<rect
   x="220.82001"
   y="95.949997"
   transform="rotate(-90,236.6728,96.7983)"
   width="31.700001"
   height="1.71"
   id="rect232" />
				<rect
   x="237.53"
   y="79.239998"
   width="24.93"
   height="1.71"
   id="rect234" />
				<rect
   x="237.53"
   y="112.65"
   width="24.93"
   height="1.71"
   id="rect236" />
				<rect
   x="249.22"
   y="87.339996"
   width="10.28"
   height="1.71"
   id="rect238" />
				<g
   id="g248">
					<rect
   x="241.57001"
   y="86.510002"
   width="3.8399999"
   height="1.71"
   id="rect240" />
					<rect
   x="241.57001"
   y="91.970001"
   width="3.8399999"
   height="1.71"
   id="rect242" />
					
						<rect
   x="244.38"
   y="89.239998"
   transform="rotate(90,246.2569,90.0933)"
   width="3.75"
   height="1.71"
   id="rect244" />
					
						<rect
   x="238.84"
   y="89.239998"
   transform="rotate(90,240.7122,90.0933)"
   width="3.75"
   height="1.71"
   id="rect246" />
				</g>
				<rect
   x="249.22"
   y="91.139999"
   width="10.28"
   height="1.71"
   id="rect250" />
				<rect
   x="249.22"
   y="97.620003"
   width="10.28"
   height="1.71"
   id="rect252" />
				<g
   id="g262">
					<rect
   x="241.57001"
   y="96.800003"
   width="3.8399999"
   height="1.71"
   id="rect254" />
					<rect
   x="241.57001"
   y="102.25"
   width="3.8399999"
   height="1.71"
   id="rect256" />
					
						<rect
   x="244.38"
   y="99.529999"
   transform="rotate(90,246.25685,100.37885)"
   width="3.75"
   height="1.71"
   id="rect258" />
					
						<rect
   x="238.84"
   y="99.529999"
   transform="rotate(90,240.71225,100.37885)"
   width="3.75"
   height="1.71"
   id="rect260" />
				</g>
				<rect
   x="249.22"
   y="101.43"
   width="10.28"
   height="1.71"
   id="rect264" />
			</g>
		</g><g
     id="g368"
     transform="translate(-44.366198,-65.07)">
			<polygon
   class="st8"
   points="271.8,107.21 271.13,106.46 268.34,103.68 263.86,102.98 260.02,103.68 257.23,106.46 256.53,113.43 257.23,114.79 260.02,117.58 263.76,118.3 268.34,117.58 271.13,114.79 "
   id="polygon338" />
			<rect
   x="259.98999"
   y="102.28"
   width="8.3500004"
   height="1.39"
   id="rect340" />
			<rect
   x="259.98999"
   y="117.55"
   width="8.3500004"
   height="1.39"
   id="rect342" />
			
				<rect
   x="267.62"
   y="109.92"
   transform="rotate(90,271.8007,110.6136)"
   width="8.3500004"
   height="1.39"
   id="rect344" />
			<rect
   x="263.20001"
   y="108.45"
   transform="matrix(-0.7071,0.7071,-0.7071,-0.7071,532.0386,-2.0853)"
   width="6.5100002"
   height="1.39"
   id="rect346" />
			<rect
   x="261.45999"
   y="109.49"
   transform="matrix(0.7071,0.7071,-0.7071,0.7071,155.0774,-154.0197)"
   width="3.99"
   height="1.39"
   id="rect348" />
			
				<rect
   x="252.35001"
   y="109.92"
   transform="rotate(90,256.53095,110.61365)"
   width="8.3500004"
   height="1.39"
   id="rect350" />
			<rect
   x="268.34"
   y="103.68"
   width="1.39"
   height="1.39"
   id="rect352" />
			<rect
   x="269.73999"
   y="105.07"
   width="1.39"
   height="1.39"
   id="rect354" />
			<rect
   x="257.23001"
   y="105.07"
   transform="rotate(-90,257.9252,105.7673)"
   width="1.39"
   height="1.39"
   id="rect356" />
			<rect
   x="258.62"
   y="103.68"
   transform="rotate(-90,259.31945,104.37305)"
   width="1.39"
   height="1.39"
   id="rect358" />
			
				<rect
   x="258.62"
   y="116.18"
   transform="rotate(180,259.31945,116.88175)"
   width="1.39"
   height="1.39"
   id="rect360" />
			
				<rect
   x="257.23001"
   y="114.79"
   transform="rotate(180,257.9252,115.4875)"
   width="1.39"
   height="1.39"
   id="rect362" />
			
				<rect
   x="269.73999"
   y="114.79"
   transform="rotate(90,270.4339,115.4875)"
   width="1.39"
   height="1.39"
   id="rect364" />
			
				<rect
   x="268.34"
   y="116.18"
   transform="rotate(90,269.03965,116.88175)"
   width="1.39"
   height="1.39"
   id="rect366" />
		</g></g>
</svg>
