<?xml version="1.0" encoding="UTF-8" standalone="no"?>
<svg
   xmlns:dc="http://purl.org/dc/elements/1.1/"
   xmlns:cc="http://creativecommons.org/ns#"
   xmlns:rdf="http://www.w3.org/1999/02/22-rdf-syntax-ns#"
   xmlns:svg="http://www.w3.org/2000/svg"
   xmlns="http://www.w3.org/2000/svg"
   version="1.1"
   id="Layer_1"
   x="0px"
   y="0px"
   viewBox="0 0 52.818197 42.8585"
   xml:space="preserve"
   width="52.818195"
   height="42.858501"><metadata
   id="metadata555"><rdf:RDF><cc:Work
       rdf:about=""><dc:format>image/svg+xml</dc:format><dc:type
         rdf:resource="http://purl.org/dc/dcmitype/StillImage" /><dc:title></dc:title></cc:Work></rdf:RDF></metadata><defs
   id="defs553">
	
	
	
	
	
	
	
	
	
	
	
	
	
	
	
	
	
	
	
	
	
	
	
	

		
		
		
		
		
		
		
		
		
		
		
		
		
		
		
	</defs>
<style
   type="text/css"
   id="style2">
	.st0{fill:#F1F2F2;stroke:#000000;stroke-width:1.5;stroke-miterlimit:10;}
	.st1{fill:#F2BE48;stroke:#000000;stroke-width:1.5;stroke-miterlimit:10;}
	.st2{fill:#7CCFA1;stroke:#000000;stroke-width:1.5;stroke-miterlimit:10;}
	.st3{fill:#E6E7E8;stroke:#000000;stroke-width:1.5;stroke-miterlimit:10;}
	.st4{fill:none;stroke:#000000;stroke-width:1.5;stroke-miterlimit:10;}
	.st5{font-family:'Charcoal';}
	.st6{font-size:17.3162px;}
	.st7{fill:#D1D3D4;stroke:#000000;stroke-width:1.5;stroke-miterlimit:10;}
	.st8{fill:#F1F2F2;}
	.st9{font-size:12.8981px;}
	.st10{fill:#FFFFFF;}
	.st11{fill:#FFFFFF;stroke:#000000;stroke-width:1.5;stroke-miterlimit:10;}
	.st12{clip-path:url(#SVGID_2_);fill:url(#SVGID_3_);}
	.st13{fill:#F29224;}
	.st14{fill:#BCBEC0;}
	.st15{fill:none;stroke:#FFFFFF;stroke-width:1.5;stroke-miterlimit:10;}
	.st16{clip-path:url(#SVGID_7_);fill:url(#SVGID_8_);}
	.st17{clip-path:url(#SVGID_12_);}
	.st18{clip-path:url(#SVGID_14_);fill:url(#SVGID_15_);}
	.st19{clip-path:url(#SVGID_19_);fill:url(#SVGID_20_);}
	.st20{fill:#F2BE48;}
	.st21{fill:#B4F263;}
	.st22{fill-rule:evenodd;clip-rule:evenodd;fill:#BCBEC0;stroke:#000000;stroke-width:1.5;stroke-miterlimit:10;}
	.st23{fill:#F27548;stroke:#000000;stroke-width:1.5;stroke-miterlimit:10;}
</style>
<g
   id="g1300"
   transform="translate(1.1743949,-149.15)"><g
     id="g448"
     transform="translate(-44.366198,-65.07)">
			<g
   id="g380">
				<g
   id="g376">
					
						<rect
   x="29.6"
   y="241.05"
   transform="rotate(-90,43.9953,241.8535)"
   width="28.790001"
   height="1.61"
   id="rect370" />
					<rect
   x="36.700001"
   y="241.05"
   transform="rotate(-90,51.0925,241.8535)"
   width="28.790001"
   height="1.61"
   id="rect372" />
					<rect
   x="44.799999"
   y="225.85001"
   width="5.4899998"
   height="1.61"
   id="rect374" />
				</g>
				<rect
   x="44.799999"
   y="227.46001"
   class="st10"
   width="5.4899998"
   height="28.790001"
   id="rect378" />
			</g>
			<g
   id="g392">
				<g
   id="g388">
					
						<rect
   x="40.310001"
   y="238.71001"
   transform="rotate(-90,57.037,239.5175)"
   width="33.459999"
   height="1.61"
   id="rect382" />
					
						<rect
   x="47.400002"
   y="238.71001"
   transform="rotate(-90,64.1342,239.5175)"
   width="33.459999"
   height="1.61"
   id="rect384" />
					<rect
   x="57.84"
   y="221.17999"
   width="5.4899998"
   height="1.61"
   id="rect386" />
				</g>
				<rect
   x="57.84"
   y="222.78999"
   class="st10"
   width="5.4899998"
   height="33.459999"
   id="rect390" />
			</g>
			<g
   id="g404">
				<g
   id="g400">
					
						<rect
   x="58.75"
   y="236.38"
   transform="rotate(-90,70.0786,237.1819)"
   width="22.66"
   height="1.61"
   id="rect394" />
					
						<rect
   x="65.839996"
   y="236.38"
   transform="rotate(-90,77.17585,237.18185)"
   width="22.66"
   height="1.61"
   id="rect396" />
					<rect
   x="70.879997"
   y="224.24001"
   width="5.4899998"
   height="1.61"
   id="rect398" />
				</g>
				<rect
   x="70.879997"
   y="225.85001"
   class="st10"
   width="5.4899998"
   height="22.66"
   id="rect402" />
			</g>
			<rect
   x="60.860001"
   y="214.22"
   width="1.78"
   height="1.61"
   id="rect406" />
			<rect
   x="62.639999"
   y="214.22"
   width="1.78"
   height="1.61"
   id="rect408" />
			<rect
   x="64.43"
   y="215.83"
   width="1.78"
   height="1.61"
   id="rect410" />
			<rect
   x="66.209999"
   y="215.83"
   width="1.78"
   height="1.61"
   id="rect412" />
			<rect
   x="68"
   y="215.83"
   width="1.78"
   height="1.61"
   id="rect414" />
			
				<rect
   x="59.080002"
   y="214.22"
   transform="rotate(180,59.96865,215.02845)"
   width="1.78"
   height="1.61"
   id="rect416" />
			<rect
   x="57.290001"
   y="214.22"
   transform="rotate(180,58.184,215.02845)"
   width="1.78"
   height="1.61"
   id="rect418" />
			<rect
   x="55.509998"
   y="215.83"
   transform="rotate(180,56.39935,216.6355)"
   width="1.78"
   height="1.61"
   id="rect420" />
			<rect
   x="53.720001"
   y="215.83"
   transform="rotate(180,54.6147,216.6355)"
   width="1.78"
   height="1.61"
   id="rect422" />
			<rect
   x="51.939999"
   y="217.44"
   transform="rotate(180,52.83,218.2425)"
   width="1.78"
   height="1.61"
   id="rect424" />
			
				<rect
   x="50.150002"
   y="219.05"
   transform="rotate(180,51.0453,219.84945)"
   width="1.78"
   height="1.61"
   id="rect426" />
			<rect
   x="48.369999"
   y="219.05"
   transform="rotate(180,49.26065,219.84945)"
   width="1.78"
   height="1.61"
   id="rect428" />
			<rect
   x="46.580002"
   y="219.05"
   transform="rotate(180,47.476,219.84945)"
   width="1.78"
   height="1.61"
   id="rect430" />
			<rect
   x="44.799999"
   y="219.05"
   transform="rotate(180,45.6913,219.84945)"
   width="1.78"
   height="1.61"
   id="rect432" />
			<rect
   x="75.139999"
   y="217.44"
   transform="rotate(180,76.0299,218.2425)"
   width="1.78"
   height="1.61"
   id="rect434" />
			<rect
   x="73.349998"
   y="217.44"
   transform="rotate(180,74.2452,218.2425)"
   width="1.78"
   height="1.61"
   id="rect436" />
			<rect
   x="71.57"
   y="217.44"
   transform="rotate(180,72.46055,218.2425)"
   width="1.78"
   height="1.61"
   id="rect438" />
			<rect
   x="69.779999"
   y="217.44"
   transform="rotate(180,70.67585,218.2425)"
   width="1.78"
   height="1.61"
   id="rect440" />
			<rect
   x="44.799999"
   y="254.64"
   width="5.4899998"
   height="1.61"
   id="rect442" />
			<rect
   x="57.84"
   y="254.64"
   width="5.4899998"
   height="1.61"
   id="rect444" />
			<rect
   x="70.879997"
   y="246.91"
   width="5.4899998"
   height="1.61"
   id="rect446" />
		</g><g
     id="g534"
     transform="translate(-44.366198,-65.07)">
			<polygon
   class="st10"
   points="87.09,252.21 88.71,248.97 88.71,247.35 78.17,247.3 78.17,236.04 75.74,236.04 72.49,237.67 70.87,239.29 69.25,242.53 69.25,249.02 70.87,252.21 72.49,253.84 75.74,255.46 82.22,255.46 85.47,253.84 "
   id="polygon450" />
			<g
   id="g488">
				
					<rect
   x="69.25"
   y="239.28999"
   transform="rotate(-90,70.06015,240.09795)"
   width="1.62"
   height="1.62"
   id="rect452" />
				
					<rect
   x="69.25"
   y="240.91"
   transform="rotate(-90,70.0601,241.7196)"
   width="1.62"
   height="1.62"
   id="rect454" />
				
					<rect
   x="67.629997"
   y="242.53"
   transform="rotate(-90,68.43845,243.34125)"
   width="1.62"
   height="1.62"
   id="rect456" />
				
					<rect
   x="67.629997"
   y="244.14999"
   transform="rotate(-90,68.4385,244.9629)"
   width="1.62"
   height="1.62"
   id="rect458" />
				
					<rect
   x="70.870003"
   y="237.67"
   transform="rotate(-90,71.68185,238.47625)"
   width="1.62"
   height="1.62"
   id="rect460" />
				
					<rect
   x="74.110001"
   y="236.03999"
   transform="rotate(-90,74.9252,236.8545)"
   width="1.62"
   height="1.62"
   id="rect462" />
				
					<rect
   x="72.489998"
   y="236.03999"
   transform="rotate(-90,73.3036,236.8545)"
   width="1.62"
   height="1.62"
   id="rect464" />
				
					<rect
   x="77.360001"
   y="234.42"
   transform="rotate(-90,78.16865,235.23275)"
   width="1.62"
   height="1.62"
   id="rect466" />
				
					<rect
   x="75.739998"
   y="234.42"
   transform="rotate(-90,76.547,235.2328)"
   width="1.62"
   height="1.62"
   id="rect468" />
				
					<rect
   x="72.489998"
   y="253.84"
   transform="rotate(180,73.3035,254.64735)"
   width="1.62"
   height="1.62"
   id="rect470" />
				
					<rect
   x="70.870003"
   y="252.21001"
   transform="rotate(180,71.6818,253.0256)"
   width="1.62"
   height="1.62"
   id="rect472" />
				
					<rect
   x="74.110001"
   y="253.84"
   transform="rotate(180,74.9252,254.64735)"
   width="1.62"
   height="1.62"
   id="rect474" />
				
					<rect
   x="75.739998"
   y="255.46001"
   transform="rotate(180,76.54695,256.26905)"
   width="1.62"
   height="1.62"
   id="rect476" />
				
					<rect
   x="77.360001"
   y="255.46001"
   transform="rotate(180,78.1687,256.26905)"
   width="1.62"
   height="1.62"
   id="rect478" />
				
					<rect
   x="69.25"
   y="250.59"
   transform="rotate(180,70.06015,251.4039)"
   width="1.62"
   height="1.62"
   id="rect480" />
				
					<rect
   x="69.25"
   y="248.97"
   transform="rotate(180,70.06015,249.78225)"
   width="1.62"
   height="1.62"
   id="rect482" />
				
					<rect
   x="67.629997"
   y="247.39999"
   transform="rotate(180,68.43845,248.2062)"
   width="1.62"
   height="1.62"
   id="rect484" />
				
					<rect
   x="67.629997"
   y="245.77"
   transform="rotate(180,68.43845,246.58455)"
   width="1.62"
   height="1.62"
   id="rect486" />
			</g>
			<rect
   x="87.089996"
   y="250.59"
   transform="rotate(90,87.89905,251.40395)"
   width="1.62"
   height="1.62"
   id="rect490" />
			
				<rect
   x="87.089996"
   y="248.97"
   transform="rotate(90,87.89905,249.78225)"
   width="1.62"
   height="1.62"
   id="rect492" />
			
				<rect
   x="88.709999"
   y="247.35001"
   transform="rotate(90,89.5207,248.1606)"
   width="1.62"
   height="1.62"
   id="rect494" />
			
				<rect
   x="88.709999"
   y="245.73"
   transform="rotate(90,89.52075,246.53895)"
   width="1.62"
   height="1.62"
   id="rect496" />
			<rect
   x="85.470001"
   y="252.21001"
   transform="rotate(90,86.27735,253.02565)"
   width="1.62"
   height="1.62"
   id="rect498" />
			
				<rect
   x="82.220001"
   y="253.84"
   transform="rotate(90,83.03395,254.64735)"
   width="1.62"
   height="1.62"
   id="rect500" />
			
				<rect
   x="83.839996"
   y="253.84"
   transform="rotate(90,84.6556,254.6473)"
   width="1.62"
   height="1.62"
   id="rect502" />
			
				<rect
   x="78.980003"
   y="255.46001"
   transform="rotate(90,79.79055,256.26905)"
   width="1.62"
   height="1.62"
   id="rect504" />
			<rect
   x="80.599998"
   y="255.46001"
   transform="rotate(90,81.4122,256.2691)"
   width="1.62"
   height="1.62"
   id="rect506" />
			<rect
   x="89.519997"
   y="232.39"
   width="1.62"
   height="1.62"
   id="rect508" />
			<rect
   x="91.139999"
   y="234.02"
   width="1.62"
   height="1.62"
   id="rect510" />
			<rect
   x="87.900002"
   y="232.39"
   width="1.62"
   height="1.62"
   id="rect512" />
			<rect
   x="86.279999"
   y="230.77"
   width="1.62"
   height="1.62"
   id="rect514" />
			<rect
   x="84.660004"
   y="230.77"
   width="1.62"
   height="1.62"
   id="rect516" />
			<rect
   x="92.760002"
   y="235.64"
   width="1.62"
   height="1.62"
   id="rect518" />
			<rect
   x="92.760002"
   y="237.25999"
   width="1.62"
   height="1.62"
   id="rect520" />
			<rect
   x="94.389999"
   y="238.84"
   width="1.62"
   height="1.62"
   id="rect522" />
			<rect
   x="94.389999"
   y="240.46001"
   width="1.62"
   height="2.48"
   id="rect524" />
			<rect
   x="83.029999"
   y="230.77"
   width="1.62"
   height="12.16"
   id="rect526" />
			<rect
   x="78.169998"
   y="234.42"
   width="1.62"
   height="12.88"
   id="rect528" />
			
				<rect
   x="88.300003"
   y="236.03999"
   transform="rotate(90,89.1151,242.125)"
   width="1.62"
   height="12.16"
   id="rect530" />
			
				<rect
   x="83.440002"
   y="240.46001"
   transform="rotate(90,84.24995,246.53895)"
   width="1.62"
   height="12.16"
   id="rect532" />
		</g></g>
</svg>
