<?xml version="1.0" encoding="UTF-8" standalone="no"?>
<svg
   xmlns:dc="http://purl.org/dc/elements/1.1/"
   xmlns:cc="http://creativecommons.org/ns#"
   xmlns:rdf="http://www.w3.org/1999/02/22-rdf-syntax-ns#"
   xmlns:svg="http://www.w3.org/2000/svg"
   xmlns="http://www.w3.org/2000/svg"
   version="1.1"
   id="Layer_1"
   x="0px"
   y="0px"
   viewBox="0 0 40.6429 44.279997"
   xml:space="preserve"
   width="40.642899"
   height="44.279999"><metadata
   id="metadata555"><rdf:RDF><cc:Work
       rdf:about=""><dc:format>image/svg+xml</dc:format><dc:type
         rdf:resource="http://purl.org/dc/dcmitype/StillImage" /><dc:title></dc:title></cc:Work></rdf:RDF></metadata><defs
   id="defs553">
	
	
	
	
	
	
	
	
	
	
	
	
	
	
	
	
	
	
	
	
	
	
	
	

		
		
		
		
		
		
		
		
		
		
		
		
		
		
		
	</defs>
<style
   type="text/css"
   id="style2">
	.st0{fill:#F1F2F2;stroke:#000000;stroke-width:1.5;stroke-miterlimit:10;}
	.st1{fill:#F2BE48;stroke:#000000;stroke-width:1.5;stroke-miterlimit:10;}
	.st2{fill:#7CCFA1;stroke:#000000;stroke-width:1.5;stroke-miterlimit:10;}
	.st3{fill:#E6E7E8;stroke:#000000;stroke-width:1.5;stroke-miterlimit:10;}
	.st4{fill:none;stroke:#000000;stroke-width:1.5;stroke-miterlimit:10;}
	.st5{font-family:'Charcoal';}
	.st6{font-size:17.3162px;}
	.st7{fill:#D1D3D4;stroke:#000000;stroke-width:1.5;stroke-miterlimit:10;}
	.st8{fill:#F1F2F2;}
	.st9{font-size:12.8981px;}
	.st10{fill:#FFFFFF;}
	.st11{fill:#FFFFFF;stroke:#000000;stroke-width:1.5;stroke-miterlimit:10;}
	.st12{clip-path:url(#SVGID_2_);fill:url(#SVGID_3_);}
	.st13{fill:#F29224;}
	.st14{fill:#BCBEC0;}
	.st15{fill:none;stroke:#FFFFFF;stroke-width:1.5;stroke-miterlimit:10;}
	.st16{clip-path:url(#SVGID_7_);fill:url(#SVGID_8_);}
	.st17{clip-path:url(#SVGID_12_);}
	.st18{clip-path:url(#SVGID_14_);fill:url(#SVGID_15_);}
	.st19{clip-path:url(#SVGID_19_);fill:url(#SVGID_20_);}
	.st20{fill:#F2BE48;}
	.st21{fill:#B4F263;}
	.st22{fill-rule:evenodd;clip-rule:evenodd;fill:#BCBEC0;stroke:#000000;stroke-width:1.5;stroke-miterlimit:10;}
	.st23{fill:#F27548;stroke:#000000;stroke-width:1.5;stroke-miterlimit:10;}
</style>
<g
   id="g1155"
   transform="translate(-95.032,-6.0500027)"><g
     id="g290"
     transform="translate(-44.366198,-65.07)">
			<g
   id="g288">
				<rect
   x="153.39999"
   y="81.989998"
   class="st8"
   width="24.93"
   height="31.700001"
   id="rect270" />
				<rect
   x="163.34"
   y="96.989998"
   transform="rotate(-90,179.1857,97.8446)"
   width="31.700001"
   height="1.71"
   id="rect272" />
				<rect
   x="136.7"
   y="96.989998"
   transform="rotate(-90,152.5459,97.8446)"
   width="31.700001"
   height="1.71"
   id="rect274" />
				<rect
   x="153.39999"
   y="80.290001"
   width="24.93"
   height="1.71"
   id="rect276" />
				<rect
   x="153.39999"
   y="113.69"
   width="24.93"
   height="1.71"
   id="rect278" />
				<g
   id="g286">
					<rect
   x="156.55"
   y="91.360001"
   width="18.639999"
   height="1.71"
   id="rect280" />
					<rect
   x="156.55"
   y="98.980003"
   width="18.639999"
   height="1.71"
   id="rect282" />
					<rect
   x="156.55"
   y="106.59"
   width="18.639999"
   height="1.71"
   id="rect284" />
				</g>
			</g>
		</g><g
     id="g312"
     transform="translate(-44.366198,-65.07)">
			<g
   id="g310">
				<rect
   x="141.10001"
   y="75.349998"
   class="st8"
   width="24.93"
   height="31.700001"
   id="rect292" />
				<rect
   x="151.03999"
   y="90.349998"
   transform="rotate(-90,166.8891,91.2011)"
   width="31.700001"
   height="1.71"
   id="rect294" />
				<rect
   x="124.4"
   y="90.349998"
   transform="rotate(-90,140.2493,91.2011)"
   width="31.700001"
   height="1.71"
   id="rect296" />
				<rect
   x="141.10001"
   y="73.639999"
   width="24.93"
   height="1.71"
   id="rect298" />
				<rect
   x="141.10001"
   y="107.05"
   width="24.93"
   height="1.71"
   id="rect300" />
				<g
   id="g308">
					<rect
   x="144.25"
   y="84.720001"
   width="18.639999"
   height="1.71"
   id="rect302" />
					<rect
   x="144.25"
   y="92.330002"
   width="18.639999"
   height="1.71"
   id="rect304" />
					<rect
   x="144.25"
   y="99.940002"
   width="18.639999"
   height="1.71"
   id="rect306" />
				</g>
			</g>
		</g><g
     id="g336"
     transform="translate(-44.366198,-65.07)">
			<rect
   x="166"
   y="72.599998"
   class="st8"
   width="11.51"
   height="11.38"
   id="rect314" />
			<rect
   x="166"
   y="71.120003"
   width="11.51"
   height="1.49"
   id="rect316" />
			<rect
   x="166"
   y="83.980003"
   width="11.51"
   height="1.49"
   id="rect318" />
			
				<rect
   x="172.56"
   y="77.550003"
   transform="rotate(90,178.2505,78.2897)"
   width="11.38"
   height="1.49"
   id="rect320" />
			
				<rect
   x="159.57001"
   y="77.550003"
   transform="rotate(90,165.2586,78.2897)"
   width="11.38"
   height="1.49"
   id="rect322" />
			<g
   id="g334">
				<rect
   x="169.72"
   y="79.809998"
   transform="rotate(-90,170.3986,80.4899)"
   width="1.36"
   height="1.36"
   id="rect324" />
				<rect
   x="171.08"
   y="78.459999"
   transform="rotate(-90,171.75455,79.13395)"
   width="1.36"
   height="1.36"
   id="rect326" />
				<rect
   x="168.36"
   y="78.459999"
   transform="rotate(-90,169.04265,79.13395)"
   width="1.36"
   height="1.36"
   id="rect328" />
				<rect
   x="172.42999"
   y="77.099998"
   transform="rotate(-90,173.1105,77.778)"
   width="1.36"
   height="1.36"
   id="rect330" />
				<rect
   x="173.78999"
   y="75.739998"
   transform="rotate(-90,174.4665,76.422)"
   width="1.36"
   height="1.36"
   id="rect332" />
			</g>
		</g></g>
</svg>
