<?xml version="1.0" encoding="UTF-8"?>
<svg width="35.656" height="26.595" version="1.1" viewBox="0 0 35.656 26.595" xml:space="preserve" xmlns="http://www.w3.org/2000/svg" xmlns:cc="http://creativecommons.org/ns#" xmlns:dc="http://purl.org/dc/elements/1.1/" xmlns:rdf="http://www.w3.org/1999/02/22-rdf-syntax-ns#"><metadata><rdf:RDF><cc:Work rdf:about=""><dc:format>image/svg+xml</dc:format><dc:type rdf:resource="http://purl.org/dc/dcmitype/StillImage"/><dc:title/></cc:Work></rdf:RDF></metadata>
<style type="text/css">
	.st0{fill:#F1F2F2;stroke:#000000;stroke-width:1.5;stroke-miterlimit:10;}
	.st1{fill:#F2BE48;stroke:#000000;stroke-width:1.5;stroke-miterlimit:10;}
	.st2{fill:#7CCFA1;stroke:#000000;stroke-width:1.5;stroke-miterlimit:10;}
	.st3{fill:#E6E7E8;stroke:#000000;stroke-width:1.5;stroke-miterlimit:10;}
	.st4{fill:none;stroke:#000000;stroke-width:1.5;stroke-miterlimit:10;}
	.st5{font-family:'Charcoal';}
	.st6{font-size:17.3162px;}
	.st7{fill:#D1D3D4;stroke:#000000;stroke-width:1.5;stroke-miterlimit:10;}
	.st8{fill:#FFFFFF;stroke:#000000;stroke-width:1.5;stroke-miterlimit:10;}
	.st9{font-size:26.9422px;}
	.st10{font-size:12px;}
	.st11{font-size:20px;}
	.st12{font-size:17.4631px;}
	.st13{font-size:26.2802px;}
	.st14{font-size:12.8981px;}
	.st15{font-size:9px;}
	.st16{fill:#F1F2F2;}
	.st17{fill:none;}
	.st18{fill-rule:evenodd;clip-rule:evenodd;fill:#BCBEC0;stroke:#000000;stroke-width:1.5;stroke-miterlimit:10;}
	.st19{font-size:14.3381px;}
	.st20{font-size:43.9484px;}
	.st21{fill:#BCBEC0;stroke:#000000;stroke-width:1.5;stroke-miterlimit:10;}
	.st22{fill-rule:evenodd;clip-rule:evenodd;fill:#FFFFFF;stroke:#000000;stroke-width:1.5;stroke-miterlimit:10;}
</style>
<g transform="translate(-303.84 -283.65)">
	
	
	
	
	
	
	
	
	
		
		
		
		
		
		<g transform="translate(-175.43 10.563)">
			
				
					<rect transform="rotate(180 506.62 274.13)" x="502.46" y="273.09" width="8.33" height="2.09"/>
				
					<rect transform="rotate(180 506.62 288.65)" x="502.46" y="287.6" width="8.33" height="2.09"/>
				
					<rect transform="rotate(90 499.33 281.39)" x="495.2" y="280.35" width="8.25" height="2.09"/>
				
					<rect transform="rotate(90 513.88 281.39)" x="509.76" y="280.35" width="8.25" height="2.09"/>
				
					<rect transform="rotate(180 501.41 276.22)" x="500.37" y="275.18" width="2.09" height="2.09"/>
				
					<rect transform="rotate(-90 511.79 276.22)" x="510.75" y="275.18" width="2.09" height="2.09"/>
				<rect x="510.75" y="285.52" width="2.09" height="2.09"/>
				
					<rect transform="rotate(90 501.41 286.56)" x="500.37" y="285.52" width="2.09" height="2.09"/>
			
			
				
					<rect transform="rotate(180 487.61 277.85)" x="483.44" y="276.8" width="8.33" height="2.09"/>
				
					<rect transform="rotate(180 487.61 292.36)" x="483.44" y="291.32" width="8.33" height="2.09"/>
				
					<rect transform="rotate(90 480.31 285.1)" x="476.19" y="284.06" width="8.25" height="2.09"/>
				
					<rect transform="rotate(90 494.87 285.1)" x="490.74" y="284.06" width="8.25" height="2.09"/>
				
					<rect transform="rotate(180 482.4 279.93)" x="481.36" y="278.89" width="2.09" height="2.09"/>
				
					<rect transform="rotate(-90 492.78 279.93)" x="491.73" y="278.89" width="2.09" height="2.09"/>
				<rect x="491.73" y="289.23" width="2.09" height="2.09"/>
				
					<rect transform="rotate(90 482.4 290.27)" x="481.36" y="289.23" width="2.09" height="2.09"/>
			
			
				<polygon class="st16" points="491.76 297.59 500.1 297.59 504.28 293.42 504.28 285.17 500.1 280.99 491.76 280.99 487.59 285.17 487.59 293.42"/>
				
					<rect transform="rotate(180 495.93 279.95)" x="491.76" y="278.9" width="8.33" height="2.09"/>
				
					<rect transform="rotate(180 495.93 298.64)" x="491.76" y="297.59" width="8.33" height="2.09"/>
				
					<rect transform="rotate(90 486.54 289.29)" x="482.42" y="288.25" width="8.25" height="2.09"/>
				
					<rect transform="rotate(90 505.32 289.29)" x="501.19" y="288.25" width="8.25" height="2.09"/>
				
					<rect transform="rotate(180 490.72 282.03)" x="489.68" y="280.99" width="2.09" height="2.09"/>
				
					<rect transform="rotate(180 488.63 284.12)" x="487.59" y="283.08" width="2.09" height="2.09"/>
				
					<rect transform="rotate(-90 503.23 284.12)" x="502.19" y="283.08" width="2.09" height="2.09"/>
				<rect transform="rotate(-90 501.14 282.03)" x="500.1" y="280.99" width="2.09" height="2.09"/>
				<rect x="500.1" y="295.5" width="2.09" height="2.09"/>
				<rect x="502.19" y="293.42" width="2.09" height="2.09"/>
				
					<rect transform="rotate(90 488.63 294.46)" x="487.59" y="293.42" width="2.09" height="2.09"/>
				
					<rect transform="rotate(90 490.72 296.55)" x="489.68" y="295.5" width="2.09" height="2.09"/>
			
		</g>
	
	
	
	
	
	
	
	
	
</g>
</svg>
