<?xml version="1.0" encoding="UTF-8"?>
<svg width="25.159" height="24.2" version="1.1" viewBox="0 0 25.159 24.2" xml:space="preserve" xmlns="http://www.w3.org/2000/svg" xmlns:cc="http://creativecommons.org/ns#" xmlns:dc="http://purl.org/dc/elements/1.1/" xmlns:rdf="http://www.w3.org/1999/02/22-rdf-syntax-ns#"><metadata><rdf:RDF><cc:Work rdf:about=""><dc:format>image/svg+xml</dc:format><dc:type rdf:resource="http://purl.org/dc/dcmitype/StillImage"/><dc:title/></cc:Work></rdf:RDF></metadata>
<style type="text/css">
	.st0{fill:#F1F2F2;stroke:#000000;stroke-width:1.5;stroke-miterlimit:10;}
	.st1{fill:#F2BE48;stroke:#000000;stroke-width:1.5;stroke-miterlimit:10;}
	.st2{fill:#7CCFA1;stroke:#000000;stroke-width:1.5;stroke-miterlimit:10;}
	.st3{fill:#E6E7E8;stroke:#000000;stroke-width:1.5;stroke-miterlimit:10;}
	.st4{fill:none;stroke:#000000;stroke-width:1.5;stroke-miterlimit:10;}
	.st5{font-family:'Charcoal';}
	.st6{font-size:17.3162px;}
	.st7{fill:#D1D3D4;stroke:#000000;stroke-width:1.5;stroke-miterlimit:10;}
	.st8{fill:#FFFFFF;stroke:#000000;stroke-width:1.5;stroke-miterlimit:10;}
	.st9{font-size:26.9422px;}
	.st10{font-size:12px;}
	.st11{font-size:20px;}
	.st12{font-size:17.4631px;}
	.st13{font-size:26.2802px;}
	.st14{font-size:12.8981px;}
	.st15{font-size:9px;}
	.st16{fill:#F1F2F2;}
	.st17{fill:none;}
	.st18{fill-rule:evenodd;clip-rule:evenodd;fill:#BCBEC0;stroke:#000000;stroke-width:1.5;stroke-miterlimit:10;}
	.st19{font-size:14.3381px;}
	.st20{font-size:43.9484px;}
	.st21{fill:#BCBEC0;stroke:#000000;stroke-width:1.5;stroke-miterlimit:10;}
	.st22{fill-rule:evenodd;clip-rule:evenodd;fill:#FFFFFF;stroke:#000000;stroke-width:1.5;stroke-miterlimit:10;}
</style>
<g transform="translate(-235.7 -281.14)">
	
	
	
	
	
	
	
	
	
		
		
		
		<g transform="translate(-7.2662 7.5601)">
			<polygon class="st16" points="263.55 281.21 263.55 275.87 247.55 275.87 247.55 281.21 254.41 288.07 256.69 288.07"/>
			<polygon class="st16" points="245.26 295.49 265.84 295.49 265.84 281.21 263.55 281.21 256.69 288.07 254.41 288.07 247.55 281.21 245.26 281.21"/>
			<rect x="245.26" y="278.92" width="2.29" height="2.29"/>
			<rect x="263.55" y="278.92" width="2.29" height="2.29"/>
			<rect x="245.26" y="295.49" width="20.58" height="2.29"/>
			<rect x="247.55" y="273.58" width="16.01" height="2.29"/>
			
				<rect transform="rotate(90 266.99 288.35)" x="259.84" y="287.21" width="14.29" height="2.29"/>
			
				<rect transform="rotate(90 264.7 277.4)" x="263.17" y="276.25" width="3.05" height="2.29"/>
			
				<rect transform="rotate(90 246.4 277.4)" x="244.88" y="276.25" width="3.05" height="2.29"/>
			
				<rect transform="rotate(90 244.12 288.35)" x="236.97" y="287.21" width="14.29" height="2.29"/>
			<rect x="247.55" y="281.21" width="2.29" height="2.29"/>
			<rect x="249.83" y="283.5" width="2.29" height="2.29"/>
			<rect x="252.12" y="285.78" width="2.29" height="2.29"/>
			<rect x="254.41" y="288.07" width="2.29" height="2.29"/>
			
				<rect transform="rotate(180 262.41 282.35)" x="261.27" y="281.21" width="2.29" height="2.29"/>
			<rect transform="rotate(180 260.12 284.64)" x="258.98" y="283.5" width="2.29" height="2.29"/>
			
				<rect transform="rotate(180 257.84 286.93)" x="256.69" y="285.78" width="2.29" height="2.29"/>
		</g>
		
		
	
	
	
	
	
	
	
	
	
</g>
</svg>
