<?xml version="1.0" encoding="UTF-8"?>
<svg width="25.037" height="20.504" version="1.1" viewBox="0 0 25.037 20.504" xml:space="preserve" xmlns="http://www.w3.org/2000/svg" xmlns:cc="http://creativecommons.org/ns#" xmlns:dc="http://purl.org/dc/elements/1.1/" xmlns:rdf="http://www.w3.org/1999/02/22-rdf-syntax-ns#"><metadata><rdf:RDF><cc:Work rdf:about=""><dc:format>image/svg+xml</dc:format><dc:type rdf:resource="http://purl.org/dc/dcmitype/StillImage"/><dc:title/></cc:Work></rdf:RDF></metadata>
<style type="text/css">
	.st0{fill:#F1F2F2;stroke:#000000;stroke-width:1.5;stroke-miterlimit:10;}
	.st1{fill:#F2BE48;stroke:#000000;stroke-width:1.5;stroke-miterlimit:10;}
	.st2{fill:#7CCFA1;stroke:#000000;stroke-width:1.5;stroke-miterlimit:10;}
	.st3{fill:#E6E7E8;stroke:#000000;stroke-width:1.5;stroke-miterlimit:10;}
	.st4{fill:none;stroke:#000000;stroke-width:1.5;stroke-miterlimit:10;}
	.st5{font-family:'Charcoal';}
	.st6{font-size:17.3162px;}
	.st7{fill:#D1D3D4;stroke:#000000;stroke-width:1.5;stroke-miterlimit:10;}
	.st8{fill:#FFFFFF;stroke:#000000;stroke-width:1.5;stroke-miterlimit:10;}
	.st9{font-size:26.9422px;}
	.st10{font-size:12px;}
	.st11{font-size:20px;}
	.st12{font-size:17.4631px;}
	.st13{font-size:26.2802px;}
	.st14{font-size:12.8981px;}
	.st15{font-size:9px;}
	.st16{fill:#F1F2F2;}
	.st17{fill:none;}
	.st18{fill-rule:evenodd;clip-rule:evenodd;fill:#BCBEC0;stroke:#000000;stroke-width:1.5;stroke-miterlimit:10;}
	.st19{font-size:14.3381px;}
	.st20{font-size:43.9484px;}
	.st21{fill:#BCBEC0;stroke:#000000;stroke-width:1.5;stroke-miterlimit:10;}
	.st22{fill-rule:evenodd;clip-rule:evenodd;fill:#FFFFFF;stroke:#000000;stroke-width:1.5;stroke-miterlimit:10;}
</style>
<g transform="translate(-207.92 -371.43)">
	
	
	
	
	
	
	
	
	
		
		
		
		
		<g transform="translate(184.42 94.075)">
			
				<rect x="34.91" y="281.9" width="2.29" height="2.29"/>
				<rect x="34.91" y="284.19" width="2.29" height="2.29"/>
				<rect x="34.91" y="286.48" width="2.29" height="2.29"/>
				<rect x="34.91" y="288.76" width="2.29" height="2.29"/>
				<rect x="34.91" y="291.05" width="2.29" height="2.29"/>
				
					<rect transform="rotate(180 38.281 280.82)" x="37.14" y="279.68" width="2.29" height="2.29"/>
				
					<rect transform="rotate(180 40.583 278.52)" x="39.44" y="277.37" width="2.29" height="2.29"/>
				
					<rect transform="rotate(180 42.855 278.5)" x="41.71" y="277.36" width="2.29" height="2.29"/>
				<rect transform="rotate(180 45.142 278.5)" x="44" y="277.36" width="2.29" height="2.29"/>
				<rect transform="rotate(180 47.4 280.79)" x="46.26" y="279.65" width="2.29" height="2.29"/>
				
					<rect transform="rotate(180 47.4 283.08)" x="46.26" y="281.93" width="2.29" height="2.29"/>
				
					<rect transform="rotate(180 47.4 285.33)" x="46.26" y="284.19" width="2.29" height="2.29"/>
				
					<rect transform="rotate(180 45.171 287.59)" x="44.03" y="286.45" width="2.29" height="2.29"/>
				
					<rect transform="rotate(180 42.884 289.88)" x="41.74" y="288.74" width="2.29" height="2.29"/>
				
					<rect transform="rotate(-90 26.964 287.62)" x="25.82" y="286.48" width="2.29" height="2.29"/>
				
					<rect transform="rotate(-90 29.251 285.33)" x="28.11" y="284.19" width="2.29" height="2.29"/>
				
					<rect transform="rotate(-90 24.662 289.92)" x="23.52" y="288.78" width="2.29" height="2.29"/>
				<rect transform="rotate(-90 24.648 292.19)" x="23.5" y="291.05" width="2.29" height="2.29"/>
				<rect transform="rotate(-90 24.648 294.48)" x="23.5" y="293.34" width="2.29" height="2.29"/>
				
					<rect transform="rotate(-90 26.964 296.71)" x="25.82" y="295.57" width="2.29" height="2.29"/>
				
					<rect transform="rotate(-90 29.251 296.71)" x="28.11" y="295.57" width="2.29" height="2.29"/>
				
					<rect transform="rotate(-90 31.537 296.71)" x="30.39" y="295.57" width="2.29" height="2.29"/>
				
					<rect transform="rotate(-90 33.766 294.48)" x="32.62" y="293.34" width="2.29" height="2.29"/>
			
		</g>
		
	
	
	
	
	
	
	
	
	
</g>
</svg>
