<?xml version="1.0" encoding="UTF-8" standalone="no"?>
<svg
   xmlns:dc="http://purl.org/dc/elements/1.1/"
   xmlns:cc="http://creativecommons.org/ns#"
   xmlns:rdf="http://www.w3.org/1999/02/22-rdf-syntax-ns#"
   xmlns:svg="http://www.w3.org/2000/svg"
   xmlns="http://www.w3.org/2000/svg"
   version="1.1"
   id="Layer_1"
   x="0px"
   y="0px"
   viewBox="0 0 48.928999 46.109999"
   xml:space="preserve"
   width="48.928997"
   height="46.110001"><metadata
   id="metadata553"><rdf:RDF><cc:Work
       rdf:about=""><dc:format>image/svg+xml</dc:format><dc:type
         rdf:resource="http://purl.org/dc/dcmitype/StillImage" /><dc:title></dc:title></cc:Work></rdf:RDF></metadata><defs
   id="defs551">
	
	
	
	
	
	
	
	
	
	
	
	
	
	
	
	
	
	
	
	
	
	
	
	

		
		
		
		
		
		
		
		
		
		
		
		
	
			
			
			
		</defs>
<style
   type="text/css"
   id="style2">
	.st0{fill:#F1F2F2;stroke:#000000;stroke-width:1.5;stroke-miterlimit:10;}
	.st1{fill:#F2BE48;stroke:#000000;stroke-width:1.5;stroke-miterlimit:10;}
	.st2{fill:#7CCFA1;stroke:#000000;stroke-width:1.5;stroke-miterlimit:10;}
	.st3{fill:#E6E7E8;stroke:#000000;stroke-width:1.5;stroke-miterlimit:10;}
	.st4{fill:none;stroke:#000000;stroke-width:1.5;stroke-miterlimit:10;}
	.st5{font-family:'Charcoal';}
	.st6{font-size:17.3162px;}
	.st7{fill:#D1D3D4;stroke:#000000;stroke-width:1.5;stroke-miterlimit:10;}
	.st8{fill:#F1F2F2;}
	.st9{font-size:12.8981px;}
	.st10{fill:#FFFFFF;stroke:#000000;stroke-width:1.5;stroke-miterlimit:10;}
	.st11{fill:none;stroke:#FFFFFF;stroke-width:1.5;stroke-miterlimit:10;}
	.st12{fill:#939598;}
	.st13{fill:#F2BE48;}
	.st14{fill-rule:evenodd;clip-rule:evenodd;fill:#BCBEC0;stroke:#000000;stroke-width:1.5;stroke-miterlimit:10;}
	.st15{fill:#BCBEC0;}
	.st16{fill:#7CCFA1;}
</style>

<g
   id="g1345"
   transform="translate(-231.41,-68.2)"><g
     id="g1223">
				<g
   id="g1201">
					<path
   d="m 266.9,78.8 c 0,-0.56 0,-1.11 0,-1.71 -1.09,0 -2.18,0 -3.32,0 0,-1.13 0,-2.23 0,-3.36 -1.71,0 -3.37,0 -5.08,0 0,0.54 0,1.08 0,1.62 l -0.01,-0.01 c 1.11,0 2.22,0 3.39,0 0,6.26 0,12.45 0,18.64 0.58,0 1.11,0 1.69,0 0,-5.08 0,-10.13 0,-15.21 1.15,0 2.25,0 3.35,0 z"
   id="path1183" />
					<path
   d="m 248.37,83.86 c -0.56,0 -1.11,0 -1.7,0 0,6.74 0,13.48 0,20.26 0.53,0 1.06,0 1.66,0 0,1.72 0,3.38 0,5.06 0.63,0 1.19,0 1.76,0 l -0.02,0.02 c 0,-1.68 0,-3.37 0,-5.09 -0.61,0 -1.15,0 -1.72,0 0,-6.78 0,-13.52 0,-20.26 z"
   id="path1185" />
					<path
   d="m 250.09,109.19 c -0.01,1.36 -0.02,2.72 -0.03,4.08 0,0.34 0,0.67 0,1.04 5.63,0 11.22,0 16.83,0 0.01,-0.08 0.04,-0.17 0.04,-0.26 0,-1.54 0,-3.08 0,-4.61 0,-0.08 -0.02,-0.16 -0.03,-0.24 l 0.02,0.02 c -0.54,0 -1.08,0 -1.68,0 0,1.17 0,2.28 0,3.38 -4.53,0 -9,0 -13.53,0 0,-1.13 0,-2.23 0,-3.38 -0.59,0 -1.12,0 -1.65,0 z"
   id="path1187" />
					<path
   d="m 270.35,94 c -0.56,0 -1.11,0 -1.71,0 0,-5.07 0,-10.12 0,-15.2 -0.61,0 -1.17,0 -1.74,0 0,0 0.02,-0.02 0.02,-0.02 0,0.16 0.01,0.33 0.01,0.49 0,6.42 0,12.83 0,19.25 0,0.17 0,0.35 0,0.54 0.59,0 1.12,0 1.7,0 0,-1.12 0,-2.22 0,-3.36 0.58,0 1.12,0 1.71,0 0,-0.6 0,-1.16 0,-1.71 z"
   id="path1189" />
					<path
   d="m 258.5,75.36 c -0.54,0 -1.08,0 -1.68,0 0,0.58 0,1.13 0,1.71 -1.15,0 -2.24,0 -3.38,0 0,0.6 0,1.17 0,1.73 l -0.01,-0.01 c 1.11,0 2.22,0 3.39,0 0,5.09 0,10.14 0,15.21 0.58,0 1.11,0 1.68,0 0,-6.23 0,-12.43 0,-18.64 z"
   id="path1191" />
					<path
   d="m 253.43,78.8 c -0.55,0 -1.1,0 -1.7,0 0,1.11 0,2.21 0,3.34 -1.14,0 -2.24,0 -3.36,0 0,0.6 0,1.16 0,1.73 l -0.01,-0.01 c 1.11,0 2.22,0 3.38,0 0,3.96 0,7.89 0,11.83 0.58,0 1.12,0 1.68,0 0,-5.65 0,-11.27 0,-16.9 z"
   id="path1193" />
					<path
   d="m 268.64,105.85 c 0.55,0 1.11,0 1.71,0 0,-1.14 0,-2.24 0,-3.36 0.57,0 1.1,0 1.68,0 0,-1.14 0,-2.25 0,-3.39 0.58,0 1.11,0 1.69,0 0,-0.57 0,-1.11 0,-1.68 0.58,0 1.11,0 1.67,0 0,-1.7 0,-3.36 0,-5.05 -1.67,0 -3.34,0 -5.03,0 0,0.56 0,1.1 0,1.63 l -0.01,-0.01 c 1.11,0 2.22,0 3.33,0 0,1.17 0,2.25 0,3.38 -0.56,0 -1.09,0 -1.67,0 0,0.58 0,1.12 0,1.7 -0.58,0 -1.12,0 -1.7,0 0,1.14 0,2.24 0,3.38 -0.58,0 -1.12,0 -1.68,0 0,1.16 0,2.28 0,3.39 z"
   id="path1195" />
					<path
   d="m 266.9,109.18 c 0.57,0 1.13,0 1.73,0 0,-1.12 0,-2.23 0,-3.33 l -0.01,-0.01 c -0.55,0 -1.1,0 -1.71,0 0,1.15 0,2.25 0,3.36 z"
   id="path1197" />
					<path
   class="st8"
   d="m 266.92,109.2 c 0,-1.11 0,-2.21 0,-3.36 0.61,0 1.16,0 1.71,0 0,-1.11 0,-2.23 0,-3.39 0.56,0 1.1,0 1.68,0 0,-1.14 0,-2.24 0,-3.38 0.58,0 1.11,0 1.7,0 0,-0.58 0,-1.12 0,-1.7 0.58,0 1.12,0 1.67,0 0,-1.13 0,-2.21 0,-3.38 -1.12,0 -2.22,0 -3.33,0 0,0.56 0,1.11 0,1.71 -0.59,0 -1.13,0 -1.71,0 0,1.14 0,2.23 0,3.36 -0.58,0 -1.12,0 -1.7,0 0,-0.19 0,-0.36 0,-0.54 0,-6.42 0,-12.83 0,-19.25 0,-0.16 -0.01,-0.33 -0.01,-0.49 -1.1,0 -2.2,0 -3.35,0 0,5.07 0,10.13 0,15.21 -0.58,0 -1.1,0 -1.69,0 0,-6.19 0,-12.38 0,-18.64 -1.17,0 -2.28,0 -3.39,0 0,6.21 0,12.41 0,18.64 -0.57,0 -1.09,0 -1.68,0 0,-5.06 0,-10.12 0,-15.21 -1.17,0 -2.28,0 -3.39,0 0,5.62 0,11.25 0,16.9 -0.56,0 -1.1,0 -1.68,0 0,-3.94 0,-7.86 0,-11.83 -1.16,0 -2.27,0 -3.38,0 0,6.74 0,13.48 0,20.26 0.57,0 1.1,0 1.72,0 0,1.73 0,3.41 0,5.09 0.53,0 1.06,0 1.65,0 0,1.15 0,2.25 0,3.38 4.53,0 9,0 13.53,0 0,-1.1 0,-2.21 0,-3.38 0.57,0 1.11,0 1.65,0 z"
   id="path1199" />
				</g>
				<g
   id="g1221">
					<path
   d="m 239.89,73.27 c 0,-0.56 0,-1.11 0,-1.71 1.09,0 2.18,0 3.32,0 0,-1.13 0,-2.23 0,-3.36 1.71,0 3.37,0 5.08,0 0,0.54 0,1.08 0,1.62 l 0.01,-0.01 c -1.11,0 -2.22,0 -3.39,0 0,6.26 0,12.45 0,18.64 -0.58,0 -1.11,0 -1.69,0 0,-5.08 0,-10.13 0,-15.21 -1.15,0 -2.25,0 -3.35,0 z"
   id="path1203" />
					<path
   d="m 258.43,78.33 c 0.56,0 1.11,0 1.7,0 0,6.74 0,13.48 0,20.26 -0.53,0 -1.06,0 -1.66,0 0,1.72 0,3.38 0,5.06 -0.63,0 -1.19,0 -1.76,0 l 0.02,0.02 c 0,-1.68 0,-3.37 0,-5.09 0.61,0 1.15,0 1.72,0 0,-6.78 0,-13.52 0,-20.26 z"
   id="path1205" />
					<path
   d="m 256.71,103.65 c 0.01,1.36 0.02,2.72 0.03,4.08 0,0.34 0,0.67 0,1.04 -5.63,0 -11.22,0 -16.83,0 -0.01,-0.08 -0.04,-0.17 -0.04,-0.26 0,-1.54 0,-3.08 0,-4.61 0,-0.08 0.02,-0.16 0.03,-0.24 l -0.02,0.02 c 0.54,0 1.08,0 1.68,0 0,1.17 0,2.28 0,3.38 4.53,0 9,0 13.53,0 0,-1.13 0,-2.23 0,-3.38 0.59,0 1.12,0 1.65,0 z"
   id="path1207" />
					<path
   d="m 236.44,88.46 c 0.56,0 1.11,0 1.71,0 0,-5.07 0,-10.12 0,-15.2 0.61,0 1.17,0 1.74,0 l -0.02,-0.02 c 0,0.16 -0.01,0.33 -0.01,0.49 0,6.42 0,12.83 0,19.25 0,0.17 0,0.35 0,0.54 -0.59,0 -1.12,0 -1.7,0 0,-1.12 0,-2.22 0,-3.36 -0.58,0 -1.12,0 -1.71,0 0,-0.6 0,-1.16 0,-1.71 z"
   id="path1209" />
					<path
   d="m 248.29,69.82 c 0.54,0 1.08,0 1.68,0 0,0.58 0,1.13 0,1.71 1.15,0 2.24,0 3.38,0 0,0.6 0,1.17 0,1.73 l 0.01,-0.01 c -1.11,0 -2.22,0 -3.39,0 0,5.09 0,10.14 0,15.21 -0.58,0 -1.11,0 -1.68,0 0,-6.23 0,-12.43 0,-18.64 z"
   id="path1211" />
					<path
   d="m 253.36,73.26 c 0.55,0 1.1,0 1.7,0 0,1.11 0,2.21 0,3.34 1.14,0 2.24,0 3.36,0 0,0.6 0,1.16 0,1.73 l 0.01,-0.01 c -1.11,0 -2.22,0 -3.38,0 0,3.96 0,7.89 0,11.83 -0.58,0 -1.12,0 -1.68,0 0,-5.65 0,-11.27 0,-16.9 z"
   id="path1213" />
					<path
   d="m 238.16,100.32 c -0.55,0 -1.11,0 -1.71,0 0,-1.14 0,-2.24 0,-3.36 -0.57,0 -1.1,0 -1.68,0 0,-1.14 0,-2.25 0,-3.39 -0.58,0 -1.11,0 -1.69,0 0,-0.57 0,-1.11 0,-1.68 -0.58,0 -1.11,0 -1.67,0 0,-1.7 0,-3.36 0,-5.05 1.67,0 3.34,0 5.03,0 0,0.56 0,1.1 0,1.63 0,0 0.01,-0.01 0.01,-0.01 -1.11,0 -2.22,0 -3.33,0 0,1.17 0,2.25 0,3.38 0.56,0 1.09,0 1.67,0 0,0.58 0,1.12 0,1.7 0.58,0 1.12,0 1.7,0 0,1.14 0,2.24 0,3.38 0.58,0 1.12,0 1.68,0 0,1.16 0,2.28 0,3.39 z"
   id="path1215" />
					<path
   d="m 239.89,103.65 c -0.57,0 -1.13,0 -1.73,0 0,-1.12 0,-2.23 0,-3.33 l 0.01,-0.01 c 0.55,0 1.1,0 1.71,0 0,1.15 0,2.25 0,3.36 z"
   id="path1217" />
					<path
   class="st8"
   d="m 239.88,103.67 c 0,-1.11 0,-2.21 0,-3.36 -0.61,0 -1.16,0 -1.71,0 0,-1.11 0,-2.23 0,-3.39 -0.56,0 -1.1,0 -1.68,0 0,-1.14 0,-2.24 0,-3.38 -0.58,0 -1.11,0 -1.7,0 0,-0.58 0,-1.12 0,-1.7 -0.58,0 -1.12,0 -1.67,0 0,-1.13 0,-2.21 0,-3.38 1.12,0 2.22,0 3.33,0 0,0.56 0,1.11 0,1.71 0.59,0 1.13,0 1.71,0 0,1.14 0,2.23 0,3.36 0.58,0 1.12,0 1.7,0 0,-0.19 0,-0.36 0,-0.54 0,-6.42 0,-12.83 0,-19.25 0,-0.16 0.01,-0.33 0.01,-0.49 1.1,0 2.2,0 3.35,0 0,5.07 0,10.13 0,15.21 0.58,0 1.1,0 1.69,0 0,-6.19 0,-12.38 0,-18.64 1.17,0 2.28,0 3.39,0 0,6.21 0,12.41 0,18.64 0.57,0 1.09,0 1.68,0 0,-5.06 0,-10.12 0,-15.21 1.17,0 2.28,0 3.39,0 0,5.62 0,11.25 0,16.9 0.56,0 1.1,0 1.68,0 0,-3.94 0,-7.86 0,-11.83 1.16,0 2.27,0 3.38,0 0,6.74 0,13.48 0,20.26 -0.57,0 -1.1,0 -1.72,0 0,1.73 0,3.41 0,5.09 -0.53,0 -1.06,0 -1.65,0 0,1.15 0,2.25 0,3.38 -4.53,0 -9,0 -13.53,0 0,-1.1 0,-2.21 0,-3.38 -0.57,0 -1.11,0 -1.65,0 z"
   id="path1219" />
				</g>
			</g><g
     id="g1263">
				<polygon
   class="st8"
   points="267.85,85.42 265.06,88.21 264.37,95.18 265.06,96.54 267.85,99.33 271.59,100.04 276.18,99.33 278.97,96.54 279.64,88.96 278.97,88.21 276.18,85.42 271.69,84.73 "
   id="polygon1233" />
				<rect
   x="267.82999"
   y="84.029999"
   width="8.3500004"
   height="1.39"
   id="rect1235" />
				<rect
   x="267.82999"
   y="99.300003"
   width="8.3500004"
   height="1.39"
   id="rect1237" />
				
					<rect
   x="275.45999"
   y="91.660004"
   transform="rotate(90,279.63745,92.36155)"
   width="8.3500004"
   height="1.39"
   id="rect1239" />
				<rect
   x="271.03"
   y="90.199997"
   transform="matrix(-0.7071,0.7071,-0.7071,-0.7071,532.5105,-38.785)"
   width="6.5100002"
   height="1.39"
   id="rect1241" />
				<rect
   x="269.29999"
   y="91.239998"
   transform="matrix(0.7071,0.7071,-0.7071,0.7071,144.4665,-164.907)"
   width="3.99"
   height="1.39"
   id="rect1243" />
				
					<rect
   x="260.19"
   y="91.660004"
   transform="rotate(90,264.36765,92.36155)"
   width="8.3500004"
   height="1.39"
   id="rect1245" />
				<rect
   x="276.17999"
   y="85.419998"
   width="1.39"
   height="1.39"
   id="rect1247" />
				<rect
   x="277.57001"
   y="86.82"
   width="1.39"
   height="1.39"
   id="rect1249" />
				<rect
   x="265.06"
   y="86.82"
   transform="rotate(-90,265.7619,87.5152)"
   width="1.39"
   height="1.39"
   id="rect1251" />
				<rect
   x="266.45999"
   y="85.419998"
   transform="rotate(-90,267.15615,86.12095)"
   width="1.39"
   height="1.39"
   id="rect1253" />
				
					<rect
   x="266.45999"
   y="97.93"
   transform="rotate(180,267.15615,98.62965)"
   width="1.39"
   height="1.39"
   id="rect1255" />
				
					<rect
   x="265.06"
   y="96.540001"
   transform="rotate(180,265.7619,97.2354)"
   width="1.39"
   height="1.39"
   id="rect1257" />
				
					<rect
   x="277.57001"
   y="96.540001"
   transform="rotate(90,278.27065,97.23545)"
   width="1.39"
   height="1.39"
   id="rect1259" />
				
					<rect
   x="276.17999"
   y="97.93"
   transform="rotate(90,276.87635,98.62965)"
   width="1.39"
   height="1.39"
   id="rect1261" />
			</g></g></svg>
