<?xml version="1.0" encoding="UTF-8" standalone="no"?>
<svg
   xmlns:dc="http://purl.org/dc/elements/1.1/"
   xmlns:cc="http://creativecommons.org/ns#"
   xmlns:rdf="http://www.w3.org/1999/02/22-rdf-syntax-ns#"
   xmlns:svg="http://www.w3.org/2000/svg"
   xmlns="http://www.w3.org/2000/svg"
   version="1.1"
   id="Layer_1"
   x="0px"
   y="0px"
   viewBox="0 0 50.591902 39.297606"
   xml:space="preserve"
   width="50.5919"
   height="39.297607"><metadata
   id="metadata553"><rdf:RDF><cc:Work
       rdf:about=""><dc:format>image/svg+xml</dc:format><dc:type
         rdf:resource="http://purl.org/dc/dcmitype/StillImage" /><dc:title></dc:title></cc:Work></rdf:RDF></metadata><defs
   id="defs551">
	
	
	
	
	
	
	
	
	
	
	
	
	
	
	
	
	
	
	
	
	
	
	
	

		
		
		
		
		
		
		
		
		
		
		
		
	
			
			
			
		</defs>
<style
   type="text/css"
   id="style2">
	.st0{fill:#F1F2F2;stroke:#000000;stroke-width:1.5;stroke-miterlimit:10;}
	.st1{fill:#F2BE48;stroke:#000000;stroke-width:1.5;stroke-miterlimit:10;}
	.st2{fill:#7CCFA1;stroke:#000000;stroke-width:1.5;stroke-miterlimit:10;}
	.st3{fill:#E6E7E8;stroke:#000000;stroke-width:1.5;stroke-miterlimit:10;}
	.st4{fill:none;stroke:#000000;stroke-width:1.5;stroke-miterlimit:10;}
	.st5{font-family:'Charcoal';}
	.st6{font-size:17.3162px;}
	.st7{fill:#D1D3D4;stroke:#000000;stroke-width:1.5;stroke-miterlimit:10;}
	.st8{fill:#F1F2F2;}
	.st9{font-size:12.8981px;}
	.st10{fill:#FFFFFF;stroke:#000000;stroke-width:1.5;stroke-miterlimit:10;}
	.st11{fill:none;stroke:#FFFFFF;stroke-width:1.5;stroke-miterlimit:10;}
	.st12{fill:#939598;}
	.st13{fill:#F2BE48;}
	.st14{fill-rule:evenodd;clip-rule:evenodd;fill:#BCBEC0;stroke:#000000;stroke-width:1.5;stroke-miterlimit:10;}
	.st15{fill:#BCBEC0;}
	.st16{fill:#7CCFA1;}
</style>
<g
   id="g308"
   transform="translate(-26.52,-179.4224)">
			<polygon
   class="st8"
   points="27.92,183.6 27.22,214.17 73.92,214.17 72.87,184.03 72.53,183.6 69.74,180.81 32.43,179.9 30.71,180.81 29.31,182.2 "
   id="polygon148" />
			<polygon
   class="st8"
   points="36.47,196.88 33.68,199.67 33.47,204.53 33.68,205.18 36.47,207.96 38.93,208.2 42.03,207.96 44.79,205.18 45,199.83 44.49,199.27 42.03,196.88 39,196.64 "
   id="polygon150" />
			<polygon
   class="st8"
   points="42.03,209.36 37.08,209.31 36.35,209.36 32.4,210.71 31,212.1 29.83,213.16 30.13,213.91 46.88,213.76 46.19,212.1 44.79,210.75 "
   id="polygon152" />
			<polygon
   class="st8"
   points="46.88,212.8 47.58,212.1 48.97,210.71 52.93,209.36 53.02,209.31 60.51,208.94 61.37,209.36 65.27,210.75 66.13,211.4 66.72,212.1 67.42,213.48 47.09,213.91 "
   id="polygon154" />
			<polygon
   class="st8"
   points="53.04,194.04 50.26,196.83 49.56,203.8 50.26,205.16 53.04,207.94 56.78,208.66 61.37,207.94 64.16,205.16 64.83,197.57 64.16,196.83 61.37,194.04 56.88,193.34 "
   id="polygon156" />
			<rect
   x="53.02"
   y="192.64999"
   width="8.3500004"
   height="1.39"
   id="rect158" />
			<rect
   x="53.02"
   y="207.92"
   width="8.3500004"
   height="1.39"
   id="rect160" />
			
				<rect
   x="60.650002"
   y="200.28"
   transform="rotate(90,64.8282,200.9791)"
   width="8.3500004"
   height="1.39"
   id="rect162" />
			
				<rect
   x="45.380001"
   y="200.28"
   transform="rotate(90,49.5585,200.9791)"
   width="8.3500004"
   height="1.39"
   id="rect164" />
			<rect
   x="61.369999"
   y="194.03999"
   width="1.39"
   height="1.39"
   id="rect166" />
			<rect
   x="62.759998"
   y="195.44"
   width="1.39"
   height="1.39"
   id="rect168" />
			<rect
   x="50.259998"
   y="195.44"
   transform="rotate(-90,50.9527,196.1328)"
   width="1.39"
   height="1.39"
   id="rect170" />
			<rect
   x="51.650002"
   y="194.03999"
   transform="rotate(-90,52.34695,194.73855)"
   width="1.39"
   height="1.39"
   id="rect172" />
			<g
   id="g184">
				
					<rect
   x="36.470001"
   y="188.67999"
   transform="rotate(-90,37.1627,189.3734)"
   width="1.39"
   height="1.39"
   id="rect174" />
				
					<rect
   x="37.860001"
   y="187.28"
   transform="rotate(-90,38.55695,187.97915)"
   width="1.39"
   height="1.39"
   id="rect176" />
				
					<rect
   x="35.07"
   y="187.28"
   transform="rotate(-90,35.76845,187.97915)"
   width="1.39"
   height="1.39"
   id="rect178" />
				<rect
   x="39.25"
   y="185.89"
   transform="rotate(-90,39.95115,186.58485)"
   width="1.39"
   height="1.39"
   id="rect180" />
				<rect
   x="40.650002"
   y="184.49001"
   transform="rotate(-90,41.3454,185.1906)"
   width="1.39"
   height="1.39"
   id="rect182" />
			</g>
			
				<rect
   x="51.650002"
   y="206.55"
   transform="rotate(180,52.34695,207.24725)"
   width="1.39"
   height="1.39"
   id="rect186" />
			<rect
   x="50.259998"
   y="205.16"
   transform="rotate(180,50.9527,205.853)"
   width="1.39"
   height="1.39"
   id="rect188" />
			<rect
   x="66.720001"
   y="212.10001"
   transform="rotate(180,67.4184,212.7967)"
   width="1.39"
   height="1.39"
   id="rect190" />
			<rect
   x="61.369999"
   y="209.36"
   transform="rotate(180,63.3196,210.05265)"
   width="3.9000001"
   height="1.39"
   id="rect192" />
			
				<rect
   x="65.330002"
   y="210.71001"
   transform="rotate(180,66.02415,211.40245)"
   width="1.39"
   height="1.39"
   id="rect194" />
			<rect
   x="46.189999"
   y="212.10001"
   width="1.39"
   height="1.39"
   id="rect196" />
			<rect
   x="49.029999"
   y="209.36"
   width="3.9000001"
   height="1.39"
   id="rect198" />
			<rect
   x="47.580002"
   y="210.71001"
   width="1.39"
   height="1.39"
   id="rect200" />
			
				<rect
   x="62.759998"
   y="205.16"
   transform="rotate(90,63.4615,205.853)"
   width="1.39"
   height="1.39"
   id="rect202" />
			
				<rect
   x="61.369999"
   y="206.55"
   transform="rotate(90,62.06715,207.24725)"
   width="1.39"
   height="1.39"
   id="rect204" />
			<rect
   x="26.52"
   y="213.49001"
   width="47.400002"
   height="1.34"
   id="rect206" />
			<rect
   x="26.52"
   y="217.38"
   width="42.259998"
   height="1.34"
   id="rect208" />
			<rect
   x="68.120003"
   y="213.48"
   width="1.33"
   height="1.34"
   id="rect210" />
			<rect
   x="44.790001"
   y="210.71001"
   width="1.39"
   height="1.39"
   id="rect212" />
			<rect
   x="29.610001"
   y="212.10001"
   width="1.39"
   height="1.39"
   id="rect214" />
			<rect
   x="32.450001"
   y="209.36"
   width="3.9000001"
   height="1.39"
   id="rect216" />
			<rect
   x="42"
   y="209.36"
   width="2.79"
   height="1.39"
   id="rect218" />
			<rect
   x="31"
   y="210.71001"
   width="1.39"
   height="1.39"
   id="rect220" />
			<g
   id="g246">
				
					<rect
   x="36.470001"
   y="195.48"
   transform="rotate(180,39.2481,196.1798)"
   width="5.5700002"
   height="1.39"
   id="rect222" />
				
					<rect
   x="36.470001"
   y="207.96001"
   transform="rotate(180,39.2481,208.66125)"
   width="5.5700002"
   height="1.39"
   id="rect224" />
				
					<rect
   x="30.219999"
   y="201.72"
   transform="rotate(90,32.97995,202.42045)"
   width="5.5100002"
   height="1.39"
   id="rect226" />
				
					<rect
   x="42.73"
   y="201.72"
   transform="rotate(90,45.48865,202.42045)"
   width="5.5100002"
   height="1.39"
   id="rect228" />
				
					<rect
   x="35.07"
   y="196.88"
   transform="rotate(180,35.76845,197.57405)"
   width="1.39"
   height="1.39"
   id="rect230" />
				
					<rect
   x="33.68"
   y="198.27"
   transform="rotate(180,34.3742,198.9683)"
   width="1.39"
   height="1.39"
   id="rect232" />
				<rect
   x="43.400002"
   y="198.27"
   transform="rotate(-90,44.0944,198.9683)"
   width="1.39"
   height="1.39"
   id="rect234" />
				<rect
   x="42"
   y="196.88"
   transform="rotate(-90,42.70015,197.57405)"
   width="1.39"
   height="1.39"
   id="rect236" />
				<rect
   x="42"
   y="206.57001"
   width="1.39"
   height="1.39"
   id="rect238" />
				<rect
   x="43.400002"
   y="205.17999"
   width="1.39"
   height="1.39"
   id="rect240" />
				
					<rect
   x="33.68"
   y="205.17999"
   transform="rotate(90,34.3742,205.8728)"
   width="1.39"
   height="1.39"
   id="rect242" />
				
					<rect
   x="35.07"
   y="206.57001"
   transform="rotate(90,35.76845,207.26705)"
   width="1.39"
   height="1.39"
   id="rect244" />
			</g>
			<rect
   x="31"
   y="213.48"
   transform="rotate(180,38.59365,214.157)"
   width="15.18"
   height="1.34"
   id="rect248" />
			<g
   id="g254">
				
					<rect
   x="11.6"
   y="198.52"
   transform="rotate(90,27.21985,199.21295)"
   width="31.23"
   height="1.39"
   id="rect250" />
				
					<rect
   x="57.610001"
   y="198.52"
   transform="rotate(90,73.2239,199.2129)"
   width="31.23"
   height="1.39"
   id="rect252" />
			</g>
			
				<rect
   x="30.709999"
   y="179.41"
   transform="rotate(180,50.22185,180.1112)"
   width="39.029999"
   height="1.39"
   id="rect256" />
			<rect
   x="71.129997"
   y="182.2"
   width="1.39"
   height="1.39"
   id="rect258" />
			<rect
   x="69.739998"
   y="180.81"
   width="1.39"
   height="1.39"
   id="rect260" />
			<rect
   x="27.92"
   y="182.2"
   transform="rotate(180,28.6141,182.89965)"
   width="1.39"
   height="1.39"
   id="rect262" />
			<rect
   x="29.309999"
   y="180.81"
   transform="rotate(180,30.00835,181.50545)"
   width="1.39"
   height="1.39"
   id="rect264" />
			<rect
   x="47.419998"
   y="184.49001"
   width="18.65"
   height="1.39"
   id="rect266" />
			<rect
   x="47.419998"
   y="188.67999"
   width="18.65"
   height="1.39"
   id="rect268" />
			<rect
   x="46.029999"
   y="185.89"
   width="1.39"
   height="2.79"
   id="rect270" />
			<rect
   x="66.07"
   y="185.89"
   width="1.39"
   height="2.79"
   id="rect272" />
			<rect
   x="47.419998"
   y="185.89"
   class="st8"
   width="18.65"
   height="2.79"
   id="rect274" />
			<g
   id="g306">
				<polygon
   class="st8"
   points="64.63,203.43 61.84,206.22 61.14,213.19 61.84,214.54 64.63,217.33 68.37,218.05 72.96,217.33 75.74,214.54 76.41,206.96 75.74,206.22 72.96,203.43 68.47,202.73 "
   id="polygon276" />
				<rect
   x="64.599998"
   y="202.03999"
   width="8.3500004"
   height="1.39"
   id="rect278" />
				<rect
   x="64.599998"
   y="217.31"
   width="8.3500004"
   height="1.39"
   id="rect280" />
				
					<rect
   x="72.239998"
   y="209.67"
   transform="rotate(90,76.41375,210.36815)"
   width="8.3500004"
   height="1.39"
   id="rect282" />
				<rect
   x="67.809998"
   y="208.2"
   transform="matrix(-0.7071,0.7071,-0.7071,-0.7071,269.0292,306.3657)"
   width="6.5100002"
   height="1.39"
   id="rect284" />
				<rect
   x="66.080002"
   y="209.24001"
   transform="matrix(0.7071,0.7071,-0.7071,0.7071,168.3869,13.3572)"
   width="3.99"
   height="1.39"
   id="rect286" />
				
					<rect
   x="56.970001"
   y="209.67"
   transform="rotate(90,61.14395,210.36815)"
   width="8.3500004"
   height="1.39"
   id="rect288" />
				<rect
   x="72.959999"
   y="203.42999"
   width="1.39"
   height="1.39"
   id="rect290" />
				<rect
   x="74.349998"
   y="204.82001"
   width="1.39"
   height="1.39"
   id="rect292" />
				<rect
   x="61.84"
   y="204.82001"
   transform="rotate(-90,62.5382,205.5218)"
   width="1.39"
   height="1.39"
   id="rect294" />
				<rect
   x="63.240002"
   y="203.42999"
   transform="rotate(-90,63.93245,204.12755)"
   width="1.39"
   height="1.39"
   id="rect296" />
				
					<rect
   x="63.240002"
   y="215.94"
   transform="rotate(180,63.93245,216.63625)"
   width="1.39"
   height="1.39"
   id="rect298" />
				
					<rect
   x="61.84"
   y="214.53999"
   transform="rotate(180,62.5382,215.242)"
   width="1.39"
   height="1.39"
   id="rect300" />
				
					<rect
   x="74.349998"
   y="214.53999"
   transform="rotate(90,75.04695,215.24205)"
   width="1.39"
   height="1.39"
   id="rect302" />
				
					<rect
   x="72.959999"
   y="215.94"
   transform="rotate(90,73.65265,216.63625)"
   width="1.39"
   height="1.39"
   id="rect304" />
			</g>
		</g>
</svg>
