<?xml version="1.0" encoding="UTF-8" standalone="no"?>
<svg
   xmlns:dc="http://purl.org/dc/elements/1.1/"
   xmlns:cc="http://creativecommons.org/ns#"
   xmlns:rdf="http://www.w3.org/1999/02/22-rdf-syntax-ns#"
   xmlns:svg="http://www.w3.org/2000/svg"
   xmlns="http://www.w3.org/2000/svg"
   version="1.1"
   id="Layer_1"
   x="0px"
   y="0px"
   viewBox="0 0 42.416704 36.777995"
   xml:space="preserve"
   width="42.416702"
   height="36.777996"><metadata
   id="metadata553"><rdf:RDF><cc:Work
       rdf:about=""><dc:format>image/svg+xml</dc:format><dc:type
         rdf:resource="http://purl.org/dc/dcmitype/StillImage" /><dc:title></dc:title></cc:Work></rdf:RDF></metadata><defs
   id="defs551">
	
	
	
	
	
	
	
	
	
	
	
	
	
	
	
	
	
	
	
	
	
	
	
	

		
		
		
		
		
		
		
		
		
		
		
		
	
			
			
			
		</defs>
<style
   type="text/css"
   id="style2">
	.st0{fill:#F1F2F2;stroke:#000000;stroke-width:1.5;stroke-miterlimit:10;}
	.st1{fill:#F2BE48;stroke:#000000;stroke-width:1.5;stroke-miterlimit:10;}
	.st2{fill:#7CCFA1;stroke:#000000;stroke-width:1.5;stroke-miterlimit:10;}
	.st3{fill:#E6E7E8;stroke:#000000;stroke-width:1.5;stroke-miterlimit:10;}
	.st4{fill:none;stroke:#000000;stroke-width:1.5;stroke-miterlimit:10;}
	.st5{font-family:'Charcoal';}
	.st6{font-size:17.3162px;}
	.st7{fill:#D1D3D4;stroke:#000000;stroke-width:1.5;stroke-miterlimit:10;}
	.st8{fill:#F1F2F2;}
	.st9{font-size:12.8981px;}
	.st10{fill:#FFFFFF;stroke:#000000;stroke-width:1.5;stroke-miterlimit:10;}
	.st11{fill:none;stroke:#FFFFFF;stroke-width:1.5;stroke-miterlimit:10;}
	.st12{fill:#939598;}
	.st13{fill:#F2BE48;}
	.st14{fill-rule:evenodd;clip-rule:evenodd;fill:#BCBEC0;stroke:#000000;stroke-width:1.5;stroke-miterlimit:10;}
	.st15{fill:#BCBEC0;}
	.st16{fill:#7CCFA1;}
</style>
<g
   id="g1089"
   transform="translate(-30.559999,-73.370003)"><g
     id="g138">
			<polygon
   class="st8"
   points="68.79,108.76 67.39,105.97 64.61,104.03 44.8,103.21 42.01,100.42 41.34,85.99 42.01,85.16 44.8,82.37 68.79,82.37 71.58,85.16 71.58,108.76 "
   id="polygon96" />
			<g
   id="g136">
				
					<rect
   x="44.799999"
   y="80.980003"
   transform="rotate(180,56.80655,81.6774)"
   width="24.02"
   height="1.39"
   id="rect98" />
				
					<rect
   x="44.799999"
   y="103.18"
   transform="rotate(180,54.7014,103.87705)"
   width="19.809999"
   height="1.39"
   id="rect100" />
				<rect
   x="33.700001"
   y="92.080002"
   transform="rotate(90,41.33825,92.77725)"
   width="15.28"
   height="1.39"
   id="rect102" />
				
					<rect
   x="61.860001"
   y="94.849998"
   transform="rotate(90,72.27475,95.55195)"
   width="20.83"
   height="1.39"
   id="rect104" />
				<rect
   x="43.400002"
   y="82.370003"
   transform="rotate(180,44.0993,83.0717)"
   width="1.39"
   height="1.39"
   id="rect106" />
				<rect
   x="42.009998"
   y="83.769997"
   transform="rotate(180,42.705,84.4659)"
   width="1.39"
   height="1.39"
   id="rect108" />
				
					<rect
   x="71.580002"
   y="105.97"
   transform="rotate(180,72.27475,106.66545)"
   width="1.39"
   height="1.39"
   id="rect110" />
				
					<rect
   x="71.580002"
   y="107.36"
   transform="rotate(180,72.27475,108.05975)"
   width="1.39"
   height="1.39"
   id="rect112" />
				<rect
   x="70.18"
   y="108.76"
   transform="rotate(180,70.8805,109.454)"
   width="1.39"
   height="1.39"
   id="rect114" />
				
					<rect
   x="68.790001"
   y="108.76"
   transform="rotate(180,69.4862,109.454)"
   width="1.39"
   height="1.39"
   id="rect116" />
				<rect
   x="70.18"
   y="83.769997"
   transform="rotate(-90,70.8805,84.4659)"
   width="1.39"
   height="1.39"
   id="rect118" />
				<rect
   x="68.790001"
   y="82.370003"
   transform="rotate(-90,69.4863,83.0717)"
   width="1.39"
   height="1.39"
   id="rect120" />
				<rect
   x="42.009998"
   y="100.42"
   transform="rotate(90,42.70505,101.11605)"
   width="1.39"
   height="1.39"
   id="rect122" />
				<rect
   x="43.400002"
   y="101.81"
   transform="rotate(90,44.0993,102.5103)"
   width="1.39"
   height="1.39"
   id="rect124" />
				<rect
   x="66"
   y="104.57"
   transform="rotate(90,66.69775,105.27125)"
   width="1.39"
   height="1.39"
   id="rect126" />
				
					<rect
   x="64.610001"
   y="104.57"
   transform="rotate(90,65.30345,105.27125)"
   width="1.39"
   height="1.39"
   id="rect128" />
				
					<rect
   x="64.610001"
   y="103.18"
   transform="rotate(90,65.30345,103.87705)"
   width="1.39"
   height="1.39"
   id="rect130" />
				
					<rect
   x="67.389999"
   y="105.97"
   transform="rotate(90,68.092,106.6655)"
   width="1.39"
   height="1.39"
   id="rect132" />
				
					<rect
   x="67.389999"
   y="107.36"
   transform="rotate(90,68.092,108.0597)"
   width="1.39"
   height="1.39"
   id="rect134" />
			</g>
		</g><g
     id="g444">
			<polygon
   class="st8"
   points="34.74,101.14 36.14,98.35 38.93,96.42 58.74,95.59 61.52,92.8 62.19,78.38 61.52,77.55 58.74,74.76 34.74,74.76 31.95,77.55 31.95,101.14 "
   id="polygon402" />
			<g
   id="g442">
				<rect
   x="34.720001"
   y="73.370003"
   width="24.02"
   height="1.39"
   id="rect404" />
				<rect
   x="38.93"
   y="95.57"
   width="19.809999"
   height="1.39"
   id="rect406" />
				
					<rect
   x="54.549999"
   y="84.470001"
   transform="rotate(90,62.1939,85.163)"
   width="15.28"
   height="1.39"
   id="rect408" />
				
					<rect
   x="20.84"
   y="87.239998"
   transform="rotate(90,31.2574,87.9377)"
   width="20.83"
   height="1.39"
   id="rect410" />
				<rect
   x="58.740002"
   y="74.760002"
   width="1.39"
   height="1.39"
   id="rect412" />
				<rect
   x="60.130001"
   y="76.150002"
   width="1.39"
   height="1.39"
   id="rect414" />
				<rect
   x="30.559999"
   y="98.349998"
   width="1.39"
   height="1.39"
   id="rect416" />
				<rect
   x="30.559999"
   y="99.75"
   width="1.39"
   height="1.39"
   id="rect418" />
				<rect
   x="31.950001"
   y="101.14"
   width="1.39"
   height="1.39"
   id="rect420" />
				<rect
   x="33.349998"
   y="101.14"
   width="1.39"
   height="1.39"
   id="rect422" />
				<rect
   x="31.950001"
   y="76.150002"
   transform="rotate(-90,32.6516,76.8517)"
   width="1.39"
   height="1.39"
   id="rect424" />
				<rect
   x="33.349998"
   y="74.760002"
   transform="rotate(-90,34.04585,75.45745)"
   width="1.39"
   height="1.39"
   id="rect426" />
				<rect
   x="60.130001"
   y="92.800003"
   transform="rotate(90,60.82715,93.50185)"
   width="1.39"
   height="1.39"
   id="rect428" />
				<rect
   x="58.740002"
   y="94.199997"
   transform="rotate(90,59.43285,94.89605)"
   width="1.39"
   height="1.39"
   id="rect430" />
				<rect
   x="36.139999"
   y="96.959999"
   transform="rotate(90,36.8344,97.657)"
   width="1.39"
   height="1.39"
   id="rect432" />
				<rect
   x="37.529999"
   y="96.959999"
   transform="rotate(90,38.2287,97.657)"
   width="1.39"
   height="1.39"
   id="rect434" />
				<rect
   x="37.529999"
   y="95.57"
   transform="rotate(90,38.2287,96.2628)"
   width="1.39"
   height="1.39"
   id="rect436" />
				<rect
   x="34.740002"
   y="98.349998"
   transform="rotate(90,35.44015,99.05125)"
   width="1.39"
   height="1.39"
   id="rect438" />
				<rect
   x="34.740002"
   y="99.75"
   transform="rotate(90,35.44015,100.44555)"
   width="1.39"
   height="1.39"
   id="rect440" />
			</g>
		</g></g>
</svg>
