<?xml version="1.0" encoding="UTF-8" standalone="no"?>
<svg
   xmlns:dc="http://purl.org/dc/elements/1.1/"
   xmlns:cc="http://creativecommons.org/ns#"
   xmlns:rdf="http://www.w3.org/1999/02/22-rdf-syntax-ns#"
   xmlns:svg="http://www.w3.org/2000/svg"
   xmlns="http://www.w3.org/2000/svg"
   version="1.1"
   id="Layer_1"
   x="0px"
   y="0px"
   viewBox="0 0 44.292505 30.699996"
   xml:space="preserve"
   width="44.292503"
   height="30.699997"><metadata
   id="metadata553"><rdf:RDF><cc:Work
       rdf:about=""><dc:format>image/svg+xml</dc:format><dc:type
         rdf:resource="http://purl.org/dc/dcmitype/StillImage" /><dc:title></dc:title></cc:Work></rdf:RDF></metadata><defs
   id="defs551">
	
	
	
	
	
	
	
	
	
	
	
	
	
	
	
	
	
	
	
	
	
	
	
	

		
		
		
		
		
		
		
		
		
		
		
		
	
			
			
			
		</defs>
<style
   type="text/css"
   id="style2">
	.st0{fill:#F1F2F2;stroke:#000000;stroke-width:1.5;stroke-miterlimit:10;}
	.st1{fill:#F2BE48;stroke:#000000;stroke-width:1.5;stroke-miterlimit:10;}
	.st2{fill:#7CCFA1;stroke:#000000;stroke-width:1.5;stroke-miterlimit:10;}
	.st3{fill:#E6E7E8;stroke:#000000;stroke-width:1.5;stroke-miterlimit:10;}
	.st4{fill:none;stroke:#000000;stroke-width:1.5;stroke-miterlimit:10;}
	.st5{font-family:'Charcoal';}
	.st6{font-size:17.3162px;}
	.st7{fill:#D1D3D4;stroke:#000000;stroke-width:1.5;stroke-miterlimit:10;}
	.st8{fill:#F1F2F2;}
	.st9{font-size:12.8981px;}
	.st10{fill:#FFFFFF;stroke:#000000;stroke-width:1.5;stroke-miterlimit:10;}
	.st11{fill:none;stroke:#FFFFFF;stroke-width:1.5;stroke-miterlimit:10;}
	.st12{fill:#939598;}
	.st13{fill:#F2BE48;}
	.st14{fill-rule:evenodd;clip-rule:evenodd;fill:#BCBEC0;stroke:#000000;stroke-width:1.5;stroke-miterlimit:10;}
	.st15{fill:#BCBEC0;}
	.st16{fill:#7CCFA1;}
</style>
<g
   id="g1181"
   transform="translate(-121.24,-77.910004)"><g
     id="g502">
			<rect
   x="130.32001"
   y="77.910004"
   width="8.0500002"
   height="1.54"
   id="rect446" />
			<rect
   x="130.32001"
   y="94.769997"
   width="8.0500002"
   height="1.54"
   id="rect448" />
			<rect
   x="122.77"
   y="107.07"
   width="23.040001"
   height="1.54"
   id="rect450" />
			
				<rect
   x="137.57001"
   y="86.339996"
   transform="rotate(90,142.1841,87.109)"
   width="9.2200003"
   height="1.54"
   id="rect452" />
			
				<rect
   x="121.89"
   y="86.339996"
   transform="rotate(90,126.49825,87.10905)"
   width="9.2200003"
   height="1.54"
   id="rect454" />
			<rect
   x="138.37"
   y="79.449997"
   width="1.54"
   height="1.54"
   id="rect456" />
			<rect
   x="139.91"
   y="80.989998"
   width="1.54"
   height="1.54"
   id="rect458" />
			<rect
   x="127.27"
   y="80.989998"
   transform="rotate(-90,128.03755,81.75865)"
   width="1.54"
   height="1.54"
   id="rect460" />
			<rect
   x="128.81"
   y="79.449997"
   transform="rotate(-90,129.57675,80.21945)"
   width="1.54"
   height="1.54"
   id="rect462" />
			
				<rect
   x="128.81"
   y="93.260002"
   transform="rotate(180,129.57675,94.0289)"
   width="1.54"
   height="1.54"
   id="rect464" />
			<rect
   x="127.27"
   y="91.720001"
   transform="rotate(180,128.0375,92.4897)"
   width="1.54"
   height="1.54"
   id="rect466" />
			<rect
   x="144.27"
   y="99.389999"
   transform="rotate(180,145.0436,100.1555)"
   width="1.54"
   height="1.54"
   id="rect468" />
			<rect
   x="138.37"
   y="96.360001"
   transform="rotate(180,140.5186,97.1261)"
   width="4.3000002"
   height="1.54"
   id="rect470" />
			
				<rect
   x="142.73"
   y="97.849998"
   transform="rotate(180,143.50435,98.61625)"
   width="1.54"
   height="1.54"
   id="rect472" />
			<rect
   x="122.77"
   y="99.389999"
   width="1.54"
   height="1.54"
   id="rect474" />
			<rect
   x="125.92"
   y="96.360001"
   width="4.3000002"
   height="1.54"
   id="rect476" />
			<rect
   x="124.31"
   y="97.849998"
   width="1.54"
   height="1.54"
   id="rect478" />
			
				<rect
   x="139.91"
   y="91.720001"
   transform="rotate(90,140.6752,92.4897)"
   width="1.54"
   height="1.54"
   id="rect480" />
			
				<rect
   x="138.37"
   y="93.260002"
   transform="rotate(90,139.136,94.0289)"
   width="1.54"
   height="1.54"
   id="rect482" />
			<g
   id="g500">
				<rect
   x="121.24"
   y="100.93"
   width="1.54"
   height="1.54"
   id="rect484" />
				<rect
   x="145.81"
   y="100.92"
   width="1.46"
   height="1.48"
   id="rect486" />
				<rect
   x="121.24"
   y="102.47"
   width="1.54"
   height="1.54"
   id="rect488" />
				<rect
   x="145.81"
   y="102.46"
   width="1.46"
   height="1.48"
   id="rect490" />
				<rect
   x="121.24"
   y="104.02"
   width="1.54"
   height="1.54"
   id="rect492" />
				<rect
   x="145.81"
   y="104.01"
   width="1.46"
   height="1.48"
   id="rect494" />
				<rect
   x="121.24"
   y="105.57"
   width="1.54"
   height="1.54"
   id="rect496" />
				<rect
   x="145.81"
   y="105.56"
   width="1.46"
   height="1.48"
   id="rect498" />
			</g>
		</g><rect
     x="147.28"
     y="80.989998"
     width="6.75"
     height="1.51"
     id="rect504" /><rect
     x="147.28"
     y="87.199997"
     width="17.549999"
     height="1.51"
     id="rect506" /><rect
     x="147.28"
     y="93.419998"
     width="17.549999"
     height="1.51"
     id="rect508" /><g
     id="g532">
			<rect
   x="155.07001"
   y="94.93"
   class="st8"
   width="8.9200001"
   height="8.9200001"
   id="rect510" />
			<rect
   x="155.07001"
   y="93.379997"
   width="8.9200001"
   height="1.55"
   id="rect512" />
			<rect
   x="155.07001"
   y="103.84"
   width="8.9200001"
   height="1.55"
   id="rect514" />
			<rect
   x="160.3"
   y="98.610001"
   transform="rotate(90,164.75665,99.38585)"
   width="8.9200001"
   height="1.55"
   id="rect516" />
			<rect
   x="149.83"
   y="98.610001"
   transform="rotate(90,154.28985,99.38585)"
   width="8.9200001"
   height="1.55"
   id="rect518" />
			<g
   id="g530">
				<rect
   x="157.39999"
   y="101.04"
   transform="rotate(-90,158.10695,101.75175)"
   width="1.42"
   height="1.42"
   id="rect520" />
				<rect
   x="158.82001"
   y="99.629997"
   transform="rotate(-90,159.5232,100.3355)"
   width="1.42"
   height="1.42"
   id="rect522" />
				<rect
   x="155.98"
   y="99.629997"
   transform="rotate(-90,156.6907,100.3355)"
   width="1.42"
   height="1.42"
   id="rect524" />
				<rect
   x="160.23"
   y="98.209999"
   transform="rotate(-90,160.93945,98.91925)"
   width="1.42"
   height="1.42"
   id="rect526" />
				<rect
   x="161.64999"
   y="96.790001"
   transform="rotate(-90,162.3558,97.503)"
   width="1.42"
   height="1.42"
   id="rect528" />
			</g>
		</g></g>
</svg>
