<?xml version="1.0" encoding="UTF-8"?>
<svg width="263.66mm" height="201.29mm" version="1.1" viewBox="0 0 263.66 201.29" xmlns="http://www.w3.org/2000/svg" xmlns:cc="http://creativecommons.org/ns#" xmlns:dc="http://purl.org/dc/elements/1.1/" xmlns:rdf="http://www.w3.org/1999/02/22-rdf-syntax-ns#" xmlns:xlink="http://www.w3.org/1999/xlink">
 <defs>
  <clipPath id="clip3">
   <path d="m166 153h748v571.11h-748z"/>
  </clipPath>
  <clipPath id="clip2">
   <rect width="1439" height="725"/>
  </clipPath>
  <g id="surface2619" clip-path="url(#clip2)">
   <g clip-path="url(#clip3)">
    <path d="m895.64 153.53c-0.89453 4.5781-1.9219 9.8633-3.1641 16.23h-32.898v20.648h1.2891l-1.2891 0.5039-0.47656 0.23438v-0.23438h-186.5v16.762l-0.5039 0.0508-1.3672 0.47266h-70.852v16.754l-0.50782 0.0898-0.74218 0.46875h-36.879v20.07l-0.47656 0.23828-1.6719 0.50391h-39.203l-1.6719-0.50391-0.47656-0.23828v-20.07h-36.879l-0.74218-0.46875-0.50782-0.0898v-16.754h-70.852l-1.3633-0.47266-0.50781-0.0508v-16.762h-186.5v0.23438l-0.47265-0.23438-1.293-0.5039h1.293v-20.648h-32.902c-1.2383-6.3672-2.2695-11.652-3.1641-16.23h-18.055v92.266h19.23l0.25 0.50782 0.47266 0.9375v33.215h16.605l0.23828 0.47656 0.5039 1.1094v36.508h16.594l0.21485 0.47656 0.5039 0.89063v36.695h20.273v-0.83203l0.47266 0.83203 0.47656 0.50781h-0.47656v16.84h16.395l0.44531 0.47265 0.50781 0.23047v16.582h36.477l1.1094 0.50391 0.47266 0.56641v19.738h16.449l0.39453 0.47265 0.51172 0.16016v16.684h53.395l1.5039 0.46875 0.50391 0.0781v16.738h110.31v-0.0742l0.47266 0.0742 0.39843 0.5h-0.39843v20.309h16.469l0.37109 0.47266 0.50781 7.6641v157.34l-0.5 0.73828-0.0898 0.47656h-16.758v89.566h0.0937l-0.0937 0.50391-0.47266 1.2344v-1.2344h-15.863v54.879h53.957v-0.0547l0.46875 0.0547 1.2148 0.50781h-1.2148v19.445h42.586v-19.445h-1.2188l1.2188-0.50781 0.46875-0.0547v0.0547h53.957v-54.879h-15.863v1.2344l-0.47266-1.2344-0.0937-0.50391h0.0937v-89.566h-16.758l-0.0898-0.47656-0.5-0.73828v-157.34l0.50781-7.6641 0.37109-0.47266h16.469v-20.309h-0.39844l0.39844-0.5 0.47656-0.0742v0.0742h110.31v-16.738l0.5039-0.0781 1.5078-0.46875h53.395v-16.684l0.50781-0.16016 0.39844-0.47265h16.445v-19.738l0.47266-0.56641 1.1094-0.50391h36.477v-16.582l0.50782-0.23047 0.44531-0.47265h16.395v-16.84h-0.47656l0.47656-0.50781 0.47266-0.83203v0.83203h20.273v-36.695l0.5-0.89063 0.21875-0.47656h16.598v-36.508l0.5-1.1094 0.23828-0.47656h16.605v-33.215l0.47266-0.9375 0.24609-0.50782h19.234v-92.266z" fill="#5c9975"/>
   </g>
  </g>
  <clipPath>
   <rect width="1439" height="669"/>
  </clipPath>
  <clipPath id="clip1-1-5">
   <path d="m0 0h1438.1v724.11h-1438.1z"/>
  </clipPath>
  <mask id="mask0-7-2">
   <g filter="url(#alpha-7-4)">
    <rect width="1438.1" height="724.11" fill-opacity=".3"/>
   </g>
  </mask>
  <filter id="alpha-7-4" x="0" y="0" width="1" height="1">
   <feColorMatrix in="SourceGraphic" values="0 0 0 0 1 0 0 0 0 1 0 0 0 0 1 0 0 0 1 0"/>
  </filter>
 </defs>
 <metadata>
  <rdf:RDF>
   <cc:Work rdf:about="">
    <dc:format>image/svg+xml</dc:format>
    <dc:type rdf:resource="http://purl.org/dc/dcmitype/StillImage"/>
    <dc:title/>
   </cc:Work>
  </rdf:RDF>
 </metadata>
 <g transform="matrix(.86038 0 0 .86038 439.54 -54.498)">
  <g transform="matrix(.35278 0 0 .35278 -71.361 57.736)">
   <g transform="translate(-1341.5,-45.045)" clip-path="url(#clip1-1-5)">
    <use width="100%" height="100%" mask="url(#mask0-7-2)" xlink:href="#surface2619"/>
   </g>
  </g>
 </g>
</svg>
