<?xml version="1.0" encoding="UTF-8"?>
<svg width="9.8969mm" height="9.8422mm" version="1.1" viewBox="0 0 9.8969 9.8422" xmlns="http://www.w3.org/2000/svg" xmlns:cc="http://creativecommons.org/ns#" xmlns:dc="http://purl.org/dc/elements/1.1/" xmlns:rdf="http://www.w3.org/1999/02/22-rdf-syntax-ns#">
 <defs>
  <clipPath>
   <path d="m166 153h748v571.11h-748z"/>
  </clipPath>
  <clipPath id="clip2">
   <rect width="1439" height="725"/>
  </clipPath>
  <g clip-path="url(#clip2)"></g>
  <clipPath>
   <path d="m0 0.67969h1v2.3203h-1z"/>
  </clipPath>
  <clipPath>
   <path d="m6 0.67969h1426v2.3203h-1426z"/>
  </clipPath>
  <clipPath>
   <path d="m0 666h1v2.8398h-1z"/>
  </clipPath>
  <clipPath>
   <path d="m6 666h1426v2.8398h-1426z"/>
  </clipPath>
  <clipPath id="clip5">
   <rect width="1439" height="669"/>
  </clipPath>
  <g clip-path="url(#clip5)"></g>
 </defs>
 <metadata>
  <rdf:RDF>
   <cc:Work rdf:about="">
    <dc:format>image/svg+xml</dc:format>
    <dc:type rdf:resource="http://purl.org/dc/dcmitype/StillImage"/>
    <dc:title/>
   </cc:Work>
  </rdf:RDF>
 </metadata>
 <g transform="translate(-74.796 -74.967)">
  <g transform="matrix(.35278 0 0 .35278 -471.48 37.782)">
   <g transform="translate(1516.7 94.796)" fill-rule="evenodd">
    <path d="m35.152 19.109c-0.03906 0.26562-0.10547 0.45703-0.09766 0.64844 0.04687 1.25 0.36719 2.4297 0.94922 3.5352 1.5234 2.9141 4.0664 4.1758 7.2188 4.3477 0.89453 0.05078 1.3125 0.53516 1.543 1.2344 0.16797 0.49219 0.26562 1.0664 0.18359 1.5664-0.25781 1.5938-0.59766 3.1758-0.94531 4.7539-0.15625 0.71094-0.40625 1.4062-0.62109 2.1406 1.6797 0.48828 3.2773 0.50391 4.918 0-0.04687-0.20703-0.08594-0.36328-0.125-0.51953-0.44531-1.7656-0.95312-3.5195-1.3047-5.3047-0.16016-0.80078-0.10938-1.6797 0.03125-2.4922 0.16016-0.92188 0.70703-1.2812 1.6133-1.3594 0.26953-0.02344 0.53125-0.05859 0.79688-0.08984 2.582-0.33203 4.6797-1.457 6.0703-3.7227 0.77734-1.2656 1.2266-2.6367 1.2656-4.1289 0.0039-0.16797-0.05859-0.36328-0.15625-0.49219-0.03906-0.05078-0.28516 0.04297-0.42578 0.10547-0.35156 0.15234-0.68359 0.41016-1.0508 0.46875-1.2109 0.19141-2.4258 0.42188-3.6445 0.44531-2.0508 0.03516-4.0469 0.09766-5.5117 1.8828-1.0938-1.2695-2.4609-1.7812-4.0234-1.8359-0.69531-0.02344-1.3984 0.03906-2.0898-0.03516-1.0938-0.12109-2.1914-0.28906-3.2695-0.51172-0.4375-0.09375-0.82812-0.39062-1.3242-0.63672m10.645 19.398c-7.9727-0.070312-14.332-6.6016-13.977-14.59 0.3125-7.1406 6.1367-13.305 14.074-13.309 7.8789-0.0078 14.047 6.3945 13.965 14.301-0.07422 7.4141-6.5547 13.676-14.062 13.598"/>
    <path d="m35.152 19.109c0.49609 0.24609 0.88672 0.54297 1.3242 0.63672 1.0781 0.22266 2.1758 0.39062 3.2695 0.51172 0.69141 0.07422 1.3945 0.01172 2.0898 0.03516 1.5625 0.05469 2.9297 0.56641 4.0234 1.8359 1.4648-1.7852 3.4609-1.8477 5.5117-1.8828 1.2188-0.02344 2.4336-0.25391 3.6445-0.44531 0.36719-0.05859 0.69922-0.31641 1.0508-0.46875 0.14062-0.0625 0.38672-0.15625 0.42578-0.10547 0.09766 0.12891 0.16016 0.32422 0.15625 0.49219-0.03906 1.4922-0.48828 2.8633-1.2656 4.1289-1.3906 2.2656-3.4883 3.3906-6.0703 3.7227-0.26562 0.03125-0.52734 0.06641-0.79688 0.08984-0.90625 0.07813-1.4531 0.4375-1.6133 1.3594-0.14062 0.8125-0.19141 1.6914-0.03125 2.4922 0.35156 1.7852 0.85938 3.5391 1.3047 5.3047 0.03906 0.15625 0.07813 0.3125 0.125 0.51953-1.6406 0.50391-3.2383 0.48828-4.918 0 0.21484-0.73438 0.46484-1.4297 0.62109-2.1406 0.34766-1.5781 0.6875-3.1602 0.94531-4.7539 0.08203-0.5-0.01563-1.0742-0.18359-1.5664-0.23047-0.69922-0.64844-1.1836-1.543-1.2344-3.1523-0.17188-5.6953-1.4336-7.2188-4.3477-0.58203-1.1055-0.90234-2.2852-0.94922-3.5352-0.0078-0.19141 0.05859-0.38281 0.09766-0.64844" fill="#fff"/>
    <path d="m35.152 19.109c-0.03906 0.26562-0.10547 0.45703-0.09766 0.64844 0.04687 1.25 0.36719 2.4297 0.94922 3.5352 1.5234 2.9141 4.0664 4.1758 7.2188 4.3477 0.89453 0.05078 1.3125 0.53516 1.543 1.2344 0.16797 0.49219 0.26562 1.0664 0.18359 1.5664-0.25781 1.5938-0.59766 3.1758-0.94531 4.7539-0.15625 0.71094-0.40625 1.4062-0.62109 2.1406 1.6797 0.48828 3.2773 0.50391 4.918 0-0.04687-0.20703-0.08594-0.36328-0.125-0.51953-0.44531-1.7656-0.95312-3.5195-1.3047-5.3047-0.16016-0.80078-0.10938-1.6797 0.03125-2.4922 0.16016-0.92188 0.70703-1.2812 1.6133-1.3594 0.26953-0.02344 0.53125-0.05859 0.79688-0.08984 2.582-0.33203 4.6797-1.457 6.0703-3.7227 0.77734-1.2656 1.2266-2.6367 1.2656-4.1289 0.0039-0.16797-0.05859-0.36328-0.15625-0.49219-0.03906-0.05078-0.28516 0.04297-0.42578 0.10547-0.35156 0.15234-0.68359 0.41016-1.0508 0.46875-1.2109 0.19141-2.4258 0.42188-3.6445 0.44531-2.0508 0.03516-4.0469 0.09766-5.5117 1.8828-1.0938-1.2695-2.4609-1.7812-4.0234-1.8359-0.69531-0.02344-1.3984 0.03906-2.0898-0.03516-1.0938-0.12109-2.1914-0.28906-3.2695-0.51172-0.4375-0.09375-0.82812-0.39062-1.3242-0.63672m10.645 19.398c-7.9727-0.070312-14.332-6.6016-13.977-14.59 0.3125-7.1406 6.1367-13.305 14.074-13.309 7.8789-0.0078 14.047 6.3945 13.965 14.301-0.07422 7.4141-6.5547 13.676-14.062 13.598"/>
    <path d="m35.152 19.109c0.49609 0.24609 0.88672 0.54297 1.3242 0.63672 1.0781 0.22266 2.1758 0.39062 3.2695 0.51172 0.69141 0.07422 1.3945 0.01172 2.0898 0.03516 1.5625 0.05469 2.9297 0.56641 4.0234 1.8359 1.4648-1.7852 3.4609-1.8477 5.5117-1.8828 1.2188-0.02344 2.4336-0.25391 3.6445-0.44531 0.36719-0.05859 0.69922-0.31641 1.0508-0.46875 0.14062-0.0625 0.38672-0.15625 0.42578-0.10547 0.09766 0.12891 0.16016 0.32422 0.15625 0.49219-0.03906 1.4922-0.48828 2.8633-1.2656 4.1289-1.3906 2.2656-3.4883 3.3906-6.0703 3.7227-0.26562 0.03125-0.52734 0.06641-0.79688 0.08984-0.90625 0.07813-1.4531 0.4375-1.6133 1.3594-0.14062 0.8125-0.19141 1.6914-0.03125 2.4922 0.35156 1.7852 0.85938 3.5391 1.3047 5.3047 0.03906 0.15625 0.07813 0.3125 0.125 0.51953-1.6406 0.50391-3.2383 0.48828-4.918 0 0.21484-0.73438 0.46484-1.4297 0.62109-2.1406 0.34766-1.5781 0.6875-3.1602 0.94531-4.7539 0.08203-0.5-0.01563-1.0742-0.18359-1.5664-0.23047-0.69922-0.64844-1.1836-1.543-1.2344-3.1523-0.17188-5.6953-1.4336-7.2188-4.3477-0.58203-1.1055-0.90234-2.2852-0.94922-3.5352-0.0078-0.19141 0.05859-0.38281 0.09766-0.64844" fill="#fff"/>
   </g>
  </g>
 </g>
</svg>
