<?xml version="1.0" encoding="UTF-8" standalone="no"?>
<svg
   xmlns:dc="http://purl.org/dc/elements/1.1/"
   xmlns:cc="http://creativecommons.org/ns#"
   xmlns:rdf="http://www.w3.org/1999/02/22-rdf-syntax-ns#"
   xmlns:svg="http://www.w3.org/2000/svg"
   xmlns="http://www.w3.org/2000/svg"
   xmlns:sodipodi="http://sodipodi.sourceforge.net/DTD/sodipodi-0.dtd"
   xmlns:inkscape="http://www.inkscape.org/namespaces/inkscape"
   width="22.425mm"
   height="27.745mm"
   version="1.1"
   viewBox="0 0 22.425 27.745"
   id="svg116"
   sodipodi:docname="Docs.svg"
   inkscape:version="1.0.1 (3bc2e813f5, 2020-09-07)">
  <sodipodi:namedview
     pagecolor="#ffffff"
     bordercolor="#666666"
     borderopacity="1"
     objecttolerance="10"
     gridtolerance="10"
     guidetolerance="10"
     inkscape:pageopacity="0"
     inkscape:pageshadow="2"
     inkscape:window-width="880"
     inkscape:window-height="736"
     id="namedview118"
     showgrid="false"
     inkscape:zoom="1.790306"
     inkscape:cx="-0.12760443"
     inkscape:cy="84.543013"
     inkscape:window-x="480"
     inkscape:window-y="0"
     inkscape:window-maximized="0"
     inkscape:current-layer="svg116" />
  <defs
     id="defs32">
    <clipPath
       id="clipPath4">
      <path
         d="m166 153h748v571.11h-748z"
         id="path2" />
    </clipPath>
    <clipPath
       id="clip2">
      <rect
         width="1439"
         height="725"
         id="rect6" />
    </clipPath>
    <g
       clip-path="url(#clip2)"
       id="g9" />
    <clipPath
       id="clipPath13">
      <path
         d="m0 0.67969h1v2.3203h-1z"
         id="path11" />
    </clipPath>
    <clipPath
       id="clipPath17">
      <path
         d="m6 0.67969h1426v2.3203h-1426z"
         id="path15" />
    </clipPath>
    <clipPath
       id="clipPath21">
      <path
         d="m0 666h1v2.8398h-1z"
         id="path19" />
    </clipPath>
    <clipPath
       id="clipPath25">
      <path
         d="m6 666h1426v2.8398h-1426z"
         id="path23" />
    </clipPath>
    <clipPath
       id="clip5">
      <rect
         width="1439"
         height="669"
         id="rect27" />
    </clipPath>
    <g
       clip-path="url(#clip5)"
       id="g30" />
    <clipPath
       clipPathUnits="userSpaceOnUse"
       id="clipPath159">
      <rect
         style="fill:#ffff00;fill-opacity:0;stroke-width:0.264583"
         id="rect161"
         width="57.035679"
         height="72.483139"
         x="-129.32338"
         y="121.40193" />
    </clipPath>
  </defs>
  <metadata
     id="metadata34">
    <rdf:RDF>
      <cc:Work
         rdf:about="">
        <dc:format>image/svg+xml</dc:format>
        <dc:type
           rdf:resource="http://purl.org/dc/dcmitype/StillImage" />
        <dc:title />
      </cc:Work>
    </rdf:RDF>
  </metadata>
  <g
     transform="translate(-14.556 -63.075)"
     id="g114">
    <g
       transform="matrix(.35278 0 0 .35278 -471.48 37.782)"
       id="g112">
      <path
         d="m1439.4 148.43h-59.746v-33.672h59.746z"
         fill="#fff"
         id="path36" />
      <path
         d="m1414 130.54-1.8477 0.375 1.1016 2.4844 9.5547 9.5586h1.9101l9.5586-9.5586 0.4414-2.5859z"
         fill="#f0bd47"
         id="path38"
         style="fill:#31e7ff;fill-opacity:1" />
      <path
         d="m1434.2 129.58h-21.023v-33.785h21.023z"
         fill="#fff"
         id="path40" />
      <g
         id="g60">
        <path
           d="m1441.3 150.34h-63.566v-37.496h35.023v1.9141h-33.113v33.672h59.746v-33.672h-4.1993v-1.9141h6.1094z"
           id="path42" />
        <path
           d="m1436.1 130.91h-1.9102v-44.898h-21.023v44.898h-1.9141v-46.809h24.848z"
           id="path44" />
        <path
           d="m1436.1 131.49h-24.848v-1.9102h24.848z"
           id="path46" />
        <path
           d="m1407.1 101.99h-1.9101v-17.891h7.0312v1.9102h-5.1211z"
           id="path48" />
        <path
           d="m1431.1 86.012h-14.773v-12.406h1.9101v10.496h10.949v-10.496h1.9141z"
           id="path50" />
        <path
           d="m1420.5 130.91h-1.9141v-36.074h1.9141z"
           id="path52" />
        <path
           d="m1428.9 130.91h-1.9101v-36.074h1.9101z"
           id="path54" />
        <path
           d="m1413.2 93.879h21.023v-7.8672h-21.023zm22.934 1.9141h-24.848v-11.691h24.848z"
           id="path56" />
        <path
           d="m1429.2 73.606h-10.918v-1.9102h10.918z"
           id="path58" />
      </g>
      <path
         d="m1429.2 84.102h-10.918v-10.496h10.918z"
         fill="#f0bd47"
         id="path62"
         style="fill:#31e7ff;fill-opacity:1" />
      <g
         id="g102">
        <path
           d="m1385.8 127.19h6.7422v-6.7422h-6.7422zm8.6524 1.9102h-10.562v-10.562h10.562z"
           id="path64" />
        <path
           d="m1403.8 121.86h-7.0937v-1.9141h7.0937z"
           id="path66" />
        <path
           d="m1412.1 127.69h-15.383v-1.9141h15.383z"
           id="path68" />
        <path
           d="m1385.8 141.38h6.7422v-6.7422h-6.7422zm8.6524 1.9102h-10.562v-10.562h10.562z"
           id="path70" />
        <path
           d="m1403.8 136.04h-7.0937v-1.9102h7.0937z"
           id="path72" />
        <path
           d="m1412.1 141.88h-15.383v-1.9102h15.383z"
           id="path74" />
        <path
           d="m1413.2 133.39h-1.9141v-1.9102h1.9141z"
           id="path76" />
        <path
           d="m1415.1 135.3h-1.9101v-1.9102h1.9101z"
           id="path78" />
        <path
           d="m1417 137.22h-1.9102v-1.9102h1.9102z"
           id="path80" />
        <path
           d="m1418.9 139.13h-1.9101v-1.9102h1.9101z"
           id="path82" />
        <path
           d="m1420.9 141.04h-1.9141v-1.9102h1.9141z"
           id="path84" />
        <path
           d="m1422.8 142.95h-1.9102v-1.9102h1.9102z"
           id="path86" />
        <path
           d="m1424.7 144.86h-1.9101v-1.9102h1.9101z"
           id="path88" />
        <path
           d="m1434.2 133.39h1.9102v-1.9102h-1.9102z"
           id="path90" />
        <path
           d="m1432.3 135.3h1.9141v-1.9102h-1.9141z"
           id="path92" />
        <path
           d="m1430.4 137.22h1.9141v-1.9102h-1.9141z"
           id="path94" />
        <path
           d="m1428.5 139.13h1.9102v-1.9102h-1.9102z"
           id="path96" />
        <path
           d="m1426.6 141.04h1.9101v-1.9102h-1.9101z"
           id="path98" />
        <path
           d="m1424.7 142.95h1.9141v-1.9102h-1.9141z"
           id="path100" />
      </g>
      <g
         fill="#7acfa1"
         id="g110">
        <path
           d="m1434.2 93.879h-21.023v-7.8672h21.023z"
           id="path104"
           style="fill:#ccd4df;fill-opacity:1" />
        <path
           d="m1392.5 127.19h-6.7422v-6.7422h6.7422z"
           id="path106"
           style="fill:#ccd4df;fill-opacity:1" />
        <path
           d="m1392.5 141.38h-6.7422v-6.7422h6.7422z"
           id="path108"
           style="fill:#ccd4df;fill-opacity:1" />
      </g>
    </g>
  </g>
</svg>
