<?xml version="1.0" encoding="UTF-8"?>
<svg width="22.425mm" height="27.745mm" version="1.1" viewBox="0 0 22.425 27.745" xmlns="http://www.w3.org/2000/svg" xmlns:cc="http://creativecommons.org/ns#" xmlns:dc="http://purl.org/dc/elements/1.1/" xmlns:rdf="http://www.w3.org/1999/02/22-rdf-syntax-ns#">
 <defs>
  <clipPath>
   <path d="m166 153h748v571.11h-748z"/>
  </clipPath>
  <clipPath id="clip2">
   <rect width="1439" height="725"/>
  </clipPath>
  <g clip-path="url(#clip2)"></g>
  <clipPath>
   <path d="m0 0.67969h1v2.3203h-1z"/>
  </clipPath>
  <clipPath>
   <path d="m6 0.67969h1426v2.3203h-1426z"/>
  </clipPath>
  <clipPath>
   <path d="m0 666h1v2.8398h-1z"/>
  </clipPath>
  <clipPath>
   <path d="m6 666h1426v2.8398h-1426z"/>
  </clipPath>
  <clipPath id="clip5">
   <rect width="1439" height="669"/>
  </clipPath>
  <g clip-path="url(#clip5)"></g>
 </defs>
 <metadata>
  <rdf:RDF>
   <cc:Work rdf:about="">
    <dc:format>image/svg+xml</dc:format>
    <dc:type rdf:resource="http://purl.org/dc/dcmitype/StillImage"/>
    <dc:title/>
   </cc:Work>
  </rdf:RDF>
 </metadata>
 <g transform="translate(-14.556 -63.075)">
  <g transform="matrix(.35278 0 0 .35278 -471.48 37.782)">
   <path d="m1439.4 148.43h-59.746v-33.672h59.746z" fill="#fff"/>
   <path d="m1414 130.54-1.8477 0.375 1.1016 2.4844 9.5547 9.5586h1.9101l9.5586-9.5586 0.4414-2.5859z" fill="#f0bd47"/>
   <path d="m1434.2 129.58h-21.023v-33.785h21.023z" fill="#fff"/>
   <g>
    <path d="m1441.3 150.34h-63.566v-37.496h35.023v1.9141h-33.113v33.672h59.746v-33.672h-4.1993v-1.9141h6.1094z"/>
    <path d="m1436.1 130.91h-1.9102v-44.898h-21.023v44.898h-1.9141v-46.809h24.848z"/>
    <path d="m1436.1 131.49h-24.848v-1.9102h24.848z"/>
    <path d="m1407.1 101.99h-1.9101v-17.891h7.0312v1.9102h-5.1211z"/>
    <path d="m1431.1 86.012h-14.773v-12.406h1.9101v10.496h10.949v-10.496h1.9141z"/>
    <path d="m1420.5 130.91h-1.9141v-36.074h1.9141z"/>
    <path d="m1428.9 130.91h-1.9101v-36.074h1.9101z"/>
    <path d="m1413.2 93.879h21.023v-7.8672h-21.023zm22.934 1.9141h-24.848v-11.691h24.848z"/>
    <path d="m1429.2 73.606h-10.918v-1.9102h10.918z"/>
   </g>
   <path d="m1429.2 84.102h-10.918v-10.496h10.918z" fill="#f0bd47"/>
   <g>
    <path d="m1385.8 127.19h6.7422v-6.7422h-6.7422zm8.6524 1.9102h-10.562v-10.562h10.562z"/>
    <path d="m1403.8 121.86h-7.0937v-1.9141h7.0937z"/>
    <path d="m1412.1 127.69h-15.383v-1.9141h15.383z"/>
    <path d="m1385.8 141.38h6.7422v-6.7422h-6.7422zm8.6524 1.9102h-10.562v-10.562h10.562z"/>
    <path d="m1403.8 136.04h-7.0937v-1.9102h7.0937z"/>
    <path d="m1412.1 141.88h-15.383v-1.9102h15.383z"/>
    <path d="m1413.2 133.39h-1.9141v-1.9102h1.9141z"/>
    <path d="m1415.1 135.3h-1.9101v-1.9102h1.9101z"/>
    <path d="m1417 137.22h-1.9102v-1.9102h1.9102z"/>
    <path d="m1418.9 139.13h-1.9101v-1.9102h1.9101z"/>
    <path d="m1420.9 141.04h-1.9141v-1.9102h1.9141z"/>
    <path d="m1422.8 142.95h-1.9102v-1.9102h1.9102z"/>
    <path d="m1424.7 144.86h-1.9101v-1.9102h1.9101z"/>
    <path d="m1434.2 133.39h1.9102v-1.9102h-1.9102z"/>
    <path d="m1432.3 135.3h1.9141v-1.9102h-1.9141z"/>
    <path d="m1430.4 137.22h1.9141v-1.9102h-1.9141z"/>
    <path d="m1428.5 139.13h1.9102v-1.9102h-1.9102z"/>
    <path d="m1426.6 141.04h1.9101v-1.9102h-1.9101z"/>
    <path d="m1424.7 142.95h1.9141v-1.9102h-1.9141z"/>
   </g>
   <g fill="#7acfa1">
    <path d="m1434.2 93.879h-21.023v-7.8672h21.023z"/>
    <path d="m1392.5 127.19h-6.7422v-6.7422h6.7422z"/>
    <path d="m1392.5 141.38h-6.7422v-6.7422h6.7422z"/>
   </g>
  </g>
 </g>
</svg>
