<?xml version="1.0" encoding="UTF-8" standalone="no"?>
<svg
   xmlns:dc="http://purl.org/dc/elements/1.1/"
   xmlns:cc="http://creativecommons.org/ns#"
   xmlns:rdf="http://www.w3.org/1999/02/22-rdf-syntax-ns#"
   xmlns:svg="http://www.w3.org/2000/svg"
   xmlns="http://www.w3.org/2000/svg"
   version="1.1"
   id="Layer_1"
   x="0px"
   y="0px"
   viewBox="0 0 92.970002 96.191998"
   xml:space="preserve"
   width="92.970001"
   height="96.192001"><metadata
   id="metadata379"><rdf:RDF><cc:Work
       rdf:about=""><dc:format>image/svg+xml</dc:format><dc:type
         rdf:resource="http://purl.org/dc/dcmitype/StillImage" /><dc:title></dc:title></cc:Work></rdf:RDF></metadata><defs
   id="defs377">
	
	
	
	
</defs>
<style
   type="text/css"
   id="style2">
	.st0{fill:#F1F2F2;stroke:#000000;stroke-width:1.5;stroke-miterlimit:10;}
	.st1{fill:#F2BE48;stroke:#000000;stroke-width:1.5;stroke-miterlimit:10;}
	.st2{fill:#7CCFA1;stroke:#000000;stroke-width:1.5;stroke-miterlimit:10;}
	.st3{fill:#E6E7E8;stroke:#000000;stroke-width:1.5;stroke-miterlimit:10;}
	.st4{fill:none;stroke:#000000;stroke-width:1.5;stroke-miterlimit:10;}
	.st5{fill:#D1D3D4;stroke:#000000;stroke-width:1.5;stroke-miterlimit:10;}
	.st6{fill:#F1F2F2;}
	.st7{fill:#FFFFFF;stroke:#000000;stroke-width:1.5;stroke-miterlimit:10;}
	.st8{fill-rule:evenodd;clip-rule:evenodd;fill:#BCBEC0;stroke:#000000;stroke-width:1.5;stroke-miterlimit:10;}
	.st9{fill:#F2BE48;}
	.st10{clip-path:url(#SVGID_2_);}
	.st11{fill:#B4F263;}
	.st12{fill:#F27548;}
	.st13{fill:#BCBEC0;stroke:#000000;stroke-width:1.5;stroke-miterlimit:10;}
	.st14{clip-path:url(#SVGID_4_);}
	.st15{fill:#F27548;stroke:#000000;stroke-width:1.5;stroke-miterlimit:10;}
	.st16{fill:#B4F263;stroke:#000000;stroke-width:1.5;stroke-miterlimit:10;}
	.st17{font-family:'Charcoal';}
	.st18{font-size:26.9422px;}
	.st19{font-size:14.3538px;}
</style>
<g
   id="g346"
   transform="translate(-37.259998,-57.738)">
		<polygon
   class="st12"
   points="40.46,144.31 40.46,150.72 130.23,150.72 88.55,67.36 85.34,60.95 82.14,60.95 "
   id="polygon10" />
		<g
   id="g14">
			<rect
   x="85.339996"
   y="64.160004"
   transform="rotate(180,86.9472,65.7609)"
   width="3.21"
   height="3.21"
   id="rect12" />
		</g>
		<g
   id="g18">
			<rect
   x="82.139999"
   y="57.75"
   transform="rotate(180,83.74125,59.349)"
   width="3.21"
   height="3.21"
   id="rect16" />
		</g>
		<g
   id="g22">
			<rect
   x="85.339996"
   y="60.950001"
   transform="rotate(180,86.9472,62.55495)"
   width="3.21"
   height="3.21"
   id="rect20" />
		</g>
		<g
   id="g26">
			<rect
   x="88.550003"
   y="70.57"
   transform="rotate(180,90.15315,72.1728)"
   width="3.21"
   height="3.21"
   id="rect24" />
		</g>
		<g
   id="g30">
			<rect
   x="88.550003"
   y="67.360001"
   transform="rotate(180,90.15315,68.96685)"
   width="3.21"
   height="3.21"
   id="rect28" />
		</g>
		<g
   id="g34">
			<rect
   x="91.760002"
   y="76.980003"
   transform="rotate(180,93.3591,78.5847)"
   width="3.21"
   height="3.21"
   id="rect32" />
		</g>
		<g
   id="g38">
			<rect
   x="91.760002"
   y="73.779999"
   transform="rotate(180,93.3591,75.37875)"
   width="3.21"
   height="3.21"
   id="rect36" />
		</g>
		<g
   id="g42">
			<rect
   x="94.959999"
   y="83.389999"
   transform="rotate(180,96.56505,84.9966)"
   width="3.21"
   height="3.21"
   id="rect40" />
		</g>
		<g
   id="g46">
			<rect
   x="94.959999"
   y="80.190002"
   transform="rotate(180,96.56505,81.79065)"
   width="3.21"
   height="3.21"
   id="rect44" />
		</g>
		<g
   id="g50">
			<rect
   x="98.169998"
   y="89.809998"
   transform="rotate(180,99.771,91.4085)"
   width="3.21"
   height="3.21"
   id="rect48" />
		</g>
		<g
   id="g54">
			<rect
   x="98.169998"
   y="86.599998"
   transform="rotate(180,99.771,88.20255)"
   width="3.21"
   height="3.21"
   id="rect52" />
		</g>
		<g
   id="g58">
			
				<rect
   x="101.37"
   y="96.220001"
   transform="rotate(180,102.97695,97.8204)"
   width="3.21"
   height="3.21"
   id="rect56" />
		</g>
		<g
   id="g62">
			
				<rect
   x="101.37"
   y="93.010002"
   transform="rotate(180,102.97695,94.61445)"
   width="3.21"
   height="3.21"
   id="rect60" />
		</g>
		<g
   id="g66">
			
				<rect
   x="104.58"
   y="102.63"
   transform="rotate(180,106.1829,104.2323)"
   width="3.21"
   height="3.21"
   id="rect64" />
		</g>
		<g
   id="g70">
			
				<rect
   x="104.58"
   y="99.419998"
   transform="rotate(180,106.1829,101.02635)"
   width="3.21"
   height="3.21"
   id="rect68" />
		</g>
		<g
   id="g74">
			
				<rect
   x="107.79"
   y="109.04"
   transform="rotate(180,109.38885,110.6442)"
   width="3.21"
   height="3.21"
   id="rect72" />
		</g>
		<g
   id="g78">
			
				<rect
   x="107.79"
   y="105.84"
   transform="rotate(180,109.38885,107.43825)"
   width="3.21"
   height="3.21"
   id="rect76" />
		</g>
		<g
   id="g82">
			
				<rect
   x="110.99"
   y="115.45"
   transform="rotate(180,112.5948,117.0561)"
   width="3.21"
   height="3.21"
   id="rect80" />
		</g>
		<g
   id="g86">
			
				<rect
   x="110.99"
   y="112.25"
   transform="rotate(180,112.5948,113.85015)"
   width="3.21"
   height="3.21"
   id="rect84" />
		</g>
		<g
   id="g90">
			<rect
   x="114.2"
   y="121.86"
   transform="rotate(180,115.80075,123.468)"
   width="3.21"
   height="3.21"
   id="rect88" />
		</g>
		<g
   id="g94">
			
				<rect
   x="114.2"
   y="118.66"
   transform="rotate(180,115.80075,120.26205)"
   width="3.21"
   height="3.21"
   id="rect92" />
		</g>
		<g
   id="g98">
			
				<rect
   x="117.4"
   y="128.28"
   transform="rotate(180,119.0067,129.8799)"
   width="3.21"
   height="3.21"
   id="rect96" />
		</g>
		<g
   id="g102">
			
				<rect
   x="117.4"
   y="125.07"
   transform="rotate(180,119.0067,126.67395)"
   width="3.21"
   height="3.21"
   id="rect100" />
		</g>
		<g
   id="g106">
			
				<rect
   x="120.61"
   y="134.69"
   transform="rotate(180,122.21265,136.2918)"
   width="3.21"
   height="3.21"
   id="rect104" />
		</g>
		<g
   id="g110">
			
				<rect
   x="120.61"
   y="131.48"
   transform="rotate(180,122.21265,133.08585)"
   width="3.21"
   height="3.21"
   id="rect108" />
		</g>
		<g
   id="g114">
			
				<rect
   x="123.82"
   y="141.10001"
   transform="rotate(180,125.4186,142.7037)"
   width="3.21"
   height="3.21"
   id="rect112" />
		</g>
		<g
   id="g118">
			
				<rect
   x="123.82"
   y="137.89"
   transform="rotate(180,125.4186,139.49775)"
   width="3.21"
   height="3.21"
   id="rect116" />
		</g>
		<g
   id="g122">
			
				<rect
   x="127.02"
   y="147.50999"
   transform="rotate(180,128.62455,149.1156)"
   width="3.21"
   height="3.21"
   id="rect120" />
		</g>
		<g
   id="g126">
			
				<rect
   x="127.02"
   y="144.31"
   transform="rotate(180,128.62455,145.90965)"
   width="3.21"
   height="3.21"
   id="rect124" />
		</g>
		<g
   id="g130">
			<rect
   x="78.93"
   y="64.160004"
   width="3.21"
   height="3.21"
   id="rect128" />
		</g>
		<g
   id="g134">
			<rect
   x="78.93"
   y="60.950001"
   width="3.21"
   height="3.21"
   id="rect132" />
		</g>
		<g
   id="g138">
			<rect
   x="75.730003"
   y="70.57"
   width="3.21"
   height="3.21"
   id="rect136" />
		</g>
		<g
   id="g142">
			<rect
   x="75.730003"
   y="67.360001"
   width="3.21"
   height="3.21"
   id="rect140" />
		</g>
		<g
   id="g146">
			<rect
   x="72.519997"
   y="76.980003"
   width="3.21"
   height="3.21"
   id="rect144" />
		</g>
		<g
   id="g150">
			<rect
   x="72.519997"
   y="73.779999"
   width="3.21"
   height="3.21"
   id="rect148" />
		</g>
		<g
   id="g154">
			<rect
   x="69.309998"
   y="83.389999"
   width="3.21"
   height="3.21"
   id="rect152" />
		</g>
		<g
   id="g158">
			<rect
   x="69.309998"
   y="80.190002"
   width="3.21"
   height="3.21"
   id="rect156" />
		</g>
		<g
   id="g162">
			<rect
   x="66.110001"
   y="89.809998"
   width="3.21"
   height="3.21"
   id="rect160" />
		</g>
		<g
   id="g166">
			<rect
   x="66.110001"
   y="86.599998"
   width="3.21"
   height="3.21"
   id="rect164" />
		</g>
		<g
   id="g170">
			<rect
   x="62.900002"
   y="96.220001"
   width="3.21"
   height="3.21"
   id="rect168" />
		</g>
		<g
   id="g174">
			<rect
   x="62.900002"
   y="93.010002"
   width="3.21"
   height="3.21"
   id="rect172" />
		</g>
		<g
   id="g178">
			<rect
   x="59.700001"
   y="102.63"
   width="3.21"
   height="3.21"
   id="rect176" />
		</g>
		<g
   id="g182">
			<rect
   x="59.700001"
   y="99.419998"
   width="3.21"
   height="3.21"
   id="rect180" />
		</g>
		<g
   id="g186">
			<rect
   x="56.490002"
   y="109.04"
   width="3.21"
   height="3.21"
   id="rect184" />
		</g>
		<g
   id="g190">
			<rect
   x="56.490002"
   y="105.84"
   width="3.21"
   height="3.21"
   id="rect188" />
		</g>
		<g
   id="g194">
			<rect
   x="53.279999"
   y="115.45"
   width="3.21"
   height="3.21"
   id="rect192" />
		</g>
		<g
   id="g198">
			<rect
   x="53.279999"
   y="112.25"
   width="3.21"
   height="3.21"
   id="rect196" />
		</g>
		<g
   id="g202">
			<rect
   x="50.080002"
   y="121.86"
   width="3.21"
   height="3.21"
   id="rect200" />
		</g>
		<g
   id="g206">
			<rect
   x="50.080002"
   y="118.66"
   width="3.21"
   height="3.21"
   id="rect204" />
		</g>
		<g
   id="g210">
			<rect
   x="46.869999"
   y="128.28"
   width="3.21"
   height="3.21"
   id="rect208" />
		</g>
		<g
   id="g214">
			<rect
   x="46.869999"
   y="125.07"
   width="3.21"
   height="3.21"
   id="rect212" />
		</g>
		<g
   id="g218">
			<rect
   x="43.669998"
   y="134.69"
   width="3.21"
   height="3.21"
   id="rect216" />
		</g>
		<g
   id="g222">
			<rect
   x="43.669998"
   y="131.48"
   width="3.21"
   height="3.21"
   id="rect220" />
		</g>
		<g
   id="g226">
			<rect
   x="40.459999"
   y="141.10001"
   width="3.21"
   height="3.21"
   id="rect224" />
		</g>
		<g
   id="g230">
			<rect
   x="40.459999"
   y="137.89"
   width="3.21"
   height="3.21"
   id="rect228" />
		</g>
		<g
   id="g234">
			<rect
   x="37.259998"
   y="147.50999"
   width="3.21"
   height="3.21"
   id="rect232" />
		</g>
		<g
   id="g238">
			<rect
   x="40.459999"
   y="150.72"
   width="86.559998"
   height="3.21"
   id="rect236" />
		</g>
		<g
   id="g242">
			<rect
   x="37.259998"
   y="144.31"
   width="3.21"
   height="3.21"
   id="rect240" />
		</g>
		<g
   id="g344">
			<g
   id="g246">
				
					<rect
   x="77.330002"
   y="107.34"
   transform="rotate(180,78.93235,108.9416)"
   width="3.21"
   height="3.21"
   id="rect244" />
			</g>
			<g
   id="g250">
				
					<rect
   x="77.330002"
   y="110.54"
   transform="rotate(180,78.93235,112.14755)"
   width="3.21"
   height="3.21"
   id="rect248" />
			</g>
			<g
   id="g254">
				
					<rect
   x="77.330002"
   y="113.75"
   transform="rotate(180,78.93235,115.3535)"
   width="3.21"
   height="3.21"
   id="rect252" />
			</g>
			<g
   id="g258">
				<rect
   x="86.949997"
   y="107.34"
   width="3.21"
   height="3.21"
   id="rect256" />
			</g>
			<g
   id="g262">
				
					<rect
   x="77.330002"
   y="104.13"
   transform="rotate(180,78.93235,105.73565)"
   width="3.21"
   height="3.21"
   id="rect260" />
			</g>
			<g
   id="g266">
				<rect
   x="86.949997"
   y="104.13"
   width="3.21"
   height="3.21"
   id="rect264" />
			</g>
			<g
   id="g270">
				
					<rect
   x="77.330002"
   y="100.93"
   transform="rotate(180,78.93235,102.5297)"
   width="3.21"
   height="3.21"
   id="rect268" />
			</g>
			<g
   id="g274">
				<rect
   x="86.949997"
   y="100.93"
   width="3.21"
   height="3.21"
   id="rect272" />
			</g>
			<g
   id="g278">
				<rect
   x="77.330002"
   y="92.510002"
   transform="rotate(180,78.93235,96.7185)"
   width="3.21"
   height="8.4200001"
   id="rect276" />
			</g>
			<g
   id="g282">
				<rect
   x="86.949997"
   y="92.510002"
   width="3.21"
   height="8.4200001"
   id="rect280" />
			</g>
			<g
   id="g286">
				<rect
   x="86.949997"
   y="110.54"
   width="3.21"
   height="3.21"
   id="rect284" />
			</g>
			<g
   id="g290">
				<rect
   x="86.949997"
   y="113.75"
   width="3.21"
   height="3.21"
   id="rect288" />
			</g>
			<g
   id="g294">
				
					<rect
   x="80.540001"
   y="120.16"
   transform="rotate(180,82.1383,121.7654)"
   width="3.21"
   height="3.21"
   id="rect292" />
			</g>
			<g
   id="g298">
				
					<rect
   x="83.739998"
   y="120.16"
   transform="rotate(180,85.34425,121.7654)"
   width="3.21"
   height="3.21"
   id="rect296" />
			</g>
			<g
   id="g302">
				<rect
   x="80.540001"
   y="89.300003"
   transform="rotate(180,82.1383,90.90735)"
   width="3.21"
   height="3.21"
   id="rect300" />
			</g>
			<g
   id="g306">
				<rect
   x="83.739998"
   y="89.300003"
   transform="rotate(180,85.34425,90.90735)"
   width="3.21"
   height="3.21"
   id="rect304" />
			</g>
			<g
   id="g310">
				
					<rect
   x="77.330002"
   y="131.98"
   transform="rotate(180,78.93235,135.18995)"
   width="3.21"
   height="6.4099998"
   id="rect308" />
			</g>
			<g
   id="g314">
				<rect
   x="86.949997"
   y="131.98"
   width="3.21"
   height="6.4099998"
   id="rect312" />
			</g>
			<g
   id="g318">
				
					<rect
   x="80.540001"
   y="128.78"
   transform="rotate(180,82.1383,130.381)"
   width="3.21"
   height="3.21"
   id="rect316" />
			</g>
			<g
   id="g322">
				
					<rect
   x="83.739998"
   y="128.78"
   transform="rotate(180,85.34425,130.381)"
   width="3.21"
   height="3.21"
   id="rect320" />
			</g>
			<g
   id="g326">
				
					<rect
   x="80.540001"
   y="138.39999"
   transform="rotate(180,82.1383,139.99885)"
   width="3.21"
   height="3.21"
   id="rect324" />
			</g>
			<g
   id="g330">
				
					<rect
   x="83.739998"
   y="138.39999"
   transform="rotate(180,85.34425,139.99885)"
   width="3.21"
   height="3.21"
   id="rect328" />
			</g>
			<g
   id="g334">
				
					<rect
   x="77.330002"
   y="116.96"
   transform="rotate(180,78.93235,118.55945)"
   width="3.21"
   height="3.21"
   id="rect332" />
			</g>
			<g
   id="g338">
				
					<rect
   x="86.949997"
   y="116.96"
   transform="rotate(180,88.5502,118.55945)"
   width="3.21"
   height="3.21"
   id="rect336" />
			</g>
			<rect
   x="80.540001"
   y="92.510002"
   width="6.4099998"
   height="27.65"
   id="rect340" />
			<rect
   x="80.57"
   y="131.98"
   width="6.3800001"
   height="6.4099998"
   id="rect342" />
		</g>
	</g>
</svg>
