<?xml version="1.0" encoding="UTF-8"?>
<svg width="8.0781mm" height="10.957mm" version="1.1" viewBox="0 0 8.0781 10.957" xmlns="http://www.w3.org/2000/svg" xmlns:cc="http://creativecommons.org/ns#" xmlns:dc="http://purl.org/dc/elements/1.1/" xmlns:rdf="http://www.w3.org/1999/02/22-rdf-syntax-ns#">
 <defs>
  <clipPath>
   <path d="m166 153h748v571.11h-748z"/>
  </clipPath>
  <clipPath id="clip2">
   <rect width="1439" height="725"/>
  </clipPath>
  <g clip-path="url(#clip2)"></g>
  <clipPath>
   <path d="m0 0.67969h1v2.3203h-1z"/>
  </clipPath>
  <clipPath>
   <path d="m6 0.67969h1426v2.3203h-1426z"/>
  </clipPath>
  <clipPath>
   <path d="m0 666h1v2.8398h-1z"/>
  </clipPath>
  <clipPath>
   <path d="m6 666h1426v2.8398h-1426z"/>
  </clipPath>
  <clipPath id="clip5">
   <rect width="1439" height="669"/>
  </clipPath>
  <g clip-path="url(#clip5)"></g>
 </defs>
 <metadata>
  <rdf:RDF>
   <cc:Work rdf:about="">
    <dc:format>image/svg+xml</dc:format>
    <dc:type rdf:resource="http://purl.org/dc/dcmitype/StillImage"/>
    <dc:title/>
   </cc:Work>
  </rdf:RDF>
 </metadata>
 <g transform="translate(-236.27 -179.63)">
  <g transform="matrix(.35278 0 0 .35278 -221.71 176.44)">
   <path d="m1298.4 24.422c-0.098-0.05078-0.1484-0.08984-0.1719-0.11328 0.016-0.01563 0.039-0.07031 0.094-0.15234l9.8632-15.129v20.609c-3.2656-1.7344-6.5273-3.4766-9.7851-5.2148"/>
   <path d="m1311.2 9.0469 9.8007 15.035c0.086 0.125 0.1211 0.20312 0.1329 0.24219-0.027 0.01172-0.098 0.0625-0.2344 0.13672l-9.6992 5.1719z"/>
   <path d="m1311.1 39.816c0-2.1602 0-4.3164-0.01-6.4766 3.2617-1.7266 6.4961-3.457 9.7305-5.1875 0.1523-0.08203 0.207-0.08594 0.2187-0.08594 0.02 0.0078 0.02 0.0625-0.047 0.14062l-9.8945 11.879z"/>
   <path d="m1298.3 28.258c-0.098-0.11328-0.1094-0.15234-0.1133-0.16406 0.016-0.0078 0.035-0.01563 0.055-0.01563 0.027 0 0.062 0.01172 0.1016 0.03516l9.8203 5.2305c-0.01 2.1172-0.01 4.2266-0.01 6.3398v0.39844z"/>
   <path d="m1298.4 24.422c-0.098-0.05078-0.1484-0.08984-0.1719-0.11328 0.016-0.01563 0.039-0.07031 0.094-0.15234l9.8632-15.129v20.609c-3.2656-1.7344-6.5273-3.4766-9.7851-5.2148"/>
   <path d="m1311.2 9.0469 9.8007 15.035c0.086 0.125 0.1211 0.20312 0.1329 0.24219-0.027 0.01172-0.098 0.0625-0.2344 0.13672l-9.6992 5.1719z"/>
   <path d="m1311.1 39.816c0-2.1602 0-4.3164-0.01-6.4766 3.2617-1.7266 6.4961-3.457 9.7305-5.1875 0.1523-0.08203 0.207-0.08594 0.2187-0.08594 0.02 0.0078 0.02 0.0625-0.047 0.14062l-9.8945 11.879z"/>
   <path d="m1298.3 28.258c-0.098-0.11328-0.1094-0.15234-0.1133-0.16406 0.016-0.0078 0.035-0.01563 0.055-0.01563 0.027 0 0.062 0.01172 0.1016 0.03516l9.8203 5.2305c-0.01 2.1172-0.01 4.2266-0.01 6.3398v0.39844z"/>
  </g>
 </g>
</svg>
