<?xml version="1.0" encoding="UTF-8"?>
<svg width="25.038mm" height="20.764mm" version="1.1" viewBox="0 0 25.038 20.764" xmlns="http://www.w3.org/2000/svg" xmlns:cc="http://creativecommons.org/ns#" xmlns:dc="http://purl.org/dc/elements/1.1/" xmlns:rdf="http://www.w3.org/1999/02/22-rdf-syntax-ns#">
 <defs>
  <clipPath>
   <path d="m166 153h748v571.11h-748z"/>
  </clipPath>
  <clipPath id="clip2">
   <rect width="1439" height="725"/>
  </clipPath>
  <g clip-path="url(#clip2)"></g>
  <clipPath>
   <path d="m0 0.67969h1v2.3203h-1z"/>
  </clipPath>
  <clipPath>
   <path d="m6 0.67969h1426v2.3203h-1426z"/>
  </clipPath>
  <clipPath>
   <path d="m0 666h1v2.8398h-1z"/>
  </clipPath>
  <clipPath>
   <path d="m6 666h1426v2.8398h-1426z"/>
  </clipPath>
  <clipPath id="clip5">
   <rect width="1439" height="669"/>
  </clipPath>
  <g clip-path="url(#clip5)"></g>
 </defs>
 <metadata>
  <rdf:RDF>
   <cc:Work rdf:about="">
    <dc:format>image/svg+xml</dc:format>
    <dc:type rdf:resource="http://purl.org/dc/dcmitype/StillImage"/>
    <dc:title/>
   </cc:Work>
  </rdf:RDF>
 </metadata>
 <g transform="translate(-113.32 -113.82)">
  <g transform="matrix(.35278 0 0 .35278 -471.48 37.782)">
   <path d="m1666.5 216.27-2.586 1.3633-2.0898 2.0859-2.0859 2.0898-1.0469 45.77h69.93l-1.5703-45.129-0.5196-0.64063-4.1758-4.1758z" fill="#fff"/>
   <path d="m1672.6 241.69-4.1757 4.1758-0.3047 7.2852 0.3047 0.96485 4.1757 4.1758 3.6836 0.35156 4.6485-0.35156 4.1328-4.1758 0.3047-8-0.7539-0.83985-3.6836-3.5859-4.5391-0.35157z" fill="#7acfa1"/>
   <path d="m1687.1 264.48-2.0898-2.0156-4.1328-2.0859-7.418-0.0742-1.0859 0.0742-5.9219 2.0195-2.0899 2.0859-1.75 1.5859 0.4493 1.1172 25.082-0.22266z" fill="#7acfa1"/>
   <path d="m1688.2 265.53 3.1289-3.1289 5.9258-2.0234 0.1289-0.0664 11.223-0.55078 1.2852 0.61719 5.8359 2.0898 1.293 0.97657 0.8828 1.043 1.043 2.0742-30.438 0.63282z" fill="#f0bd47"/>
   <path d="m1697.4 237.45-4.1757 4.1758-1.043 10.438 1.043 2.0312 4.1757 4.1719 5.6016 1.0742 6.8672-1.0742 4.1758-4.1719 1.0039-11.355-1.0039-1.1133-4.1758-4.1758-6.7188-1.043z" fill="#f0bd47"/>
   <g>
    <path d="m1709.9 237.45h-12.508v-2.0859h12.508z"/>
    <path d="m1709.9 260.31h-12.508v-2.0859h12.508z"/>
    <path d="m1714 241.58h2.0899v12.508h-2.0899z"/>
    <path d="m1691.1 241.58h2.086v12.508h-2.086z"/>
    <path d="m1711.9 239.54h-2.0859v-2.0898h2.0859z"/>
    <path d="m1714 241.62h-2.0899v-2.0859h2.0899z"/>
    <path d="m1695.3 241.62h-2.0898v-2.0859h2.0898z"/>
    <path d="m1697.4 239.54h-2.0859v-2.0898h2.0859z"/>
    <path d="m1674.7 231.5h-2.086v-2.0859h2.086z"/>
    <path d="m1676.7 229.41h-2.0859v-2.0898h2.0859z"/>
    <path d="m1670.5 229.41h2.0898v-2.0898h-2.0898z"/>
    <path d="m1678.8 227.32h-2.0899v-2.0859h2.0899z"/>
    <path d="m1680.9 225.24h-2.0859v-2.0898h2.0859z"/>
    <path d="m1695.3 256.18h2.0859v2.0898h-2.0859z"/>
    <path d="m1693.2 254.09h2.0898v2.0898h-2.0898z"/>
    <path d="m1717.9 264.48h2.086v2.0859h-2.086z"/>
    <path d="m1709.9 260.38h5.8398v2.0898h-5.8398z"/>
    <path d="m1715.8 262.4h2.0859v2.0859h-2.0859z"/>
    <path d="m1689.2 264.48h-2.0899v2.0859h2.0899z"/>
    <path d="m1697.2 260.38h-5.836v2.0898h5.836z"/>
    <path d="m1691.3 262.4h-2.0859v2.0859h2.0859z"/>
    <path d="m1711.9 254.09h2.0899v2.0898h-2.0899z"/>
    <path d="m1709.9 256.18h2.0859v2.0898h-2.0859z"/>
    <path d="m1728.7 268.59h-70.973v-2.0117h70.973z"/>
    <path d="m1728.7 274.4h-70.973v-2.0117h70.973z"/>
    <path d="m1721.9 268.57h-1.9843v-2.0117h1.9843z"/>
    <path d="m1687.1 262.4h-2.0859v2.0859h2.0859z"/>
    <path d="m1664.4 264.49h-2.0898v2.0898h2.0898z"/>
    <path d="m1672.4 260.38h-5.836v2.0898h5.836z"/>
    <path d="m1685 260.38h-4.1758v2.0898h4.1758z"/>
    <path d="m1666.5 262.4h-2.0899v2.0859h2.0899z"/>
    <path d="m1672.6 241.69h8.3321v-2.0859h-8.3321z"/>
    <path d="m1672.6 260.38h8.3321v-2.0859h-8.3321z"/>
    <path d="m1668.4 245.87h-2.0899v8.25h2.0899z"/>
    <path d="m1687.1 245.87h-2.0859v8.25h2.0859z"/>
    <path d="m1670.5 243.78h2.0898v-2.0859h-2.0898z"/>
    <path d="m1668.4 245.87h2.0859v-2.0898h-2.0859z"/>
    <path d="m1683 245.87h2.086v-2.0898h-2.086z"/>
    <path d="m1680.9 243.78h2.0898v-2.0859h-2.0898z"/>
    <path d="m1683 256.21h-2.0898v2.0859h2.0898z"/>
    <path d="m1685 254.12h-2.0899v2.0898h2.0899z"/>
    <path d="m1670.5 254.12h-2.0859v2.0898h2.0859z"/>
    <path d="m1672.6 256.21h-2.0898v2.0859h2.0898z"/>
    <path d="m1664.4 268.57h22.734v-2.0117h-22.734z"/>
    <path d="m1657.7 221.81h2.0899v46.762h-2.0899z"/>
    <path d="m1726.6 221.81h2.086v46.762h-2.086z"/>
    <path d="m1663.9 215.54h58.445v2.0898h-58.445z"/>
    <path d="m1726.6 221.81h-2.0898v-2.0898h2.0898z"/>
    <path d="m1724.5 219.72h-2.086v-2.0859h2.086z"/>
    <path d="m1659.8 221.81h2.0859v-2.0898h-2.0859z"/>
    <path d="m1661.9 219.72h2.0898v-2.0859h-2.0898z"/>
    <path d="m1716.9 225.24h-27.918v-2.0898h27.918z"/>
    <path d="m1716.9 231.5h-27.918v-2.0859h27.918z"/>
    <path d="m1689 229.41h-2.0899v-4.1758h2.0899z"/>
    <path d="m1719 229.41h-2.0898v-4.1758h2.0898z"/>
   </g>
   <path d="m1716.9 229.41h-27.918v-4.1758h27.918z" fill="#f0bd47"/>
  </g>
 </g>
</svg>
