<?xml version="1.0" encoding="UTF-8" standalone="no"?>
<svg
   xmlns:dc="http://purl.org/dc/elements/1.1/"
   xmlns:cc="http://creativecommons.org/ns#"
   xmlns:rdf="http://www.w3.org/1999/02/22-rdf-syntax-ns#"
   xmlns:svg="http://www.w3.org/2000/svg"
   xmlns="http://www.w3.org/2000/svg"
   xmlns:sodipodi="http://sodipodi.sourceforge.net/DTD/sodipodi-0.dtd"
   xmlns:inkscape="http://www.inkscape.org/namespaces/inkscape"
   width="24.202mm"
   height="23.884mm"
   version="1.1"
   viewBox="0 0 24.202 23.884"
   id="svg178"
   sodipodi:docname="Mail.svg"
   inkscape:version="1.0.1 (3bc2e813f5, 2020-09-07)">
  <sodipodi:namedview
     pagecolor="#ffffff"
     bordercolor="#666666"
     borderopacity="1"
     objecttolerance="10"
     gridtolerance="10"
     guidetolerance="10"
     inkscape:pageopacity="0"
     inkscape:pageshadow="2"
     inkscape:window-width="750"
     inkscape:window-height="480"
     id="namedview180"
     showgrid="false"
     inkscape:zoom="2.0797203"
     inkscape:cx="-1.2326365"
     inkscape:cy="63.43871"
     inkscape:window-x="551"
     inkscape:window-y="102"
     inkscape:window-maximized="0"
     inkscape:current-layer="svg178" />
  <defs
     id="defs32">
    <clipPath
       id="clipPath4">
      <path
         d="m166 153h748v571.11h-748z"
         id="path2" />
    </clipPath>
    <clipPath
       id="clip2">
      <rect
         width="1439"
         height="725"
         id="rect6" />
    </clipPath>
    <g
       clip-path="url(#clip2)"
       id="g9" />
    <clipPath
       id="clipPath13">
      <path
         d="m0 0.67969h1v2.3203h-1z"
         id="path11" />
    </clipPath>
    <clipPath
       id="clipPath17">
      <path
         d="m6 0.67969h1426v2.3203h-1426z"
         id="path15" />
    </clipPath>
    <clipPath
       id="clipPath21">
      <path
         d="m0 666h1v2.8398h-1z"
         id="path19" />
    </clipPath>
    <clipPath
       id="clipPath25">
      <path
         d="m6 666h1426v2.8398h-1426z"
         id="path23" />
    </clipPath>
    <clipPath
       id="clip5">
      <rect
         width="1439"
         height="669"
         id="rect27" />
    </clipPath>
    <g
       clip-path="url(#clip5)"
       id="g30" />
  </defs>
  <metadata
     id="metadata34">
    <rdf:RDF>
      <cc:Work
         rdf:about="">
        <dc:format>image/svg+xml</dc:format>
        <dc:type
           rdf:resource="http://purl.org/dc/dcmitype/StillImage" />
        <dc:title />
      </cc:Work>
    </rdf:RDF>
  </metadata>
  <g
     transform="translate(-113.74 -199.43)"
     id="g176">
    <g
       transform="matrix(.35278 0 0 .35278 -471.48 37.782)"
       id="g174">
      <path
         d="m1719.5 500.9h-52.598v-40.383h52.598z"
         fill="#fff"
         id="path36" />
      <path
         d="m1699.7 479.56h-13.141v-13.141h13.141z"
         fill="#7acfa1"
         id="path38"
         style="fill:#ccd4df;fill-opacity:1" />
      <path
         d="m1670.3 491.75 18.297 9.1445h9.1445l18.297-9.1445h9.1484v31.891h-64.035v-31.891z"
         fill="#f0bd47"
         id="path40"
         style="fill:#31e7ff;fill-opacity:1" />
      <g
         id="g172">
        <path
           d="m1670.3 491.67h-9.1445v-2.1367h9.1445z"
           id="path42" />
        <path
           d="m1672.6 494.04h-2.2891v-2.2852h2.2891z"
           id="path44" />
        <path
           d="m1674.9 494.04h-2.2851v-2.2852h2.2851z"
           id="path46" />
        <path
           d="m1677.2 496.32h-2.2891v-2.2891h2.2891z"
           id="path48" />
        <path
           d="m1679.4 496.32h-2.2851v-2.2891h2.2851z"
           id="path50" />
        <path
           d="m1681.7 498.61h-2.2891v-2.2852h2.2891z"
           id="path52" />
        <path
           d="m1684 498.61h-2.2852v-2.2852h2.2852z"
           id="path54" />
        <path
           d="m1686.3 500.9h-2.289v-2.2891h2.289z"
           id="path56" />
        <path
           d="m1688.6 500.9h-2.2852v-2.2891h2.2852z"
           id="path58" />
        <path
           d="m1690.9 503.18h-2.2851v-2.2852h2.2851z"
           id="path60" />
        <path
           d="m1693.2 503.18h-2.2891v-2.2852h2.2891z"
           id="path62" />
        <path
           d="m1697.7 505.47h-2.2852v-2.2891h2.2852z"
           id="path64" />
        <path
           d="m1700 507.76h-2.2891v-2.2852h2.2891z"
           id="path66" />
        <path
           d="m1702.3 507.76h-2.2851v-2.2852h2.2851z"
           id="path68" />
        <path
           d="m1704.6 510.04h-2.2891v-2.2852h2.2891z"
           id="path70" />
        <path
           d="m1706.9 510.04h-2.2851v-2.2852h2.2851z"
           id="path72" />
        <path
           d="m1709.2 512.33h-2.2852v-2.2891h2.2852z"
           id="path74" />
        <path
           d="m1711.5 512.33h-2.2891v-2.2891h2.2891z"
           id="path76" />
        <path
           d="m1713.7 514.62h-2.2851v-2.2852h2.2851z"
           id="path78" />
        <path
           d="m1716 514.62h-2.2891v-2.2852h2.2891z"
           id="path80" />
        <path
           d="m1718.3 516.91h-2.289v-2.2891h2.289z"
           id="path82" />
        <path
           d="m1720.6 516.91h-2.2852v-2.2891h2.2852z"
           id="path84" />
        <path
           d="m1722.9 519.19h-2.2852v-2.2852h2.2852z"
           id="path86" />
        <path
           d="m1725.2 519.19h-2.289v-2.2852h2.289z"
           id="path88" />
        <path
           d="m1688.6 505.47h2.2851v-2.2891h-2.2851z"
           id="path90" />
        <path
           d="m1686.3 507.76h2.2852v-2.2852h-2.2852z"
           id="path92" />
        <path
           d="m1684 507.76h2.289v-2.2852h-2.289z"
           id="path94" />
        <path
           d="m1681.7 510.04h2.2852v-2.2852h-2.2852z"
           id="path96" />
        <path
           d="m1679.4 510.04h2.2891v-2.2852h-2.2891z"
           id="path98" />
        <path
           d="m1677.2 512.33h2.2851v-2.2891h-2.2851z"
           id="path100" />
        <path
           d="m1674.9 512.33h2.2852v-2.2891h-2.2852z"
           id="path102" />
        <path
           d="m1672.6 514.62h2.2851v-2.2852h-2.2851z"
           id="path104" />
        <path
           d="m1670.3 514.62h2.2891v-2.2852h-2.2891z"
           id="path106" />
        <path
           d="m1668 516.91h2.2852v-2.2891h-2.2852z"
           id="path108" />
        <path
           d="m1665.7 516.91h2.289v-2.2891h-2.289z"
           id="path110" />
        <path
           d="m1663.4 519.19h2.2852v-2.2852h-2.2852z"
           id="path112" />
        <path
           d="m1661.2 519.19h2.2851v-2.2852h-2.2851z"
           id="path114" />
        <path
           d="m1716 491.75h9.1484v-2.2891h-9.1484z"
           id="path116" />
        <path
           d="m1713.8 494.04h2.2852v-2.2852h-2.2852z"
           id="path118" />
        <path
           d="m1711.5 494.04h2.289v-2.2852h-2.289z"
           id="path120" />
        <path
           d="m1709.2 496.32h2.2852v-2.2891h-2.2852z"
           id="path122" />
        <path
           d="m1706.9 496.32h2.2852v-2.2891h-2.2852z"
           id="path124" />
        <path
           d="m1704.6 498.61h2.289v-2.2852h-2.289z"
           id="path126" />
        <path
           d="m1702.3 498.61h2.2852v-2.2852h-2.2852z"
           id="path128" />
        <path
           d="m1700 500.9h2.289v-2.2891h-2.289z"
           id="path130" />
        <path
           d="m1697.7 500.9h2.2852v-2.2891h-2.2852z"
           id="path132" />
        <path
           d="m1695.5 503.18h2.2852v-2.2852h-2.2852z"
           id="path134" />
        <path
           d="m1693.2 503.18h2.2851v-2.2852h-2.2851z"
           id="path136" />
        <path
           d="m1725.2 523.64h2.2852v-31.891h-2.2852z"
           id="path138" />
        <path
           d="m1719.5 489.46h2.289v-28.945h-2.289z"
           id="path140" />
        <path
           d="m1664.6 489.46h2.2891v-28.945h-2.2891z"
           id="path142" />
        <path
           d="m1658.9 523.64h2.2891v-31.891h-2.2891z"
           id="path144" />
        <path
           d="m1661.2 525.93h64.035v-2.2891h-64.035z"
           id="path146" />
        <path
           d="m1719.5 460.52h-52.598v-2.2891h52.598z"
           id="path148" />
        <path
           d="m1699.7 466.42h-13.141v-2.2891h13.141z"
           id="path150" />
        <path
           d="m1711.6 488.94h-36.926v-2.2891h36.926z"
           id="path152" />
        <path
           d="m1702 494.04h-17.715v-2.2852h17.715z"
           id="path154" />
        <path
           d="m1699.7 481.85h-13.141v-2.2891h13.141z"
           id="path156" />
        <path
           d="m1699.7 466.42h2.2852v13.141h-2.2852z"
           id="path158" />
        <path
           d="m1684.3 466.42h2.2891v13.141h-2.2891z"
           id="path160" />
        <path
           d="m1692.1 477.52h-2.0859v-2.0859h2.0859z"
           id="path162" />
        <path
           d="m1694.2 475.43h-2.0899v-2.0898h2.0899z"
           id="path164" />
        <path
           d="m1688 475.43h2.086v-2.0898h-2.086z"
           id="path166" />
        <path
           d="m1696.3 473.34h-2.0859v-2.0859h2.0859z"
           id="path168" />
        <path
           d="m1698.4 471.26h-2.0898v-2.0898h2.0898z"
           id="path170" />
      </g>
    </g>
  </g>
</svg>
