<?xml version="1.0" encoding="UTF-8"?>
<svg width="24.202mm" height="23.884mm" version="1.1" viewBox="0 0 24.202 23.884" xmlns="http://www.w3.org/2000/svg" xmlns:cc="http://creativecommons.org/ns#" xmlns:dc="http://purl.org/dc/elements/1.1/" xmlns:rdf="http://www.w3.org/1999/02/22-rdf-syntax-ns#">
 <defs>
  <clipPath>
   <path d="m166 153h748v571.11h-748z"/>
  </clipPath>
  <clipPath id="clip2">
   <rect width="1439" height="725"/>
  </clipPath>
  <g clip-path="url(#clip2)"></g>
  <clipPath>
   <path d="m0 0.67969h1v2.3203h-1z"/>
  </clipPath>
  <clipPath>
   <path d="m6 0.67969h1426v2.3203h-1426z"/>
  </clipPath>
  <clipPath>
   <path d="m0 666h1v2.8398h-1z"/>
  </clipPath>
  <clipPath>
   <path d="m6 666h1426v2.8398h-1426z"/>
  </clipPath>
  <clipPath id="clip5">
   <rect width="1439" height="669"/>
  </clipPath>
  <g clip-path="url(#clip5)"></g>
 </defs>
 <metadata>
  <rdf:RDF>
   <cc:Work rdf:about="">
    <dc:format>image/svg+xml</dc:format>
    <dc:type rdf:resource="http://purl.org/dc/dcmitype/StillImage"/>
    <dc:title/>
   </cc:Work>
  </rdf:RDF>
 </metadata>
 <g transform="translate(-113.74 -199.43)">
  <g transform="matrix(.35278 0 0 .35278 -471.48 37.782)">
   <path d="m1719.5 500.9h-52.598v-40.383h52.598z" fill="#fff"/>
   <path d="m1699.7 479.56h-13.141v-13.141h13.141z" fill="#7acfa1"/>
   <path d="m1670.3 491.75 18.297 9.1445h9.1445l18.297-9.1445h9.1484v31.891h-64.035v-31.891z" fill="#f0bd47"/>
   <g>
    <path d="m1670.3 491.67h-9.1445v-2.1367h9.1445z"/>
    <path d="m1672.6 494.04h-2.2891v-2.2852h2.2891z"/>
    <path d="m1674.9 494.04h-2.2851v-2.2852h2.2851z"/>
    <path d="m1677.2 496.32h-2.2891v-2.2891h2.2891z"/>
    <path d="m1679.4 496.32h-2.2851v-2.2891h2.2851z"/>
    <path d="m1681.7 498.61h-2.2891v-2.2852h2.2891z"/>
    <path d="m1684 498.61h-2.2852v-2.2852h2.2852z"/>
    <path d="m1686.3 500.9h-2.289v-2.2891h2.289z"/>
    <path d="m1688.6 500.9h-2.2852v-2.2891h2.2852z"/>
    <path d="m1690.9 503.18h-2.2851v-2.2852h2.2851z"/>
    <path d="m1693.2 503.18h-2.2891v-2.2852h2.2891z"/>
    <path d="m1697.7 505.47h-2.2852v-2.2891h2.2852z"/>
    <path d="m1700 507.76h-2.2891v-2.2852h2.2891z"/>
    <path d="m1702.3 507.76h-2.2851v-2.2852h2.2851z"/>
    <path d="m1704.6 510.04h-2.2891v-2.2852h2.2891z"/>
    <path d="m1706.9 510.04h-2.2851v-2.2852h2.2851z"/>
    <path d="m1709.2 512.33h-2.2852v-2.2891h2.2852z"/>
    <path d="m1711.5 512.33h-2.2891v-2.2891h2.2891z"/>
    <path d="m1713.7 514.62h-2.2851v-2.2852h2.2851z"/>
    <path d="m1716 514.62h-2.2891v-2.2852h2.2891z"/>
    <path d="m1718.3 516.91h-2.289v-2.2891h2.289z"/>
    <path d="m1720.6 516.91h-2.2852v-2.2891h2.2852z"/>
    <path d="m1722.9 519.19h-2.2852v-2.2852h2.2852z"/>
    <path d="m1725.2 519.19h-2.289v-2.2852h2.289z"/>
    <path d="m1688.6 505.47h2.2851v-2.2891h-2.2851z"/>
    <path d="m1686.3 507.76h2.2852v-2.2852h-2.2852z"/>
    <path d="m1684 507.76h2.289v-2.2852h-2.289z"/>
    <path d="m1681.7 510.04h2.2852v-2.2852h-2.2852z"/>
    <path d="m1679.4 510.04h2.2891v-2.2852h-2.2891z"/>
    <path d="m1677.2 512.33h2.2851v-2.2891h-2.2851z"/>
    <path d="m1674.9 512.33h2.2852v-2.2891h-2.2852z"/>
    <path d="m1672.6 514.62h2.2851v-2.2852h-2.2851z"/>
    <path d="m1670.3 514.62h2.2891v-2.2852h-2.2891z"/>
    <path d="m1668 516.91h2.2852v-2.2891h-2.2852z"/>
    <path d="m1665.7 516.91h2.289v-2.2891h-2.289z"/>
    <path d="m1663.4 519.19h2.2852v-2.2852h-2.2852z"/>
    <path d="m1661.2 519.19h2.2851v-2.2852h-2.2851z"/>
    <path d="m1716 491.75h9.1484v-2.2891h-9.1484z"/>
    <path d="m1713.8 494.04h2.2852v-2.2852h-2.2852z"/>
    <path d="m1711.5 494.04h2.289v-2.2852h-2.289z"/>
    <path d="m1709.2 496.32h2.2852v-2.2891h-2.2852z"/>
    <path d="m1706.9 496.32h2.2852v-2.2891h-2.2852z"/>
    <path d="m1704.6 498.61h2.289v-2.2852h-2.289z"/>
    <path d="m1702.3 498.61h2.2852v-2.2852h-2.2852z"/>
    <path d="m1700 500.9h2.289v-2.2891h-2.289z"/>
    <path d="m1697.7 500.9h2.2852v-2.2891h-2.2852z"/>
    <path d="m1695.5 503.18h2.2852v-2.2852h-2.2852z"/>
    <path d="m1693.2 503.18h2.2851v-2.2852h-2.2851z"/>
    <path d="m1725.2 523.64h2.2852v-31.891h-2.2852z"/>
    <path d="m1719.5 489.46h2.289v-28.945h-2.289z"/>
    <path d="m1664.6 489.46h2.2891v-28.945h-2.2891z"/>
    <path d="m1658.9 523.64h2.2891v-31.891h-2.2891z"/>
    <path d="m1661.2 525.93h64.035v-2.2891h-64.035z"/>
    <path d="m1719.5 460.52h-52.598v-2.2891h52.598z"/>
    <path d="m1699.7 466.42h-13.141v-2.2891h13.141z"/>
    <path d="m1711.6 488.94h-36.926v-2.2891h36.926z"/>
    <path d="m1702 494.04h-17.715v-2.2852h17.715z"/>
    <path d="m1699.7 481.85h-13.141v-2.2891h13.141z"/>
    <path d="m1699.7 466.42h2.2852v13.141h-2.2852z"/>
    <path d="m1684.3 466.42h2.2891v13.141h-2.2891z"/>
    <path d="m1692.1 477.52h-2.0859v-2.0859h2.0859z"/>
    <path d="m1694.2 475.43h-2.0899v-2.0898h2.0899z"/>
    <path d="m1688 475.43h2.086v-2.0898h-2.086z"/>
    <path d="m1696.3 473.34h-2.0859v-2.0859h2.0859z"/>
    <path d="m1698.4 471.26h-2.0898v-2.0898h2.0898z"/>
   </g>
  </g>
 </g>
</svg>
