<svg id="Capa_1" data-name="Capa 1" xmlns="http://www.w3.org/2000/svg" xmlns:xlink="http://www.w3.org/1999/xlink" viewBox="0 0 64 64"><defs><style>.cls-1{fill:url(#Degradado_sin_nombre_6);}.cls-2{fill:url(#Degradado_sin_nombre_6-2);}.cls-3{fill:url(#Degradado_sin_nombre_6-3);}</style><linearGradient id="Degradado_sin_nombre_6" x1="38.42" y1="57.63" x2="11.63" y2="-10.85" gradientUnits="userSpaceOnUse"><stop offset="0" stop-color="#e1e7ee"/><stop offset="1" stop-color="#a6b2c4"/></linearGradient><linearGradient id="Degradado_sin_nombre_6-2" x1="35.22" y1="27.53" x2="46.36" y2="27.53" xlink:href="#Degradado_sin_nombre_6"/><linearGradient id="Degradado_sin_nombre_6-3" x1="31.55" y1="60.32" x2="4.76" y2="-8.16" xlink:href="#Degradado_sin_nombre_6"/></defs><title>orca</title><path d="M37.47,21a31.4,31.4,0,0,1-.57,10.78c-.69,2.95-1.64,6.75-4.53,8-.44.19-1.32.58-1.89.2-1.6-1.1,1.33-7.22,0-7.87a1.42,1.42,0,0,0-1.29.34c1-1.12,2.08-2.35,3.13-3.69A60.12,60.12,0,0,0,37.47,21Z"/><path d="M48.76,38.93a12.31,12.31,0,0,0,1.31-4.64Zm6.43-22.78v0l-.3-.3-.38-.39-.42-.39a24.2,24.2,0,0,0-3.88-3l0,0a23.82,23.82,0,0,0-12.44-3.5,23.37,23.37,0,0,0-3,.19h0c-2.21.54-13.93,3.61-19,14.22a21.22,21.22,0,0,0-2.21,10.33,21,21,0,0,0,9.58,16.61c6.88,4.26,15.59,3.46,16.05,1.94.27-.93-2.3-2.85-4.58-4.59-.9-.69-2.56-1.89-2.53-1.87l.23.12a9.16,9.16,0,0,1-1.58-1.18,8.82,8.82,0,0,1-1.86-2.47,12.37,12.37,0,0,1-3.19-6.14,12,12,0,0,1-.24-2.42,12.34,12.34,0,0,1,3.48-8.6l.3-.3h0a12.93,12.93,0,0,1,1.51-1.24A12.38,12.38,0,0,1,50.11,33.32c0,.33,0,.65,0,1Z"/><path d="M29.13,24.42a17.24,17.24,0,0,0-.47,4A16.81,16.81,0,0,0,29.31,33a8.75,8.75,0,0,0-1.47,4.88,8.75,8.75,0,0,0,2.8,6.46,17.34,17.34,0,0,1-10.91-16c0-9.57,8-17.32,17.87-17.32a18.8,18.8,0,0,1,4.47.54A17.65,17.65,0,0,0,29.13,24.42Z"/><path class="cls-1" d="M26.84,34.81a5.9,5.9,0,0,1-9.9-5.45,15.52,15.52,0,0,1,6.93-9.9l9.9,5.45,5.44,5.44a24.38,24.38,0,0,0-5.44,1A23.69,23.69,0,0,0,26.84,34.81Z"/><path d="M60,31.34a9.75,9.75,0,0,1-1,3,9.56,9.56,0,0,1-4.71,4.21,9.34,9.34,0,0,1-5.55.41c-.29-.06-.56-.13-.81-.2a12.62,12.62,0,0,1-1.31-.46A8.11,8.11,0,0,1,44,36.66c-1-.93-2.17-2.24-4.33-4.33l-1.29-1.24-.63-.6c-2.69-2.57-4.35-4-6.25-4.84a18,18,0,0,0-2.71-.93c-2.61-.69-6.54-1.13-9.42,1.18a8.24,8.24,0,0,0-2.47,3.46A20.65,20.65,0,0,1,33.77,9.06a3.56,3.56,0,0,0,.92-.29h0a3.92,3.92,0,0,0,1.79-1.44,6.37,6.37,0,0,0,.74-3.22,18.09,18.09,0,0,0,0-3A16.7,16.7,0,0,1,40.7,3.62c1.66,1.54,1.75,2.27,3.47,4a29.24,29.24,0,0,0,4.2,3.22l1.8,1.27,0,0c1.78,1.27,3,2.16,3.88,3l.42.39.31.31.07.08.3.3v0a19.69,19.69,0,0,1,4.32,7.77A15.54,15.54,0,0,1,60,31.34Z"/><path class="cls-2" d="M45.65,32.33c1-.45.75-2.81.5-4a7.4,7.4,0,0,0-2.48-4,9.78,9.78,0,0,0-3.47-1.48c-1.71-.37-4.59-.48-5,.49-.25.7,1,1.48,5,4.95C43.91,31.6,44.89,32.7,45.65,32.33Z"/><path d="M46.64,38.27A8.11,8.11,0,0,1,44,36.66l.92-.93,3,3A12.62,12.62,0,0,1,46.64,38.27Z"/><path d="M49.37,59.43A26.12,26.12,0,0,0,50.63,63a12.8,12.8,0,0,1-5.12-1.25,14,14,0,0,1-4.58-3.9,32.15,32.15,0,0,1-3.26-5.46c-1.55-3-1.78-3.92-3.15-5.11A29.22,29.22,0,0,0,32,45.41l.23.12h0a8.64,8.64,0,0,0,4.34,1.16c.24,0,.47,0,.7,0h0a16.53,16.53,0,0,0,4.88-1.1h0l0,0c3.27-1.12,3.9-2.13,7-2.7a17.71,17.71,0,0,1,3-.29,11.68,11.68,0,0,1-3.57,4.92,7.84,7.84,0,0,1-3.1,1.41,12,12,0,0,1-3.56.23l.34.06.16,0,.12,0,.14,0,.18,0,.1,0,.23,0,.29.08.14,0,.08,0,.15.05.17,0,.22.07h0l.13.05a8,8,0,0,1,1.06.46l.12.06.11.06.1.06.21.12h0l.18.12.19.13.13.1.23.18.22.2.1.09a5.1,5.1,0,0,1,.54.64l.07.11.15.22a7.38,7.38,0,0,1,.8,3.14A25.75,25.75,0,0,0,49.37,59.43Z"/><path class="cls-3" d="M17,29.35a16.14,16.14,0,0,0-.26,10c1.56,5,5.83,9.39,10.92,10.36,2.67.51,5.77.13,6-.83.38-1.6-7.52-3.05-8.58-7.66-.57-2.5,1.06-5.09,2.85-7.12Z"/><path d="M29,16.93c-9.54-1.55-15.47,1.31-17.86,2.71-4.11,2.42-8.83,7-7.89,9.06.55,1.22,3,1.38,4.27,1.3,3.58-.24,5.57-3,6.86-2.2.27.17.63.58.67,1.75.41-1,.85-2,1.33-3,0,0,.16-.36.4-.86A13.12,13.12,0,0,1,17.66,24C20.68,19,26.48,17.42,29,16.93Z"/><path d="M37.47,21a31.4,31.4,0,0,1-.57,10.78c-.69,2.95-1.64,6.75-4.53,8-.44.19-1.32.58-1.89.2-1.6-1.1,1.33-7.22,0-7.87a1.42,1.42,0,0,0-1.29.34c1-1.12,2.08-2.35,3.13-3.69A60.12,60.12,0,0,0,37.47,21Z"/><path d="M48.76,38.93a12.31,12.31,0,0,0,1.31-4.64Zm6.43-22.78v0l-.3-.3-.38-.39-.42-.39a24.2,24.2,0,0,0-3.88-3l0,0a23.82,23.82,0,0,0-12.44-3.5,23.37,23.37,0,0,0-3,.19h0c-2.21.54-13.93,3.61-19,14.22a21.22,21.22,0,0,0-2.21,10.33,21,21,0,0,0,9.58,16.61c6.88,4.26,15.59,3.46,16.05,1.94.27-.93-2.3-2.85-4.58-4.59-.9-.69-2.56-1.89-2.53-1.87l.23.12a9.16,9.16,0,0,1-1.58-1.18,8.82,8.82,0,0,1-1.86-2.47,12.37,12.37,0,0,1-3.19-6.14,12,12,0,0,1-.24-2.42,12.34,12.34,0,0,1,3.48-8.6l.3-.3h0a12.93,12.93,0,0,1,1.51-1.24A12.38,12.38,0,0,1,50.11,33.32c0,.33,0,.65,0,1Z"/><path d="M29.13,24.42a17.24,17.24,0,0,0-.47,4A16.81,16.81,0,0,0,29.31,33a8.75,8.75,0,0,0-1.47,4.88,8.75,8.75,0,0,0,2.8,6.46,17.34,17.34,0,0,1-10.91-16c0-9.57,8-17.32,17.87-17.32a18.8,18.8,0,0,1,4.47.54A17.65,17.65,0,0,0,29.13,24.42Z"/><path class="cls-1" d="M26.84,34.81a5.9,5.9,0,0,1-9.9-5.45,15.52,15.52,0,0,1,6.93-9.9l9.9,5.45,5.44,5.44a24.38,24.38,0,0,0-5.44,1A23.69,23.69,0,0,0,26.84,34.81Z"/><path d="M60,31.34a9.75,9.75,0,0,1-1,3,9.56,9.56,0,0,1-4.71,4.21,9.34,9.34,0,0,1-5.55.41c-.29-.06-.56-.13-.81-.2a12.62,12.62,0,0,1-1.31-.46A8.11,8.11,0,0,1,44,36.66c-1-.93-2.17-2.24-4.33-4.33l-1.29-1.24-.63-.6c-2.69-2.57-4.35-4-6.25-4.84a18,18,0,0,0-2.71-.93c-2.61-.69-6.54-1.13-9.42,1.18a8.24,8.24,0,0,0-2.47,3.46A20.65,20.65,0,0,1,33.77,9.06a3.56,3.56,0,0,0,.92-.29h0a3.92,3.92,0,0,0,1.79-1.44,6.37,6.37,0,0,0,.74-3.22,18.09,18.09,0,0,0,0-3A16.7,16.7,0,0,1,40.7,3.62c1.66,1.54,1.75,2.27,3.47,4a29.24,29.24,0,0,0,4.2,3.22l1.8,1.27,0,0c1.78,1.27,3,2.16,3.88,3l.42.39.31.31.07.08.3.3v0a19.69,19.69,0,0,1,4.32,7.77A15.54,15.54,0,0,1,60,31.34Z"/><path class="cls-2" d="M45.65,32.33c1-.45.75-2.81.5-4a7.4,7.4,0,0,0-2.48-4,9.78,9.78,0,0,0-3.47-1.48c-1.71-.37-4.59-.48-5,.49-.25.7,1,1.48,5,4.95C43.91,31.6,44.89,32.7,45.65,32.33Z"/><path d="M46.64,38.27A8.11,8.11,0,0,1,44,36.66l.92-.93,3,3A12.62,12.62,0,0,1,46.64,38.27Z"/><path d="M49.37,59.43A26.12,26.12,0,0,0,50.63,63a12.8,12.8,0,0,1-5.12-1.25,14,14,0,0,1-4.58-3.9,32.15,32.15,0,0,1-3.26-5.46c-.84-1.61-.73-2.88-1.87-3.61-.9-.58-1.45-.25-2.31-1A6.48,6.48,0,0,1,32,45.41h0l.23.12h0a8.64,8.64,0,0,0,4.34,1.16c.24,0,.47,0,.7,0h0a16.53,16.53,0,0,0,4.88-1.1h0l0,0c3.27-1.12,3.9-2.13,7-2.7a17.71,17.71,0,0,1,3-.29,11.68,11.68,0,0,1-3.57,4.92,7.84,7.84,0,0,1-3.1,1.41,12,12,0,0,1-3.56.23l.34.06.16,0,.12,0,.14,0,.18,0,.1,0,.23,0,.29.08.14,0,.08,0,.15.05.17,0,.22.07h0l.13.05a8,8,0,0,1,1.06.46l.12.06.11.06.1.06.21.12h0l.18.12.19.13.13.1.23.18.22.2.1.09a5.1,5.1,0,0,1,.54.64l.07.11.15.22a7.38,7.38,0,0,1,.8,3.14A25.75,25.75,0,0,0,49.37,59.43Z"/><path class="cls-3" d="M17,29.35a16.14,16.14,0,0,0-.26,10c1.56,5,5.83,9.39,10.92,10.36,2.67.51,5.77.13,6-.83.38-1.6-7.52-3.05-8.58-7.66-.57-2.5,1.06-5.09,2.85-7.12Z"/><path d="M29,16.93c-9.54-1.55-15.47,1.31-17.86,2.71-4.11,2.42-8.83,7-7.89,9.06.55,1.22,3,1.38,4.27,1.3,3.58-.24,5.57-3,6.86-2.2.27.17.63.58.67,1.75.41-1,.85-2,1.33-3,0,0,.16-.36.4-.86A13.12,13.12,0,0,1,17.66,24C20.68,19,26.48,17.42,29,16.93Z"/></svg>