<?xml version="1.0" encoding="UTF-8" standalone="no"?>
<svg
   xmlns:dc="http://purl.org/dc/elements/1.1/"
   xmlns:cc="http://creativecommons.org/ns#"
   xmlns:rdf="http://www.w3.org/1999/02/22-rdf-syntax-ns#"
   xmlns:svg="http://www.w3.org/2000/svg"
   xmlns="http://www.w3.org/2000/svg"
   xmlns:xlink="http://www.w3.org/1999/xlink"
   xmlns:sodipodi="http://sodipodi.sourceforge.net/DTD/sodipodi-0.dtd"
   xmlns:inkscape="http://www.inkscape.org/namespaces/inkscape"
   id="Capa_1"
   data-name="Capa 1"
   viewBox="0 0 69.400536 69.400536"
   version="1.1"
   sodipodi:docname="Orca.svg"
   width="69.400536"
   height="69.400536"
   inkscape:version="1.0.1 (3bc2e813f5, 2020-09-07)">
  <metadata
     id="metadata58">
    <rdf:RDF>
      <cc:Work
         rdf:about="">
        <dc:format>image/svg+xml</dc:format>
        <dc:type
           rdf:resource="http://purl.org/dc/dcmitype/StillImage" />
      </cc:Work>
    </rdf:RDF>
  </metadata>
  <sodipodi:namedview
     pagecolor="#ffffff"
     bordercolor="#666666"
     borderopacity="1"
     objecttolerance="10"
     gridtolerance="10"
     guidetolerance="10"
     inkscape:pageopacity="0"
     inkscape:pageshadow="2"
     inkscape:window-width="1366"
     inkscape:window-height="704"
     id="namedview56"
     showgrid="false"
     inkscape:zoom="5.8687775"
     inkscape:cx="91.839104"
     inkscape:cy="41.841968"
     inkscape:window-x="0"
     inkscape:window-y="0"
     inkscape:window-maximized="1"
     inkscape:current-layer="Capa_1" />
  <defs
     id="defs11">
    <style
       id="style2">.cls-1{fill:url(#Degradado_sin_nombre_6);}.cls-2{fill:url(#Degradado_sin_nombre_6-2);}.cls-3{fill:url(#Degradado_sin_nombre_6-3);}</style>
    <linearGradient
       id="Degradado_sin_nombre_6"
       x1="38.419998"
       y1="57.630001"
       x2="11.63"
       y2="-10.85"
       gradientUnits="userSpaceOnUse">
      <stop
         offset="0"
         stop-color="#e1e7ee"
         id="stop4" />
      <stop
         offset="1"
         stop-color="#a6b2c4"
         id="stop6" />
    </linearGradient>
    <linearGradient
       id="Degradado_sin_nombre_6-2"
       x1="35.220001"
       y1="27.530001"
       x2="46.360001"
       y2="27.530001"
       xlink:href="#Degradado_sin_nombre_6"
       gradientTransform="translate(59.839104,9.8419676)" />
    <linearGradient
       id="Degradado_sin_nombre_6-3"
       x1="31.549999"
       y1="60.32"
       x2="4.7600002"
       y2="-8.1599998"
       xlink:href="#Degradado_sin_nombre_6"
       gradientTransform="translate(59.839104,9.8419676)" />
    <linearGradient
       inkscape:collect="always"
       xlink:href="#Degradado_sin_nombre_6"
       id="linearGradient80"
       gradientUnits="userSpaceOnUse"
       x1="38.419998"
       y1="57.630001"
       x2="11.63"
       y2="-10.85"
       gradientTransform="translate(59.839104,9.8419676)" />
    <linearGradient
       inkscape:collect="always"
       xlink:href="#Degradado_sin_nombre_6"
       id="linearGradient82"
       x1="35.220001"
       y1="27.530001"
       x2="46.360001"
       y2="27.530001"
       gradientTransform="translate(59.839104,9.8419676)" />
    <linearGradient
       inkscape:collect="always"
       xlink:href="#Degradado_sin_nombre_6"
       id="linearGradient84"
       x1="31.549999"
       y1="60.32"
       x2="4.7600002"
       y2="-8.1599998"
       gradientTransform="translate(59.839104,9.8419676)" />
    <linearGradient
       inkscape:collect="always"
       xlink:href="#Degradado_sin_nombre_6"
       id="linearGradient86"
       gradientUnits="userSpaceOnUse"
       x1="38.419998"
       y1="57.630001"
       x2="11.63"
       y2="-10.85"
       gradientTransform="translate(59.839104,9.8419676)" />
  </defs>
  <title
     id="title13">orca</title>
  <g
     id="g108"
     transform="matrix(1.1010377,0,0,1.1010377,-66.295313,-11.524089)">
    <path
       d="m 97.309104,30.841968 a 31.4,31.4 0 0 1 -0.57,10.78 c -0.69,2.95 -1.64,6.75 -4.53,8 -0.44,0.19 -1.32,0.58 -1.89,0.2 -1.6,-1.1 1.33,-7.22 0,-7.87 a 1.42,1.42 0 0 0 -1.29,0.34 c 1,-1.12 2.08,-2.35 3.13,-3.69 a 60.12,60.12 0 0 0 5.15,-7.76 z"
       id="path15" />
    <path
       d="m 108.5991,48.771968 a 12.31,12.31 0 0 0 1.31,-4.64 z m 6.43,-22.78 v 0 l -0.3,-0.3 -0.38,-0.39 -0.42,-0.39 a 24.2,24.2 0 0 0 -3.88,-3 v 0 a 23.82,23.82 0 0 0 -12.439996,-3.5 23.37,23.37 0 0 0 -3,0.19 v 0 c -2.21,0.54 -13.93,3.61 -19,14.22 a 21.22,21.22 0 0 0 -2.21,10.33 21,21 0 0 0 9.58,16.61 c 6.88,4.26 15.59,3.46 16.05,1.94 0.27,-0.93 -2.3,-2.85 -4.58,-4.59 -0.9,-0.69 -2.56,-1.89 -2.53,-1.87 l 0.23,0.12 a 9.16,9.16 0 0 1 -1.58,-1.18 8.82,8.82 0 0 1 -1.86,-2.47 12.37,12.37 0 0 1 -3.19,-6.14 12,12 0 0 1 -0.24,-2.42 12.34,12.34 0 0 1 3.48,-8.6 l 0.3,-0.3 v 0 a 12.93,12.93 0 0 1 1.51,-1.24 12.38,12.38 0 0 1 19.379996,10.15 c 0,0.33 0,0.65 0,1 z"
       id="path17" />
    <path
       d="m 88.969104,34.261968 a 17.24,17.24 0 0 0 -0.47,4 16.81,16.81 0 0 0 0.65,4.58 8.75,8.75 0 0 0 -1.47,4.88 8.75,8.75 0 0 0 2.8,6.46 17.34,17.34 0 0 1 -10.91,-16 c 0,-9.57 8,-17.32 17.87,-17.32 a 18.8,18.8 0 0 1 4.469996,0.54 17.65,17.65 0 0 0 -12.939996,12.86 z"
       id="path19" />
    <path
       class="cls-1"
       d="m 86.679104,44.651968 a 5.9,5.9 0 0 1 -9.9,-5.45 15.52,15.52 0 0 1 6.93,-9.9 l 9.9,5.45 5.44,5.44 a 24.38,24.38 0 0 0 -5.44,1 23.69,23.69 0 0 0 -6.93,3.46 z"
       id="path21"
       style="fill:url(#linearGradient80)" />
    <path
       d="m 119.8391,41.181968 a 9.75,9.75 0 0 1 -1,3 9.56,9.56 0 0 1 -4.71,4.21 9.34,9.34 0 0 1 -5.55,0.41 c -0.29,-0.06 -0.56,-0.13 -0.81,-0.2 a 12.62,12.62 0 0 1 -1.31,-0.46 8.11,8.11 0 0 1 -2.62,-1.64 c -1,-0.93 -2.17,-2.24 -4.329996,-4.33 l -1.29,-1.24 -0.63,-0.6 c -2.69,-2.57 -4.35,-4 -6.25,-4.84 a 18,18 0 0 0 -2.71,-0.93 c -2.61,-0.69 -6.54,-1.13 -9.42,1.18 a 8.24,8.24 0 0 0 -2.47,3.46 20.65,20.65 0 0 1 16.87,-20.3 3.56,3.56 0 0 0 0.92,-0.29 v 0 a 3.92,3.92 0 0 0 1.79,-1.44 6.37,6.37 0 0 0 0.74,-3.22 18.09,18.09 0 0 0 0,-3 16.7,16.7 0 0 1 3.479996,2.51 c 1.66,1.54 1.75,2.27 3.47,4 a 29.24,29.24 0 0 0 4.2,3.22 l 1.8,1.27 v 0 c 1.78,1.27 3,2.16 3.88,3 l 0.42,0.39 0.31,0.31 0.07,0.08 0.3,0.3 v 0 a 19.69,19.69 0 0 1 4.32,7.77 15.54,15.54 0 0 1 0.53,7.38 z"
       id="path23" />
    <path
       class="cls-2"
       d="m 105.4891,42.171968 c 1,-0.45 0.75,-2.81 0.5,-4 a 7.4,7.4 0 0 0 -2.48,-4 9.78,9.78 0 0 0 -3.47,-1.48 c -1.709996,-0.37 -4.589996,-0.48 -4.999996,0.49 -0.25,0.7 1,1.48 4.999996,4.95 3.71,3.31 4.69,4.41 5.45,4.04 z"
       id="path25"
       style="fill:url(#linearGradient82)" />
    <path
       d="m 106.4791,48.111968 a 8.11,8.11 0 0 1 -2.64,-1.61 l 0.92,-0.93 3,3 a 12.62,12.62 0 0 1 -1.28,-0.46 z"
       id="path27" />
    <path
       d="m 109.2091,69.271968 a 26.12,26.12 0 0 0 1.26,3.57 12.8,12.8 0 0 1 -5.12,-1.25 14,14 0 0 1 -4.58,-3.9 32.15,32.15 0 0 1 -3.259996,-5.46 c -1.55,-3 -1.78,-3.92 -3.15,-5.11 a 29.22,29.22 0 0 0 -2.52,-1.87 l 0.23,0.12 v 0 a 8.64,8.64 0 0 0 4.34,1.16 c 0.24,0 0.47,0 0.7,0 v 0 a 16.53,16.53 0 0 0 4.879996,-1.1 v 0 0 c 3.27,-1.12 3.9,-2.13 7,-2.7 a 17.71,17.71 0 0 1 3,-0.29 11.68,11.68 0 0 1 -3.57,4.92 7.84,7.84 0 0 1 -3.1,1.41 12,12 0 0 1 -3.56,0.23 l 0.34,0.06 h 0.16 0.12 0.14 0.18 0.1 0.23 l 0.29,0.08 h 0.14 0.08 l 0.15,0.05 h 0.17 l 0.22,0.07 v 0 l 0.13,0.05 a 8,8 0 0 1 1.06,0.46 l 0.12,0.06 0.11,0.06 0.1,0.06 0.21,0.12 v 0 l 0.18,0.12 0.19,0.13 0.13,0.1 0.23,0.18 0.22,0.2 0.1,0.09 a 5.1,5.1 0 0 1 0.54,0.64 l 0.07,0.11 0.15,0.22 a 7.38,7.38 0 0 1 0.8,3.14 25.75,25.75 0 0 0 0.79,4.27 z"
       id="path29" />
    <path
       class="cls-3"
       d="m 76.839104,39.191968 a 16.14,16.14 0 0 0 -0.26,10 c 1.56,5 5.83,9.39 10.92,10.36 2.67,0.51 5.77,0.13 6,-0.83 0.38,-1.6 -7.52,-3.05 -8.58,-7.66 -0.57,-2.5 1.06,-5.09 2.85,-7.12 z"
       id="path31"
       style="fill:url(#linearGradient84)" />
    <path
       d="m 88.839104,26.771968 c -9.54,-1.55 -15.47,1.31 -17.86,2.71 -4.11,2.42 -8.83,7 -7.89,9.06 0.55,1.22 3,1.38 4.27,1.3 3.58,-0.24 5.57,-3 6.86,-2.2 0.27,0.17 0.63,0.58 0.67,1.75 0.41,-1 0.85,-2 1.33,-3 0,0 0.16,-0.36 0.4,-0.86 a 13.12,13.12 0 0 1 0.88,-1.69 c 3.02,-5 8.82,-6.58 11.34,-7.07 z"
       id="path33" />
    <path
       d="m 97.309104,30.841968 a 31.4,31.4 0 0 1 -0.57,10.78 c -0.69,2.95 -1.64,6.75 -4.53,8 -0.44,0.19 -1.32,0.58 -1.89,0.2 -1.6,-1.1 1.33,-7.22 0,-7.87 a 1.42,1.42 0 0 0 -1.29,0.34 c 1,-1.12 2.08,-2.35 3.13,-3.69 a 60.12,60.12 0 0 0 5.15,-7.76 z"
       id="path35" />
    <path
       d="m 108.5991,48.771968 a 12.31,12.31 0 0 0 1.31,-4.64 z m 6.43,-22.78 v 0 l -0.3,-0.3 -0.38,-0.39 -0.42,-0.39 a 24.2,24.2 0 0 0 -3.88,-3 v 0 a 23.82,23.82 0 0 0 -12.439996,-3.5 23.37,23.37 0 0 0 -3,0.19 v 0 c -2.21,0.54 -13.93,3.61 -19,14.22 a 21.22,21.22 0 0 0 -2.21,10.33 21,21 0 0 0 9.58,16.61 c 6.88,4.26 15.59,3.46 16.05,1.94 0.27,-0.93 -2.3,-2.85 -4.58,-4.59 -0.9,-0.69 -2.56,-1.89 -2.53,-1.87 l 0.23,0.12 a 9.16,9.16 0 0 1 -1.58,-1.18 8.82,8.82 0 0 1 -1.86,-2.47 12.37,12.37 0 0 1 -3.19,-6.14 12,12 0 0 1 -0.24,-2.42 12.34,12.34 0 0 1 3.48,-8.6 l 0.3,-0.3 v 0 a 12.93,12.93 0 0 1 1.51,-1.24 12.38,12.38 0 0 1 19.379996,10.15 c 0,0.33 0,0.65 0,1 z"
       id="path37" />
    <path
       d="m 88.969104,34.261968 a 17.24,17.24 0 0 0 -0.47,4 16.81,16.81 0 0 0 0.65,4.58 8.75,8.75 0 0 0 -1.47,4.88 8.75,8.75 0 0 0 2.8,6.46 17.34,17.34 0 0 1 -10.91,-16 c 0,-9.57 8,-17.32 17.87,-17.32 a 18.8,18.8 0 0 1 4.469996,0.54 17.65,17.65 0 0 0 -12.939996,12.86 z"
       id="path39" />
    <path
       class="cls-1"
       d="m 86.679104,44.651968 a 5.9,5.9 0 0 1 -9.9,-5.45 15.52,15.52 0 0 1 6.93,-9.9 l 9.9,5.45 5.44,5.44 a 24.38,24.38 0 0 0 -5.44,1 23.69,23.69 0 0 0 -6.93,3.46 z"
       id="path41"
       style="fill:url(#linearGradient86)" />
    <path
       d="m 119.8391,41.181968 a 9.75,9.75 0 0 1 -1,3 9.56,9.56 0 0 1 -4.71,4.21 9.34,9.34 0 0 1 -5.55,0.41 c -0.29,-0.06 -0.56,-0.13 -0.81,-0.2 a 12.62,12.62 0 0 1 -1.31,-0.46 8.11,8.11 0 0 1 -2.62,-1.64 c -1,-0.93 -2.17,-2.24 -4.329996,-4.33 l -1.29,-1.24 -0.63,-0.6 c -2.69,-2.57 -4.35,-4 -6.25,-4.84 a 18,18 0 0 0 -2.71,-0.93 c -2.61,-0.69 -6.54,-1.13 -9.42,1.18 a 8.24,8.24 0 0 0 -2.47,3.46 20.65,20.65 0 0 1 16.87,-20.3 3.56,3.56 0 0 0 0.92,-0.29 v 0 a 3.92,3.92 0 0 0 1.79,-1.44 6.37,6.37 0 0 0 0.74,-3.22 18.09,18.09 0 0 0 0,-3 16.7,16.7 0 0 1 3.479996,2.51 c 1.66,1.54 1.75,2.27 3.47,4 a 29.24,29.24 0 0 0 4.2,3.22 l 1.8,1.27 v 0 c 1.78,1.27 3,2.16 3.88,3 l 0.42,0.39 0.31,0.31 0.07,0.08 0.3,0.3 v 0 a 19.69,19.69 0 0 1 4.32,7.77 15.54,15.54 0 0 1 0.53,7.38 z"
       id="path43" />
    <path
       class="cls-2"
       d="m 105.4891,42.171968 c 1,-0.45 0.75,-2.81 0.5,-4 a 7.4,7.4 0 0 0 -2.48,-4 9.78,9.78 0 0 0 -3.47,-1.48 c -1.709996,-0.37 -4.589996,-0.48 -4.999996,0.49 -0.25,0.7 1,1.48 4.999996,4.95 3.71,3.31 4.69,4.41 5.45,4.04 z"
       id="path45"
       style="fill:url(#Degradado_sin_nombre_6-2)" />
    <path
       d="m 106.4791,48.111968 a 8.11,8.11 0 0 1 -2.64,-1.61 l 0.92,-0.93 3,3 a 12.62,12.62 0 0 1 -1.28,-0.46 z"
       id="path47" />
    <path
       d="m 109.2091,69.271968 a 26.12,26.12 0 0 0 1.26,3.57 12.8,12.8 0 0 1 -5.12,-1.25 14,14 0 0 1 -4.58,-3.9 32.15,32.15 0 0 1 -3.259996,-5.46 c -0.84,-1.61 -0.73,-2.88 -1.87,-3.61 -0.9,-0.58 -1.45,-0.25 -2.31,-1 a 6.48,6.48 0 0 1 -1.49,-2.37 v 0 l 0.23,0.12 v 0 a 8.64,8.64 0 0 0 4.34,1.16 c 0.24,0 0.47,0 0.7,0 v 0 a 16.53,16.53 0 0 0 4.879996,-1.1 v 0 0 c 3.27,-1.12 3.9,-2.13 7,-2.7 a 17.71,17.71 0 0 1 3,-0.29 11.68,11.68 0 0 1 -3.57,4.92 7.84,7.84 0 0 1 -3.1,1.41 12,12 0 0 1 -3.56,0.23 l 0.34,0.06 h 0.16 0.12 0.14 0.18 0.1 0.23 l 0.29,0.08 h 0.14 0.08 l 0.15,0.05 h 0.17 l 0.22,0.07 v 0 l 0.13,0.05 a 8,8 0 0 1 1.06,0.46 l 0.12,0.06 0.11,0.06 0.1,0.06 0.21,0.12 v 0 l 0.18,0.12 0.19,0.13 0.13,0.1 0.23,0.18 0.22,0.2 0.1,0.09 a 5.1,5.1 0 0 1 0.54,0.64 l 0.07,0.11 0.15,0.22 a 7.38,7.38 0 0 1 0.8,3.14 25.75,25.75 0 0 0 0.79,4.27 z"
       id="path49" />
    <path
       class="cls-3"
       d="m 76.839104,39.191968 a 16.14,16.14 0 0 0 -0.26,10 c 1.56,5 5.83,9.39 10.92,10.36 2.67,0.51 5.77,0.13 6,-0.83 0.38,-1.6 -7.52,-3.05 -8.58,-7.66 -0.57,-2.5 1.06,-5.09 2.85,-7.12 z"
       id="path51"
       style="fill:url(#Degradado_sin_nombre_6-3)" />
    <path
       d="m 88.839104,26.771968 c -9.54,-1.55 -15.47,1.31 -17.86,2.71 -4.11,2.42 -8.83,7 -7.89,9.06 0.55,1.22 3,1.38 4.27,1.3 3.58,-0.24 5.57,-3 6.86,-2.2 0.27,0.17 0.63,0.58 0.67,1.75 0.41,-1 0.85,-2 1.33,-3 0,0 0.16,-0.36 0.4,-0.86 a 13.12,13.12 0 0 1 0.88,-1.69 c 3.02,-5 8.82,-6.58 11.34,-7.07 z"
       id="path53" />
  </g>
</svg>
