<?xml version="1.0" encoding="UTF-8" standalone="no"?>
<svg
   xmlns:dc="http://purl.org/dc/elements/1.1/"
   xmlns:cc="http://creativecommons.org/ns#"
   xmlns:rdf="http://www.w3.org/1999/02/22-rdf-syntax-ns#"
   xmlns:svg="http://www.w3.org/2000/svg"
   xmlns="http://www.w3.org/2000/svg"
   xmlns:sodipodi="http://sodipodi.sourceforge.net/DTD/sodipodi-0.dtd"
   xmlns:inkscape="http://www.inkscape.org/namespaces/inkscape"
   width="24.099mm"
   height="23.916mm"
   version="1.1"
   viewBox="0 0 24.099 23.916"
   id="svg138"
   sodipodi:docname="Profile.svg"
   inkscape:version="1.0.1 (3bc2e813f5, 2020-09-07)">
  <sodipodi:namedview
     pagecolor="#ffffff"
     bordercolor="#666666"
     borderopacity="1"
     objecttolerance="10"
     gridtolerance="10"
     guidetolerance="10"
     inkscape:pageopacity="0"
     inkscape:pageshadow="2"
     inkscape:window-width="757"
     inkscape:window-height="743"
     id="namedview140"
     showgrid="false"
     inkscape:zoom="2.0769377"
     inkscape:cx="-9.8741737"
     inkscape:cy="109.89196"
     inkscape:window-x="608"
     inkscape:window-y="0"
     inkscape:window-maximized="0"
     inkscape:current-layer="svg138" />
  <defs
     id="defs32">
    <clipPath
       id="clipPath4">
      <path
         d="m166 153h748v571.11h-748z"
         id="path2" />
    </clipPath>
    <clipPath
       id="clip2">
      <rect
         width="1439"
         height="725"
         id="rect6" />
    </clipPath>
    <g
       clip-path="url(#clip2)"
       id="g9" />
    <clipPath
       id="clipPath13">
      <path
         d="m0 0.67969h1v2.3203h-1z"
         id="path11" />
    </clipPath>
    <clipPath
       id="clipPath17">
      <path
         d="m6 0.67969h1426v2.3203h-1426z"
         id="path15" />
    </clipPath>
    <clipPath
       id="clipPath21">
      <path
         d="m0 666h1v2.8398h-1z"
         id="path19" />
    </clipPath>
    <clipPath
       id="clipPath25">
      <path
         d="m6 666h1426v2.8398h-1426z"
         id="path23" />
    </clipPath>
    <clipPath
       id="clip5">
      <rect
         width="1439"
         height="669"
         id="rect27" />
    </clipPath>
    <g
       clip-path="url(#clip5)"
       id="g30" />
  </defs>
  <metadata
     id="metadata34">
    <rdf:RDF>
      <cc:Work
         rdf:about="">
        <dc:format>image/svg+xml</dc:format>
        <dc:type
           rdf:resource="http://purl.org/dc/dcmitype/StillImage" />
        <dc:title />
      </cc:Work>
    </rdf:RDF>
  </metadata>
  <g
     transform="translate(-113.79 -244.48)"
     id="g136">
    <g
       transform="matrix(.35278 0 0 .35278 -471.48 37.782)"
       id="g134">
      <path
         d="m1719 592.19-4.1758-4.1758h-49.523l-4.1758 4.1758v47.098l4.1758 4.1758h49.523l4.1758-4.1758z"
         fill="#fff"
         id="path36" />
      <g
         id="g62">
        <path
           d="m1661.1 592.19h-2.086v47.098h2.086z"
           id="path38" />
        <path
           d="m1721.1 592.19h-2.0898v47.098h2.0898z"
           id="path40" />
        <path
           d="m1665.3 588.02h49.523v-2.0859h-49.523z"
           id="path42" />
        <path
           d="m1665.3 645.55h49.523v-2.0859h-49.523z"
           id="path44" />
        <path
           d="m1663.2 590.1h2.0899v-2.0898h-2.0899z"
           id="path46" />
        <path
           d="m1661.1 592.19h2.0859v-2.0859h-2.0859z"
           id="path48" />
        <path
           d="m1716.9 592.19h2.086v-2.0859h-2.086z"
           id="path50" />
        <path
           d="m1714.8 590.1h2.0898v-2.0898h-2.0898z"
           id="path52" />
        <path
           d="m1716.9 641.38h-2.0898v2.0859h2.0898z"
           id="path54" />
        <path
           d="m1719 639.29h-2.086v2.0898h2.086z"
           id="path56" />
        <path
           d="m1663.2 639.29h-2.0859v2.0898h2.0859z"
           id="path58" />
        <path
           d="m1665.3 641.38h-2.0899v2.0859h2.0899z"
           id="path60" />
      </g>
      <path
         d="m1725 651.43h-13.141v-13.141h13.141z"
         fill="#f0bd47"
         id="path64"
         style="fill:#31e7ff;fill-opacity:1" />
      <g
         id="g84">
        <path
           d="m1725 638.29h-13.141v-2.2891h13.141z"
           id="path66" />
        <path
           d="m1725 653.72h-13.141v-2.2891h13.141z"
           id="path68" />
        <path
           d="m1725 638.29h2.289v13.141h-2.289z"
           id="path70" />
        <path
           d="m1709.6 638.29h2.2852v13.141h-2.2852z"
           id="path72" />
        <path
           d="m1717.4 649.39h-2.0898v-2.0859h2.0898z"
           id="path74" />
        <path
           d="m1719.5 647.31h-2.0859v-2.0898h2.0859z"
           id="path76" />
        <path
           d="m1713.2 647.31h2.086v-2.0898h-2.086z"
           id="path78" />
        <path
           d="m1721.6 645.22h-2.0899v-2.0859h2.0899z"
           id="path80" />
        <path
           d="m1723.7 643.13h-2.0859v-2.0898h2.0859z"
           id="path82" />
      </g>
      <path
         d="m1674.7 629.26 1.0429-1.043 2.0899-2.0859 5.9258-2.0234 0.125-0.0664 11.223-0.55469 1.2852 0.6211 5.8398 2.0898 1.293 0.97656 0.8828 1.043 1.043 2.0742-30.441 0.63281z"
         fill="#7acfa1"
         id="path86"
         style="fill:#ccd4df;fill-opacity:1" />
      <path
         d="m1683.9 601.18-4.1758 4.1758-1.0429 10.438 1.0429 2.0312 4.1758 4.1719 5.6016 1.0742 6.8633-1.0742 4.1757-4.1719 1.004-11.355-1.004-1.1133-4.1757-4.1758-6.7149-1.043z"
         fill="#7acfa1"
         id="path88"
         style="fill:#ccd4df;fill-opacity:1" />
      <g
         id="g132">
        <path
           d="m1696.4 601.18h-12.508v-2.0859h12.508z"
           id="path90" />
        <path
           d="m1696.4 624.04h-12.508v-2.0859h12.508z"
           id="path92" />
        <path
           d="m1706.5 632.39h-32.836v-2.0859h32.836z"
           id="path94" />
        <path
           d="m1700.5 605.31h2.0859v12.508h-2.0859z"
           id="path96" />
        <path
           d="m1677.7 605.31h2.0898v12.508h-2.0898z"
           id="path98" />
        <path
           d="m1698.5 603.27h-2.0898v-2.0898h2.0898z"
           id="path100" />
        <path
           d="m1700.6 605.35h-2.0859v-2.0859h2.0859z"
           id="path102" />
        <path
           d="m1681.9 605.35h-2.0899v-2.0859h2.0899z"
           id="path104" />
        <path
           d="m1683.9 603.27h-2.0859v-2.0898h2.0859z"
           id="path106" />
        <path
           d="m1681.9 619.91h2.0859v2.0859h-2.0859z"
           id="path108" />
        <path
           d="m1679.8 617.82h2.0899v2.0898h-2.0899z"
           id="path110" />
        <path
           d="m1704.4 628.21h2.0898v2.0859h-2.0898z"
           id="path112" />
        <path
           d="m1696.4 624.11h5.8398v2.0898h-5.8398z"
           id="path114" />
        <path
           d="m1702.3 626.13h2.086v2.0859h-2.086z"
           id="path116" />
        <path
           d="m1675.8 628.21h-2.0859v2.0859h2.0859z"
           id="path118" />
        <path
           d="m1673.7 630.3h-2.0899v2.0859h2.0899z"
           id="path120" />
        <path
           d="m1683.8 624.11h-5.8399v2.0898h5.8399z"
           id="path122" />
        <path
           d="m1677.8 626.13h-2.0899v2.0859h2.0899z"
           id="path124" />
        <path
           d="m1698.5 617.82h2.0859v2.0898h-2.0859z"
           id="path126" />
        <path
           d="m1696.4 619.91h2.0898v2.0859h-2.0898z"
           id="path128" />
        <path
           d="m1708.5 632.3h-1.9883v-2.0117h1.9883z"
           id="path130" />
      </g>
    </g>
  </g>
</svg>
