<?xml version="1.0" encoding="UTF-8"?>
<svg width="24.099mm" height="23.916mm" version="1.1" viewBox="0 0 24.099 23.916" xmlns="http://www.w3.org/2000/svg" xmlns:cc="http://creativecommons.org/ns#" xmlns:dc="http://purl.org/dc/elements/1.1/" xmlns:rdf="http://www.w3.org/1999/02/22-rdf-syntax-ns#">
 <defs>
  <clipPath>
   <path d="m166 153h748v571.11h-748z"/>
  </clipPath>
  <clipPath id="clip2">
   <rect width="1439" height="725"/>
  </clipPath>
  <g clip-path="url(#clip2)"></g>
  <clipPath>
   <path d="m0 0.67969h1v2.3203h-1z"/>
  </clipPath>
  <clipPath>
   <path d="m6 0.67969h1426v2.3203h-1426z"/>
  </clipPath>
  <clipPath>
   <path d="m0 666h1v2.8398h-1z"/>
  </clipPath>
  <clipPath>
   <path d="m6 666h1426v2.8398h-1426z"/>
  </clipPath>
  <clipPath id="clip5">
   <rect width="1439" height="669"/>
  </clipPath>
  <g clip-path="url(#clip5)"></g>
 </defs>
 <metadata>
  <rdf:RDF>
   <cc:Work rdf:about="">
    <dc:format>image/svg+xml</dc:format>
    <dc:type rdf:resource="http://purl.org/dc/dcmitype/StillImage"/>
    <dc:title/>
   </cc:Work>
  </rdf:RDF>
 </metadata>
 <g transform="translate(-113.79 -244.48)">
  <g transform="matrix(.35278 0 0 .35278 -471.48 37.782)">
   <path d="m1719 592.19-4.1758-4.1758h-49.523l-4.1758 4.1758v47.098l4.1758 4.1758h49.523l4.1758-4.1758z" fill="#fff"/>
   <g>
    <path d="m1661.1 592.19h-2.086v47.098h2.086z"/>
    <path d="m1721.1 592.19h-2.0898v47.098h2.0898z"/>
    <path d="m1665.3 588.02h49.523v-2.0859h-49.523z"/>
    <path d="m1665.3 645.55h49.523v-2.0859h-49.523z"/>
    <path d="m1663.2 590.1h2.0899v-2.0898h-2.0899z"/>
    <path d="m1661.1 592.19h2.0859v-2.0859h-2.0859z"/>
    <path d="m1716.9 592.19h2.086v-2.0859h-2.086z"/>
    <path d="m1714.8 590.1h2.0898v-2.0898h-2.0898z"/>
    <path d="m1716.9 641.38h-2.0898v2.0859h2.0898z"/>
    <path d="m1719 639.29h-2.086v2.0898h2.086z"/>
    <path d="m1663.2 639.29h-2.0859v2.0898h2.0859z"/>
    <path d="m1665.3 641.38h-2.0899v2.0859h2.0899z"/>
   </g>
   <path d="m1725 651.43h-13.141v-13.141h13.141z" fill="#f0bd47"/>
   <g>
    <path d="m1725 638.29h-13.141v-2.2891h13.141z"/>
    <path d="m1725 653.72h-13.141v-2.2891h13.141z"/>
    <path d="m1725 638.29h2.289v13.141h-2.289z"/>
    <path d="m1709.6 638.29h2.2852v13.141h-2.2852z"/>
    <path d="m1717.4 649.39h-2.0898v-2.0859h2.0898z"/>
    <path d="m1719.5 647.31h-2.0859v-2.0898h2.0859z"/>
    <path d="m1713.2 647.31h2.086v-2.0898h-2.086z"/>
    <path d="m1721.6 645.22h-2.0899v-2.0859h2.0899z"/>
    <path d="m1723.7 643.13h-2.0859v-2.0898h2.0859z"/>
   </g>
   <path d="m1674.7 629.26 1.0429-1.043 2.0899-2.0859 5.9258-2.0234 0.125-0.0664 11.223-0.55469 1.2852 0.6211 5.8398 2.0898 1.293 0.97656 0.8828 1.043 1.043 2.0742-30.441 0.63281z" fill="#7acfa1"/>
   <path d="m1683.9 601.18-4.1758 4.1758-1.0429 10.438 1.0429 2.0312 4.1758 4.1719 5.6016 1.0742 6.8633-1.0742 4.1757-4.1719 1.004-11.355-1.004-1.1133-4.1757-4.1758-6.7149-1.043z" fill="#7acfa1"/>
   <g>
    <path d="m1696.4 601.18h-12.508v-2.0859h12.508z"/>
    <path d="m1696.4 624.04h-12.508v-2.0859h12.508z"/>
    <path d="m1706.5 632.39h-32.836v-2.0859h32.836z"/>
    <path d="m1700.5 605.31h2.0859v12.508h-2.0859z"/>
    <path d="m1677.7 605.31h2.0898v12.508h-2.0898z"/>
    <path d="m1698.5 603.27h-2.0898v-2.0898h2.0898z"/>
    <path d="m1700.6 605.35h-2.0859v-2.0859h2.0859z"/>
    <path d="m1681.9 605.35h-2.0899v-2.0859h2.0899z"/>
    <path d="m1683.9 603.27h-2.0859v-2.0898h2.0859z"/>
    <path d="m1681.9 619.91h2.0859v2.0859h-2.0859z"/>
    <path d="m1679.8 617.82h2.0899v2.0898h-2.0899z"/>
    <path d="m1704.4 628.21h2.0898v2.0859h-2.0898z"/>
    <path d="m1696.4 624.11h5.8398v2.0898h-5.8398z"/>
    <path d="m1702.3 626.13h2.086v2.0859h-2.086z"/>
    <path d="m1675.8 628.21h-2.0859v2.0859h2.0859z"/>
    <path d="m1673.7 630.3h-2.0899v2.0859h2.0899z"/>
    <path d="m1683.8 624.11h-5.8399v2.0898h5.8399z"/>
    <path d="m1677.8 626.13h-2.0899v2.0859h2.0899z"/>
    <path d="m1698.5 617.82h2.0859v2.0898h-2.0859z"/>
    <path d="m1696.4 619.91h2.0898v2.0859h-2.0898z"/>
    <path d="m1708.5 632.3h-1.9883v-2.0117h1.9883z"/>
   </g>
  </g>
 </g>
</svg>
