<?xml version="1.0" encoding="UTF-8"?>
<svg width="21.318mm" height="21.08mm" version="1.1" viewBox="0 0 21.318 21.08" xmlns="http://www.w3.org/2000/svg" xmlns:cc="http://creativecommons.org/ns#" xmlns:dc="http://purl.org/dc/elements/1.1/" xmlns:rdf="http://www.w3.org/1999/02/22-rdf-syntax-ns#">
 <defs>
  <clipPath>
   <path d="m166 153h748v571.11h-748z"/>
  </clipPath>
  <clipPath id="clip2">
   <rect width="1439" height="725"/>
  </clipPath>
  <g clip-path="url(#clip2)"></g>
  <clipPath>
   <path d="m0 0.67969h1v2.3203h-1z"/>
  </clipPath>
  <clipPath>
   <path d="m6 0.67969h1426v2.3203h-1426z"/>
  </clipPath>
  <clipPath>
   <path d="m0 666h1v2.8398h-1z"/>
  </clipPath>
  <clipPath>
   <path d="m6 666h1426v2.8398h-1426z"/>
  </clipPath>
  <clipPath id="clip5">
   <rect width="1439" height="669"/>
  </clipPath>
  <g clip-path="url(#clip5)"></g>
 </defs>
 <metadata>
  <rdf:RDF>
   <cc:Work rdf:about="">
    <dc:format>image/svg+xml</dc:format>
    <dc:type rdf:resource="http://purl.org/dc/dcmitype/StillImage"/>
    <dc:title/>
   </cc:Work>
  </rdf:RDF>
 </metadata>
 <g transform="translate(-70.325 -156.47)">
  <g transform="matrix(.35278 0 0 .35278 -471.48 37.782)">
   <path d="m1555.2 371.98v7.6484l2.2852 8.3594 2.289 5.9102h6.6914v-5.9102l-2.2851-8.0039-2.2891-8.0039z" fill="#fff"/>
   <path d="m1594 338.73-3.7656-1.1445-2.5351 1.1445-6.3047 2.2852-6.3008 2.2891-6.3008 2.2852v26.398l6.3008 2.2852 6.3008 2.2891 6.3047 2.2852h6.3007z" fill="#fff"/>
   <g>
    <path d="m1566.5 347.87h-18.777v-2.2852h18.777z"/>
    <path d="m1575 345.59h-6.3008v-2.2891h6.3008z"/>
    <path d="m1581.4 343.3h-6.3047v-2.2852h6.3047z"/>
    <path d="m1587.7 341.01h-6.3008v-2.2852h6.3008z"/>
    <path d="m1594 338.73h-6.3007v-2.2891h6.3007z"/>
    <path d="m1575 371.98h-6.3008v2.2852h6.3008z"/>
    <path d="m1581.4 374.27h-6.3047v2.2891h6.3047z"/>
    <path d="m1587.7 376.56h-6.3008v2.2852h6.3008z"/>
    <path d="m1594 378.84h-6.3007v2.2891h6.3007z"/>
    <path d="m1566.5 371.98h-18.777v-2.2891h18.777z"/>
    <path d="m1547.7 369.7h-2.2852v-21.824h2.2852z"/>
    <path d="m1555.2 379.99h-2.2851v-8.0039h2.2851z"/>
    <path d="m1557.5 387.99h-2.2891v-8.0039h2.2891z"/>
    <path d="m1559.8 393.75h-2.2851v-5.7617h2.2851z"/>
    <path d="m1564.2 379.99h-2.2891v-8.0039h2.2891z"/>
    <path d="m1566.5 387.99h-2.2851v-8.0039h2.2851z"/>
    <path d="m1559.8 393.9h6.6914v2.2891h-6.6914z"/>
    <path d="m1568.7 393.9h-2.2891v-5.9102h2.2891z"/>
    <path d="m1545.4 353.33h-7.2968v-2.2852h7.2968z"/>
    <path d="m1545.4 366.53h-7.2968v-2.2852h7.2968z"/>
    <path d="m1538.1 364.24h-2.2852v-10.914h2.2852z"/>
    <path d="m1568.7 371.98h-2.2891v-26.398h2.2891z"/>
    <path d="m1596.2 378.84h-2.2891v-40.117h2.2891z"/>
   </g>
   <path d="m1566.5 369.7h-18.777v-21.824h18.777z" fill="#f0bd47"/>
   <path d="m1538.1 364.24h7.2968v-10.914h-7.2968z" fill="#7acfa1"/>
  </g>
 </g>
</svg>
