<?xml version="1.0" encoding="UTF-8"?>
<svg width="23.731mm" height="24.672mm" version="1.1" viewBox="0 0 23.731 24.672" xmlns="http://www.w3.org/2000/svg" xmlns:cc="http://creativecommons.org/ns#" xmlns:dc="http://purl.org/dc/elements/1.1/" xmlns:rdf="http://www.w3.org/1999/02/22-rdf-syntax-ns#">
 <defs>
  <clipPath>
   <path d="m166 153h748v571.11h-748z"/>
  </clipPath>
  <clipPath id="clip2">
   <rect width="1439" height="725"/>
  </clipPath>
  <g clip-path="url(#clip2)"></g>
  <clipPath>
   <path d="m0 0.67969h1v2.3203h-1z"/>
  </clipPath>
  <clipPath>
   <path d="m6 0.67969h1426v2.3203h-1426z"/>
  </clipPath>
  <clipPath>
   <path d="m0 666h1v2.8398h-1z"/>
  </clipPath>
  <clipPath>
   <path d="m6 666h1426v2.8398h-1426z"/>
  </clipPath>
  <clipPath id="clip5">
   <rect width="1439" height="669"/>
  </clipPath>
  <g clip-path="url(#clip5)"></g>
 </defs>
 <metadata>
  <rdf:RDF>
   <cc:Work rdf:about="">
    <dc:format>image/svg+xml</dc:format>
    <dc:type rdf:resource="http://purl.org/dc/dcmitype/StillImage"/>
    <dc:title/>
   </cc:Work>
  </rdf:RDF>
 </metadata>
 <g transform="translate(-69.118 -199.04)">
  <g transform="matrix(.35278 0 0 .35278 -471.48 37.782)">
   <path d="m1589.5 526.21 2.9804-1.5703 2.4063-2.4023 2.4023-2.4062 1.2031-30.734h-66.066l1.8125 29.996 0.5938 0.73828 4.8086 4.8086z" fill="#fff"/>
   <g>
    <path d="m1599.7 519.83h-2.4063v-31.879h2.4063z"/>
    <path d="m1534.8 519.83h-2.4063v-31.879h2.4063z"/>
    <path d="m1592.4 527.05h-52.84v-2.4062h52.84z"/>
    <path d="m1599.7 490.3h-67.266v-2.4062h67.266z"/>
    <path d="m1534.8 519.83h2.4023v2.4062h-2.4023z"/>
    <path d="m1537.2 522.24h2.4024v2.4023h-2.4024z"/>
    <path d="m1597.3 519.83h-2.4023v2.4062h2.4023z"/>
    <path d="m1594.9 522.24h-2.4063v2.4023h2.4063z"/>
   </g>
   <path d="m1542.6 468.29-2.9844 1.5664-4.8086 4.8086-1.2031 14.43h66.066l-1.8086-13.688-0.5977-0.74219-4.8086-4.8086z" fill="#7acfa1"/>
   <g>
    <path d="m1532.4 474.67h2.4024v15.574h-2.4024z"/>
    <path d="m1597.3 474.67h2.4063v15.574h-2.4063z"/>
    <path d="m1539.6 467.46h52.84v2.4023h-52.84z"/>
    <path d="m1532.4 487.89h67.266v2.4062h-67.266z"/>
    <path d="m1597.3 474.67h-2.4023v-2.4024h2.4023z"/>
    <path d="m1594.9 472.27h-2.4063v-2.4062h2.4063z"/>
    <path d="m1534.8 474.67h2.4023v-2.4024h-2.4023z"/>
    <path d="m1537.2 472.27h2.4024v-2.4062h-2.4024z"/>
    <path d="m1555.2 459.52h2.4062v15.371h-2.4062z"/>
    <path d="m1547.9 459.52h2.4024v15.371h-2.4024z"/>
    <path d="m1550.3 457.11h4.8086v2.4062h-4.8086z"/>
    <path d="m1550.3 474.89h4.8086v2.4062h-4.8086z"/>
   </g>
   <path d="m1550.3 459.52h4.8086v15.371h-4.8086z" fill="#f0bd47"/>
   <g>
    <path d="m1581.7 459.52h2.4063v15.371h-2.4063z"/>
    <path d="m1574.5 459.52h2.4062v15.371h-2.4062z"/>
    <path d="m1576.9 457.11h4.8086v2.4062h-4.8086z"/>
    <path d="m1576.9 474.89h4.8086v2.4062h-4.8086z"/>
   </g>
   <path d="m1576.9 459.52h4.8086v15.371h-4.8086z" fill="#f0bd47"/>
   <path d="m1551.8 503.89h-7.3711v-7.2812h7.3711z" fill="#7acfa1"/>
   <g>
    <path d="m1551.8 496.61h-7.3711v-2.2891h7.3711z"/>
    <path d="m1551.8 506.18h-7.3711v-2.2852h7.3711z"/>
    <path d="m1551.8 496.61h2.2891v7.2812h-2.2891z"/>
    <path d="m1542.1 496.61h2.2851v7.2812h-2.2851z"/>
   </g>
   <path d="m1569.7 503.89h-7.3711v-7.2812h7.3711z" fill="#7acfa1"/>
   <g>
    <path d="m1569.7 496.61h-7.3711v-2.2891h7.3711z"/>
    <path d="m1569.7 506.18h-7.3711v-2.2852h7.3711z"/>
    <path d="m1569.7 496.61h2.2851v7.2812h-2.2851z"/>
    <path d="m1560.1 496.61h2.2852v7.2812h-2.2852z"/>
   </g>
   <path d="m1587.7 503.89h-7.3711v-7.2812h7.3711z" fill="#7acfa1"/>
   <g>
    <path d="m1587.7 496.61h-7.3711v-2.2891h7.3711z"/>
    <path d="m1587.7 506.18h-7.3711v-2.2852h7.3711z"/>
    <path d="m1587.7 496.61h2.2851v7.2812h-2.2851z"/>
    <path d="m1578 496.61h2.2891v7.2812h-2.2891z"/>
   </g>
   <path d="m1551.8 518.75h-7.3711v-7.2773h7.3711z" fill="#7acfa1"/>
   <g>
    <path d="m1551.8 511.47h-7.3711v-2.2891h7.3711z"/>
    <path d="m1551.8 521.04h-7.3711v-2.2891h7.3711z"/>
    <path d="m1551.8 511.47h2.2891v7.2773h-2.2891z"/>
    <path d="m1542.1 511.47h2.2851v7.2773h-2.2851z"/>
   </g>
   <path d="m1569.7 518.75h-7.3711v-7.2773h7.3711z" fill="#7acfa1"/>
   <g>
    <path d="m1569.7 511.47h-7.3711v-2.2891h7.3711z"/>
    <path d="m1569.7 521.04h-7.3711v-2.2891h7.3711z"/>
    <path d="m1569.7 511.47h2.2851v7.2773h-2.2851z"/>
    <path d="m1560.1 511.47h2.2852v7.2773h-2.2852z"/>
   </g>
   <path d="m1587.7 518.75h-7.3711v-7.2773h7.3711z" fill="#f0bd47"/>
   <g>
    <path d="m1587.7 511.47h-7.3711v-2.2891h7.3711z"/>
    <path d="m1587.7 521.04h-7.3711v-2.2891h7.3711z"/>
    <path d="m1587.7 511.47h2.2851v7.2773h-2.2851z"/>
    <path d="m1578 511.47h2.2891v7.2773h-2.2891z"/>
   </g>
  </g>
 </g>
</svg>
