<?xml version="1.0" encoding="UTF-8" standalone="no"?>
<svg
   xmlns:dc="http://purl.org/dc/elements/1.1/"
   xmlns:cc="http://creativecommons.org/ns#"
   xmlns:rdf="http://www.w3.org/1999/02/22-rdf-syntax-ns#"
   xmlns:svg="http://www.w3.org/2000/svg"
   xmlns="http://www.w3.org/2000/svg"
   xmlns:sodipodi="http://sodipodi.sourceforge.net/DTD/sodipodi-0.dtd"
   xmlns:inkscape="http://www.inkscape.org/namespaces/inkscape"
   width="23.731mm"
   height="24.672mm"
   version="1.1"
   viewBox="0 0 23.731 24.672"
   id="svg174"
   sodipodi:docname="Roadmap.svg"
   inkscape:version="1.0.1 (3bc2e813f5, 2020-09-07)">
  <sodipodi:namedview
     pagecolor="#ffffff"
     bordercolor="#666666"
     borderopacity="1"
     objecttolerance="10"
     gridtolerance="10"
     guidetolerance="10"
     inkscape:pageopacity="0"
     inkscape:pageshadow="2"
     inkscape:window-width="762"
     inkscape:window-height="734"
     id="namedview176"
     showgrid="false"
     inkscape:zoom="2.8472306"
     inkscape:cx="17.080093"
     inkscape:cy="49.270922"
     inkscape:window-x="611"
     inkscape:window-y="2"
     inkscape:window-maximized="0"
     inkscape:current-layer="svg174" />
  <defs
     id="defs32">
    <clipPath
       id="clipPath4">
      <path
         d="m166 153h748v571.11h-748z"
         id="path2" />
    </clipPath>
    <clipPath
       id="clip2">
      <rect
         width="1439"
         height="725"
         id="rect6" />
    </clipPath>
    <g
       clip-path="url(#clip2)"
       id="g9" />
    <clipPath
       id="clipPath13">
      <path
         d="m0 0.67969h1v2.3203h-1z"
         id="path11" />
    </clipPath>
    <clipPath
       id="clipPath17">
      <path
         d="m6 0.67969h1426v2.3203h-1426z"
         id="path15" />
    </clipPath>
    <clipPath
       id="clipPath21">
      <path
         d="m0 666h1v2.8398h-1z"
         id="path19" />
    </clipPath>
    <clipPath
       id="clipPath25">
      <path
         d="m6 666h1426v2.8398h-1426z"
         id="path23" />
    </clipPath>
    <clipPath
       id="clip5">
      <rect
         width="1439"
         height="669"
         id="rect27" />
    </clipPath>
    <g
       clip-path="url(#clip5)"
       id="g30" />
  </defs>
  <metadata
     id="metadata34">
    <rdf:RDF>
      <cc:Work
         rdf:about="">
        <dc:format>image/svg+xml</dc:format>
        <dc:type
           rdf:resource="http://purl.org/dc/dcmitype/StillImage" />
        <dc:title />
      </cc:Work>
    </rdf:RDF>
  </metadata>
  <g
     transform="translate(-69.118 -199.04)"
     id="g172">
    <g
       transform="matrix(.35278 0 0 .35278 -471.48 37.782)"
       id="g170">
      <path
         d="m1589.5 526.21 2.9804-1.5703 2.4063-2.4023 2.4023-2.4062 1.2031-30.734h-66.066l1.8125 29.996 0.5938 0.73828 4.8086 4.8086z"
         fill="#fff"
         id="path36" />
      <g
         id="g54">
        <path
           d="m1599.7 519.83h-2.4063v-31.879h2.4063z"
           id="path38" />
        <path
           d="m1534.8 519.83h-2.4063v-31.879h2.4063z"
           id="path40" />
        <path
           d="m1592.4 527.05h-52.84v-2.4062h52.84z"
           id="path42" />
        <path
           d="m1599.7 490.3h-67.266v-2.4062h67.266z"
           id="path44" />
        <path
           d="m1534.8 519.83h2.4023v2.4062h-2.4023z"
           id="path46" />
        <path
           d="m1537.2 522.24h2.4024v2.4023h-2.4024z"
           id="path48" />
        <path
           d="m1597.3 519.83h-2.4023v2.4062h2.4023z"
           id="path50" />
        <path
           d="m1594.9 522.24h-2.4063v2.4023h2.4063z"
           id="path52" />
      </g>
      <path
         d="m1542.6 468.29-2.9844 1.5664-4.8086 4.8086-1.2031 14.43h66.066l-1.8086-13.688-0.5977-0.74219-4.8086-4.8086z"
         fill="#7acfa1"
         id="path56"
         style="fill:#ccd4df;fill-opacity:1" />
      <g
         id="g82">
        <path
           d="m1532.4 474.67h2.4024v15.574h-2.4024z"
           id="path58" />
        <path
           d="m1597.3 474.67h2.4063v15.574h-2.4063z"
           id="path60" />
        <path
           d="m1539.6 467.46h52.84v2.4023h-52.84z"
           id="path62" />
        <path
           d="m1532.4 487.89h67.266v2.4062h-67.266z"
           id="path64" />
        <path
           d="m1597.3 474.67h-2.4023v-2.4024h2.4023z"
           id="path66" />
        <path
           d="m1594.9 472.27h-2.4063v-2.4062h2.4063z"
           id="path68" />
        <path
           d="m1534.8 474.67h2.4023v-2.4024h-2.4023z"
           id="path70" />
        <path
           d="m1537.2 472.27h2.4024v-2.4062h-2.4024z"
           id="path72" />
        <path
           d="m1555.2 459.52h2.4062v15.371h-2.4062z"
           id="path74" />
        <path
           d="m1547.9 459.52h2.4024v15.371h-2.4024z"
           id="path76" />
        <path
           d="m1550.3 457.11h4.8086v2.4062h-4.8086z"
           id="path78" />
        <path
           d="m1550.3 474.89h4.8086v2.4062h-4.8086z"
           id="path80" />
      </g>
      <path
         d="m1550.3 459.52h4.8086v15.371h-4.8086z"
         fill="#f0bd47"
         id="path84"
         style="fill:#31e7ff;fill-opacity:1" />
      <g
         id="g94">
        <path
           d="m1581.7 459.52h2.4063v15.371h-2.4063z"
           id="path86" />
        <path
           d="m1574.5 459.52h2.4062v15.371h-2.4062z"
           id="path88" />
        <path
           d="m1576.9 457.11h4.8086v2.4062h-4.8086z"
           id="path90" />
        <path
           d="m1576.9 474.89h4.8086v2.4062h-4.8086z"
           id="path92" />
      </g>
      <path
         d="m1576.9 459.52h4.8086v15.371h-4.8086z"
         fill="#f0bd47"
         id="path96"
         style="fill:#31e7ff;fill-opacity:1" />
      <path
         d="m1551.8 503.89h-7.3711v-7.2812h7.3711z"
         fill="#7acfa1"
         id="path98"
         style="fill:#ccd4df;fill-opacity:1" />
      <g
         id="g108">
        <path
           d="m1551.8 496.61h-7.3711v-2.2891h7.3711z"
           id="path100" />
        <path
           d="m1551.8 506.18h-7.3711v-2.2852h7.3711z"
           id="path102" />
        <path
           d="m1551.8 496.61h2.2891v7.2812h-2.2891z"
           id="path104" />
        <path
           d="m1542.1 496.61h2.2851v7.2812h-2.2851z"
           id="path106" />
      </g>
      <path
         d="m1569.7 503.89h-7.3711v-7.2812h7.3711z"
         fill="#7acfa1"
         id="path110"
         style="fill:#ccd4df;fill-opacity:1" />
      <g
         id="g120">
        <path
           d="m1569.7 496.61h-7.3711v-2.2891h7.3711z"
           id="path112" />
        <path
           d="m1569.7 506.18h-7.3711v-2.2852h7.3711z"
           id="path114" />
        <path
           d="m1569.7 496.61h2.2851v7.2812h-2.2851z"
           id="path116" />
        <path
           d="m1560.1 496.61h2.2852v7.2812h-2.2852z"
           id="path118" />
      </g>
      <path
         d="m1587.7 503.89h-7.3711v-7.2812h7.3711z"
         fill="#7acfa1"
         id="path122"
         style="fill:#ccd4df;fill-opacity:1" />
      <g
         id="g132">
        <path
           d="m1587.7 496.61h-7.3711v-2.2891h7.3711z"
           id="path124" />
        <path
           d="m1587.7 506.18h-7.3711v-2.2852h7.3711z"
           id="path126" />
        <path
           d="m1587.7 496.61h2.2851v7.2812h-2.2851z"
           id="path128" />
        <path
           d="m1578 496.61h2.2891v7.2812h-2.2891z"
           id="path130" />
      </g>
      <path
         d="m1551.8 518.75h-7.3711v-7.2773h7.3711z"
         fill="#7acfa1"
         id="path134"
         style="fill:#ccd4df;fill-opacity:1" />
      <g
         id="g144">
        <path
           d="m1551.8 511.47h-7.3711v-2.2891h7.3711z"
           id="path136" />
        <path
           d="m1551.8 521.04h-7.3711v-2.2891h7.3711z"
           id="path138" />
        <path
           d="m1551.8 511.47h2.2891v7.2773h-2.2891z"
           id="path140" />
        <path
           d="m1542.1 511.47h2.2851v7.2773h-2.2851z"
           id="path142" />
      </g>
      <path
         d="m1569.7 518.75h-7.3711v-7.2773h7.3711z"
         fill="#7acfa1"
         id="path146"
         style="fill:#ccd4df;fill-opacity:1" />
      <g
         id="g156">
        <path
           d="m1569.7 511.47h-7.3711v-2.2891h7.3711z"
           id="path148" />
        <path
           d="m1569.7 521.04h-7.3711v-2.2891h7.3711z"
           id="path150" />
        <path
           d="m1569.7 511.47h2.2851v7.2773h-2.2851z"
           id="path152" />
        <path
           d="m1560.1 511.47h2.2852v7.2773h-2.2852z"
           id="path154" />
      </g>
      <path
         d="m1587.7 518.75h-7.3711v-7.2773h7.3711z"
         fill="#f0bd47"
         id="path158"
         style="fill:#31e7ff;fill-opacity:1" />
      <g
         id="g168">
        <path
           d="m1587.7 511.47h-7.3711v-2.2891h7.3711z"
           id="path160" />
        <path
           d="m1587.7 521.04h-7.3711v-2.2891h7.3711z"
           id="path162" />
        <path
           d="m1587.7 511.47h2.2851v7.2773h-2.2851z"
           id="path164" />
        <path
           d="m1578 511.47h2.2891v7.2773h-2.2891z"
           id="path166" />
      </g>
    </g>
  </g>
</svg>
